SplineFontDB: 3.2
FontName: Entity-ThinOblique
FullName: Entity Thin Oblique
FamilyName: Entity
Weight: Thin
Copyright: Based on Geist Copyright 2024 The Geist Project Authors https:github.comvercelgeist-font.git
Version: 0.1
ItalicAngle: -10
UnderlinePosition: -125
UnderlineWidth: 50
Ascent: 800
Descent: 200
InvalidEm: 0
sfntRevision: 0x0000199a
LayerCount: 2
Layer: 0 0 "Back" 1
Layer: 1 0 "Fore" 0
XUID: [1021 1008 -1557834819 13155132]
StyleMap: 0x0040
FSType: 0
OS2Version: 4
OS2_WeightWidthSlopeOnly: 0
OS2_UseTypoMetrics: 1
CreationTime: 1728311655
ModificationTime: 1746815918
PfmFamily: 81
TTFWeight: 100
TTFWidth: 5
LineGap: 0
VLineGap: 0
Panose: 0 0 0 0 0 0 0 0 0 0
OS2TypoAscent: 1005
OS2TypoAOffset: 0
OS2TypoDescent: -295
OS2TypoDOffset: 0
OS2TypoLinegap: 0
OS2WinAscent: 1012
OS2WinAOffset: 0
OS2WinDescent: 262
OS2WinDOffset: 0
HheadAscent: 1005
HheadAOffset: 0
HheadDescent: -295
HheadDOffset: 0
OS2SubXSize: 650
OS2SubYSize: 600
OS2SubXOff: 0
OS2SubYOff: 75
OS2SupXSize: 650
OS2SupYSize: 600
OS2SupXOff: 0
OS2SupYOff: 350
OS2StrikeYSize: 50
OS2StrikeYPos: 318
OS2CapHeight: 710
OS2XHeight: 530
OS2Vendor: 'VRCL'
OS2CodePages: 20000097.00000000
OS2UnicodeRanges: a10002ff.5001e5fb.00000000.00000000
Lookup: 1 0 0 "'aalt' Access All Alternates in Latin lookup 0" { "'aalt' Access All Alternates in Latin lookup 0 subtable"  } ['aalt' ('DFLT' <'dflt' > 'latn' <'AZE ' 'CAT ' 'CRT ' 'KAZ ' 'MAH ' 'MOL ' 'NLD ' 'ROM ' 'TAT ' 'TRK ' 'dflt' > ) ]
Lookup: 3 0 0 "'aalt' Access All Alternates in Latin lookup 1" { "'aalt' Access All Alternates in Latin lookup 1 subtable"  } ['aalt' ('DFLT' <'dflt' > 'latn' <'AZE ' 'CAT ' 'CRT ' 'KAZ ' 'MAH ' 'MOL ' 'NLD ' 'ROM ' 'TAT ' 'TRK ' 'dflt' > ) ]

StartChar: .notdef
Encoding: 65536 -1 0
Width: 605
GlyphClass: 1
Flags: HMW
HStem: 0 36<95 510 95 565> 674 36<95 95 95 510>
VStem: 40 33<64 646 64 710> 532 33<64 646 646 646>
LayerCount: 2
Fore
SplineSet
-22.595703125 0 m 1
 102.595703125 710 l 1
 627.595703125 710 l 1
 502.404296875 0 l 1
 -22.595703125 0 l 1
151.248046875 674 m 1
 308.11328125 384 l 1
 566.248046875 674 l 1
 151.248046875 674 l 1
124.311523438 646 m 1
 21.6884765625 64 l 1
 282 355 l 1
 124.311523438 646 l 1
323 355 m 1
 480.688476562 64 l 1
 583.311523438 646 l 1
 323 355 l 1
38.751953125 36 m 1
 453.751953125 36 l 1
 297.88671875 326 l 1
 38.751953125 36 l 1
EndSplineSet
Validated: 524289
EndChar

StartChar: A
Encoding: 65 65 1
Width: 612
GlyphClass: 2
Flags: HMW
HStem: 0 21G<24 24 24 57 555 555 555 588> 235 30<154 458 154 469 143 458> 678 32<306 306>
VStem: 24 564<0 0>
AnchorPoint: "Anchor-3" 368.596 710 basechar 0
AnchorPoint: "Anchor-2" 525.404 0 basechar 0
AnchorPoint: "Anchor-0" 243.404 0 basechar 0
LayerCount: 2
Fore
SplineSet
-38.595703125 0 m 1
 349.595703125 710 l 1
 387.595703125 710 l 1
 525.404296875 0 l 1
 492.404296875 0 l 1
 447.840820312 235 l 1
 121.840820312 235 l 1
 -5.595703125 0 l 1
 -38.595703125 0 l 1
138.130859375 265 m 1
 442.130859375 265 l 1
 362.954101562 678 l 1
 138.130859375 265 l 1
EndSplineSet
Validated: 524289
Substitution2: "Single Substitution lookup 27 subtable" ordfeminine
Substitution2: "'aalt' Access All Alternates in Latin lookup 0 subtable" ordfeminine
EndChar

StartChar: Aacute
Encoding: 193 193 2
Width: 612
GlyphClass: 2
Flags: HMW
HStem: 0 21G<24 24 24 57 555 555 555 588> 235 30<154 458 154 469 143 458> 678 32<306 306> 790 116<292 398 292 398>
VStem: 24 564<0 0>
AnchorPoint: "Anchor-3" 351.316 710 basechar 0
AnchorPoint: "Anchor-2" 508.124 0 basechar 0
AnchorPoint: "Anchor-0" 226.124 0 basechar 0
LayerCount: 2
Fore
SplineSet
351.421875 790 m 1
 443.875976562 906 l 1
 477.875976562 906 l 1
 377.421875 790 l 1
 351.421875 790 l 1
-55.8759765625 0 m 1
 332.31640625 710 l 1
 370.31640625 710 l 1
 508.124023438 0 l 1
 475.124023438 0 l 1
 430.560546875 235 l 1
 104.560546875 235 l 1
 -22.8759765625 0 l 1
 -55.8759765625 0 l 1
120.850585938 265 m 1
 424.850585938 265 l 1
 345.673828125 678 l 1
 120.850585938 265 l 1
EndSplineSet
Validated: 524289
EndChar

StartChar: Abreve
Encoding: 258 258 3
Width: 612
GlyphClass: 2
Flags: HMW
HStem: 0 21G<24 24 24 57 555 555 555 588> 235 30<154 458 154 469 143 458> 678 32<306 306> 798 28<280 332 280 341>
VStem: 24 564<0 0>
AnchorPoint: "Anchor-3" 350.61 710 basechar 0
AnchorPoint: "Anchor-2" 507.419 0 basechar 0
AnchorPoint: "Anchor-0" 225.419 0 basechar 0
LayerCount: 2
Fore
SplineSet
366.127929688 798 m 0
 296.127929688 798 260.23828125 844 262.581054688 914 c 1
 288.581054688 914 l 1
 286.354492188 856 319.064453125 826 371.064453125 826 c 0
 423.064453125 826 466.354492188 856 484.581054688 914 c 1
 510.581054688 914 l 1
 488.23828125 844 436.127929688 798 366.127929688 798 c 0
-56.5810546875 0 m 1
 331.610351562 710 l 1
 369.610351562 710 l 1
 507.418945312 0 l 1
 474.418945312 0 l 1
 429.85546875 235 l 1
 103.85546875 235 l 1
 -23.5810546875 0 l 1
 -56.5810546875 0 l 1
120.145507812 265 m 1
 424.145507812 265 l 1
 344.96875 678 l 1
 120.145507812 265 l 1
EndSplineSet
Validated: 524321
EndChar

StartChar: uni01CD
Encoding: 461 461 4
Width: 612
GlyphClass: 2
Flags: HMW
HStem: 0 21G<24 24 24 57 555 555 555 588> 235 30<154 458 154 469 143 458> 678 32<306 306> 790 25<306 306 306 317 295 306>
VStem: 24 564<0 0>
AnchorPoint: "Anchor-3" 350.61 710 basechar 0
AnchorPoint: "Anchor-2" 507.419 0 basechar 0
AnchorPoint: "Anchor-0" 225.419 0 basechar 0
LayerCount: 2
Fore
SplineSet
287.581054688 914 m 1
 315.581054688 914 l 1
 369.125 815 l 1
 457.581054688 914 l 1
 485.581054688 914 l 1
 375.716796875 790 l 1
 353.716796875 790 l 1
 287.581054688 914 l 1
-56.5810546875 0 m 1
 331.610351562 710 l 1
 369.610351562 710 l 1
 507.418945312 0 l 1
 474.418945312 0 l 1
 429.85546875 235 l 1
 103.85546875 235 l 1
 -23.5810546875 0 l 1
 -56.5810546875 0 l 1
120.145507812 265 m 1
 424.145507812 265 l 1
 344.96875 678 l 1
 120.145507812 265 l 1
EndSplineSet
Validated: 524289
EndChar

StartChar: Acircumflex
Encoding: 194 194 5
Width: 612
GlyphClass: 2
Flags: HMW
HStem: 0 21G<24 24 24 57 555 555 555 588> 235 30<154 458 154 469 143 458> 678 32<306 306> 889 25<307 307>
VStem: 24 564<0 0>
AnchorPoint: "Anchor-3" 350.61 710 basechar 0
AnchorPoint: "Anchor-2" 507.419 0 basechar 0
AnchorPoint: "Anchor-0" 225.419 0 basechar 0
LayerCount: 2
Fore
SplineSet
266.716796875 790 m 1
 376.581054688 914 l 1
 398.581054688 914 l 1
 464.716796875 790 l 1
 436.716796875 790 l 1
 383.172851562 889 l 1
 294.716796875 790 l 1
 266.716796875 790 l 1
-56.5810546875 0 m 1
 331.610351562 710 l 1
 369.610351562 710 l 1
 507.418945312 0 l 1
 474.418945312 0 l 1
 429.85546875 235 l 1
 103.85546875 235 l 1
 -23.5810546875 0 l 1
 -56.5810546875 0 l 1
120.145507812 265 m 1
 424.145507812 265 l 1
 344.96875 678 l 1
 120.145507812 265 l 1
EndSplineSet
Validated: 524289
EndChar

StartChar: Adieresis
Encoding: 196 196 6
Width: 612
GlyphClass: 2
Flags: HMW
HStem: 0 21G<24 24 24 57 555 555 555 588> 235 30<154 458 154 469 143 458> 678 32<306 306> 808 70<225 259 225 259 353 387>
VStem: 225 34<808 878 808 878> 353 34<808 878 808 878>
AnchorPoint: "Anchor-3" 353.784 710 basechar 0
AnchorPoint: "Anchor-2" 510.593 0 basechar 0
AnchorPoint: "Anchor-0" 228.593 0 basechar 0
LayerCount: 2
Fore
SplineSet
290.064453125 808 m 1
 302.407226562 878 l 1
 336.407226562 878 l 1
 324.064453125 808 l 1
 290.064453125 808 l 1
418.064453125 808 m 1
 430.407226562 878 l 1
 464.407226562 878 l 1
 452.064453125 808 l 1
 418.064453125 808 l 1
-53.4072265625 0 m 1
 334.784179688 710 l 1
 372.784179688 710 l 1
 510.592773438 0 l 1
 477.592773438 0 l 1
 433.029296875 235 l 1
 107.029296875 235 l 1
 -20.4072265625 0 l 1
 -53.4072265625 0 l 1
123.319335938 265 m 1
 427.319335938 265 l 1
 348.142578125 678 l 1
 123.319335938 265 l 1
EndSplineSet
Validated: 524289
Substitution2: "'ss08' Style Set 8 in Latin lookup 41 subtable" Adieresis.ss08
Substitution2: "'aalt' Access All Alternates in Latin lookup 0 subtable" Adieresis.ss08
EndChar

StartChar: Agrave
Encoding: 192 192 7
Width: 612
GlyphClass: 2
Flags: HMW
HStem: 0 21G<24 24 24 57 555 555 555 588> 235 30<154 458 154 469 143 458> 678 32<306 306> 798 116<213 293 213 319>
VStem: 24 564<0 0>
AnchorPoint: "Anchor-3" 350.61 710 basechar 0
AnchorPoint: "Anchor-2" 507.419 0 basechar 0
AnchorPoint: "Anchor-0" 225.419 0 basechar 0
LayerCount: 2
Fore
SplineSet
353.127929688 798 m 1
 293.581054688 914 l 1
 327.581054688 914 l 1
 379.127929688 798 l 1
 353.127929688 798 l 1
-56.5810546875 0 m 1
 331.610351562 710 l 1
 369.610351562 710 l 1
 507.418945312 0 l 1
 474.418945312 0 l 1
 429.85546875 235 l 1
 103.85546875 235 l 1
 -23.5810546875 0 l 1
 -56.5810546875 0 l 1
120.145507812 265 m 1
 424.145507812 265 l 1
 344.96875 678 l 1
 120.145507812 265 l 1
EndSplineSet
Validated: 524289
EndChar

StartChar: Amacron
Encoding: 256 256 8
Width: 612
GlyphClass: 2
Flags: HMW
HStem: 0 21G<24 24 24 57 555 555 555 588> 235 30<154 458 154 469 143 458> 678 32<306 306> 824 28<182 430 182 430>
VStem: 24 564<0 0>
AnchorPoint: "Anchor-3" 356.077 710 basechar 0
AnchorPoint: "Anchor-2" 512.885 0 basechar 0
AnchorPoint: "Anchor-0" 230.885 0 basechar 0
LayerCount: 2
Fore
SplineSet
252.177734375 824 m 1
 257.115234375 852 l 1
 505.115234375 852 l 1
 500.177734375 824 l 1
 252.177734375 824 l 1
-51.115234375 0 m 1
 337.077148438 710 l 1
 375.077148438 710 l 1
 512.884765625 0 l 1
 479.884765625 0 l 1
 435.321289062 235 l 1
 109.321289062 235 l 1
 -18.115234375 0 l 1
 -51.115234375 0 l 1
125.611328125 265 m 1
 429.611328125 265 l 1
 350.434570312 678 l 1
 125.611328125 265 l 1
EndSplineSet
Validated: 524289
EndChar

StartChar: Aogonek
Encoding: 260 260 9
Width: 612
GlyphClass: 2
Flags: HMW
HStem: -192 26<557 578 557 581> 0 21G<24 24 24 57 555 555 555 563 588 588> 235 30<154 458 154 469 143 458> 678 32<306 306>
VStem: 498 30<-144.5 -116>
AnchorPoint: "Anchor-3" 385.523 710 basechar 0
AnchorPoint: "Anchor-2" 542.331 0 basechar 0
AnchorPoint: "Anchor-0" 260.331 0 basechar 0
LayerCount: 2
Fore
SplineSet
-21.6689453125 0 m 1
 366.5234375 710 l 1
 404.5234375 710 l 1
 542.331054688 0 l 1
 509.278320312 -40 l 2
 483.98828125 -70 465.05078125 -98 459.409179688 -130 c 0
 454.294921875 -159 471.060546875 -166 493.060546875 -166 c 0
 513.060546875 -166 531.119140625 -160 544.706054688 -151 c 1
 554.827148438 -173 l 1
 534.7109375 -185 514.4765625 -192 488.4765625 -192 c 0
 450.4765625 -192 421.297851562 -176 429.055664062 -132 c 0
 434.698242188 -100 462.870117188 -65 495.747070312 -26 c 2
 517.331054688 0 l 1
 509.331054688 0 l 1
 464.768554688 235 l 1
 138.768554688 235 l 1
 11.3310546875 0 l 1
 -21.6689453125 0 l 1
155.057617188 265 m 1
 459.057617188 265 l 1
 379.880859375 678 l 1
 155.057617188 265 l 1
EndSplineSet
Validated: 524321
EndChar

StartChar: Aring
Encoding: 197 197 10
Width: 612
GlyphClass: 2
Flags: HMW
HStem: 0 21G<24 24 24 57 555 555 555 588> 235 30<154 458 154 469 143 458> 678 32<306 306> 772 25<292 320 292 327> 888 26<292 320>
VStem: 234 26<829 857 829 863.5> 351 26<829 857>
AnchorPoint: "Anchor-3" 350.61 710 basechar 0
AnchorPoint: "Anchor-2" 507.419 0 basechar 0
AnchorPoint: "Anchor-0" 225.419 0 basechar 0
LayerCount: 2
Fore
SplineSet
361.54296875 772 m 0
 319.54296875 772 294.65625 801 302.0625 843 c 0
 309.291992188 884 344.581054688 914 386.581054688 914 c 0
 427.581054688 914 452.291992188 884 445.0625 843 c 0
 437.833007812 802 403.54296875 772 361.54296875 772 c 0
365.951171875 797 m 0
 393.951171875 797 414.125 815 419.0625 843 c 0
 423.999023438 871 409.997070312 888 381.997070312 888 c 0
 353.997070312 888 332.999023438 871 328.0625 843 c 0
 323.125 815 337.951171875 797 365.951171875 797 c 0
-56.5810546875 0 m 1
 331.610351562 710 l 1
 369.610351562 710 l 1
 507.418945312 0 l 1
 474.418945312 0 l 1
 429.85546875 235 l 1
 103.85546875 235 l 1
 -23.5810546875 0 l 1
 -56.5810546875 0 l 1
120.145507812 265 m 1
 424.145507812 265 l 1
 344.96875 678 l 1
 120.145507812 265 l 1
EndSplineSet
Validated: 524321
EndChar

StartChar: Atilde
Encoding: 195 195 11
Width: 612
GlyphClass: 2
Flags: HMW
HStem: 0 21G<24 24 24 57 555 555 555 588> 235 30<154 458 154 469 143 458> 678 32<306 306> 810 24<353 374 353 382> 870 24<228 255>
VStem: 167 26<805 805> 405 26<903 903>
AnchorPoint: "Anchor-3" 351.58 710 basechar 0
AnchorPoint: "Anchor-2" 508.389 0 basechar 0
AnchorPoint: "Anchor-0" 226.389 0 basechar 0
LayerCount: 2
Fore
SplineSet
424.212890625 810 m 0
 396.212890625 810 381.15234375 821 365.85546875 842 c 0
 353.029296875 860 340.79296875 870 316.79296875 870 c 0
 286.79296875 870 265.08984375 849 255.33203125 805 c 1
 229.33203125 805 l 1
 243.206054688 861 279.024414062 894 321.024414062 894 c 0
 353.024414062 894 370.379882812 879 386.676757812 858 c 0
 401.502929688 840 412.4453125 834 428.4453125 834 c 0
 454.4453125 834 471.794921875 853 484.611328125 903 c 1
 510.611328125 903 l 1
 496.384765625 845 466.212890625 810 424.212890625 810 c 0
-55.611328125 0 m 1
 332.580078125 710 l 1
 370.580078125 710 l 1
 508.388671875 0 l 1
 475.388671875 0 l 1
 430.825195312 235 l 1
 104.825195312 235 l 1
 -22.611328125 0 l 1
 -55.611328125 0 l 1
121.115234375 265 m 1
 425.115234375 265 l 1
 345.938476562 678 l 1
 121.115234375 265 l 1
EndSplineSet
Validated: 524289
EndChar

StartChar: AE
Encoding: 198 198 12
Width: 890
GlyphClass: 2
Flags: HMW
HStem: 0 30<483 840 483 840> 235 30<197 451 197 451 182 451> 341 30<483 820 483 820> 680 30<412 451 412 412 483 832 483 483>
VStem: 451 32<30 235 235 235 265 341 371 680>
AnchorPoint: "Anchor-3" 532.596 710 basechar 0
AnchorPoint: "Anchor-0" 407.404 0 basechar 0
LayerCount: 2
Fore
SplineSet
-38.595703125 0 m 1
 457.595703125 710 l 1
 894.595703125 710 l 1
 889.306640625 680 l 1
 540.306640625 680 l 1
 485.821289062 371 l 1
 822.821289062 371 l 1
 817.53125 341 l 1
 480.53125 341 l 1
 425.693359375 30 l 1
 782.693359375 30 l 1
 777.404296875 0 l 1
 388.404296875 0 l 1
 429.840820312 235 l 1
 160.840820312 235 l 1
 -2.595703125 0 l 1
 -38.595703125 0 l 1
508.306640625 680 m 1
 469.306640625 680 l 1
 181.130859375 265 l 1
 435.130859375 265 l 1
 508.306640625 680 l 1
EndSplineSet
Validated: 524289
EndChar

StartChar: B
Encoding: 66 66 13
Width: 638
GlyphClass: 2
Flags: HMW
HStem: 0 30<128 353 128 353> 339 30<128 313 313 353 128 313> 680 30<128 313 128 128>
VStem: 96 32<30 30 30 339 369 680> 519 34<478 573.5> 549 34<135 235>
AnchorPoint: "Anchor-3" 381.596 710 basechar 0
AnchorPoint: "Anchor-0" 256.404 0 basechar 0
LayerCount: 2
Fore
SplineSet
33.404296875 0 m 1xf4
 158.595703125 710 l 1
 375.595703125 710 l 2
 535.595703125 710 604.487304688 647 582.09375 520 c 0xf8
 567.282226562 436 502.173828125 373 418.529296875 358 c 1
 518.236328125 345 570.127929688 282 553.729492188 189 c 0
 531.512695312 63 444.404296875 0 290.404296875 0 c 2
 33.404296875 0 l 1xf4
130.46875 369 m 1
 315.46875 369 l 2
 447.46875 369 530.990234375 423 548.09375 520 c 0
 566.9609375 627 508.306640625 680 370.306640625 680 c 2
 185.306640625 680 l 1
 130.46875 369 l 1
70.693359375 30 m 1
 295.693359375 30 l 2
 426.693359375 30 500.686523438 81 519.729492188 189 c 0xf4
 535.952148438 281 470.178710938 339 350.178710938 339 c 2
 125.178710938 339 l 1
 70.693359375 30 l 1
EndSplineSet
Validated: 524321
EndChar

StartChar: C
Encoding: 67 67 14
Width: 676
GlyphClass: 2
Flags: HMW
HStem: -16 32<267 419 267 427> 694 32<267 416>
VStem: 50 34<249 459 249 469>
AnchorPoint: "Anchor-3" 410.596 710 basechar 0
AnchorPoint: "Anchor-0" 285.404 0 basechar 0
LayerCount: 2
Fore
SplineSet
282.583007812 -16 m 0
 100.583007812 -16 9.2685546875 124 49.8232421875 354 c 0
 90.37890625 584 231.416992188 726 413.416992188 726 c 0
 567.416992188 726 645.137695312 628 647.041015625 480 c 1
 612.51171875 477 l 1
 613.787109375 609 543.774414062 694 407.774414062 694 c 0
 245.774414062 694 120.852539062 564 83.8232421875 354 c 0
 46.794921875 144 126.225585938 16 288.225585938 16 c 0
 430.225585938 16 534.565429688 103 578.309570312 249 c 1
 611.780273438 246 l 1
 559.215820312 84 440.583007812 -16 282.583007812 -16 c 0
EndSplineSet
Validated: 524321
EndChar

StartChar: Cacute
Encoding: 262 262 15
Width: 676
GlyphClass: 2
Flags: HMW
HStem: -16 32<267 419 267 427> 694 32<267 416> 790 116<334 440 334 440>
VStem: 50 34<249 459 249 469>
AnchorPoint: "Anchor-3" 394.727 710 basechar 0
AnchorPoint: "Anchor-0" 269.534 0 basechar 0
LayerCount: 2
Fore
SplineSet
394.833007812 790 m 1
 487.287109375 906 l 1
 521.287109375 906 l 1
 420.833007812 790 l 1
 394.833007812 790 l 1
266.712890625 -16 m 0
 84.712890625 -16 -6.6005859375 124 33.9541015625 354 c 0
 74.509765625 584 215.547851562 726 397.547851562 726 c 0
 551.547851562 726 629.267578125 628 631.171875 480 c 1
 596.642578125 477 l 1
 597.91796875 609 527.905273438 694 391.905273438 694 c 0
 229.905273438 694 104.983398438 564 67.9541015625 354 c 0
 30.92578125 144 110.35546875 16 272.35546875 16 c 0
 414.35546875 16 518.696289062 103 562.439453125 249 c 1
 595.911132812 246 l 1
 543.345703125 84 424.712890625 -16 266.712890625 -16 c 0
EndSplineSet
Validated: 524321
EndChar

StartChar: Ccaron
Encoding: 268 268 16
Width: 676
GlyphClass: 2
Flags: HMW
HStem: -16 32<267 419 267 427> 694 32<267 416> 790 25<348 348 348 359 337 348>
VStem: 50 34<249 459 249 469>
AnchorPoint: "Anchor-3" 394.021 710 basechar 0
AnchorPoint: "Anchor-0" 268.829 0 basechar 0
LayerCount: 2
Fore
SplineSet
330.9921875 914 m 1
 358.9921875 914 l 1
 412.536132812 815 l 1
 500.9921875 914 l 1
 528.9921875 914 l 1
 419.127929688 790 l 1
 397.127929688 790 l 1
 330.9921875 914 l 1
266.0078125 -16 m 0
 84.0078125 -16 -7.306640625 124 33.2490234375 354 c 0
 73.8037109375 584 214.842773438 726 396.842773438 726 c 0
 550.842773438 726 628.5625 628 630.465820312 480 c 1
 595.9375 477 l 1
 597.211914062 609 527.200195312 694 391.200195312 694 c 0
 229.200195312 694 104.27734375 564 67.2490234375 354 c 0
 30.220703125 144 109.650390625 16 271.650390625 16 c 0
 413.650390625 16 517.991210938 103 561.734375 249 c 1
 595.206054688 246 l 1
 542.640625 84 424.0078125 -16 266.0078125 -16 c 0
EndSplineSet
Validated: 524321
EndChar

StartChar: Ccedilla
Encoding: 199 199 17
Width: 676
GlyphClass: 2
Flags: HMW
HStem: -204 26<317 359 317 368> -72 24<336 336 336 351.5> -16 32<353 419 267 429.5> -15 31<326 326> 694 32<267 416>
VStem: 50 34<249 459 249 469> 406 28<-143 -106.5>
AnchorPoint: "Anchor-3" 427.171 710 basechar 0
AnchorPoint: "Anchor-0" 301.979 0 basechar 0
LayerCount: 2
Fore
SplineSet
258.0078125 -204 m 0xee
 208.0078125 -204 177.88671875 -182 172.587890625 -144 c 1
 198.350585938 -134 l 1
 201.766601562 -160 218.592773438 -178 260.592773438 -178 c 0
 302.592773438 -178 331.4140625 -162 338.114257812 -124 c 0
 344.28515625 -89 324.283203125 -72 261.283203125 -72 c 1
 250.45703125 -54 l 1
 277.333984375 -15 l 1xde
 110.2734375 -4 27.4296875 133 66.3984375 354 c 0
 106.954101562 584 247.9921875 726 429.9921875 726 c 0
 583.9921875 726 661.711914062 628 663.615234375 480 c 1
 629.086914062 477 l 1
 630.361328125 609 560.349609375 694 424.349609375 694 c 0
 262.349609375 694 137.426757812 564 100.3984375 354 c 0
 63.3701171875 144 142.799804688 16 304.799804688 16 c 0
 446.799804688 16 551.140625 103 594.883789062 249 c 1
 628.35546875 246 l 1
 575.790039062 84 457.157226562 -16 304.157226562 -16 c 1
 281.514648438 -48 l 1
 343.162109375 -50 374.930664062 -74 365.76171875 -126 c 0
 356.9453125 -176 314.0078125 -204 258.0078125 -204 c 0xee
EndSplineSet
Validated: 524321
EndChar

StartChar: Ccircumflex
Encoding: 264 264 18
Width: 676
GlyphClass: 2
Flags: HMW
HStem: -16 32<267 419 267 427> 694 32<267 416> 889 25<349 349>
VStem: 50 34<249 459 249 469>
AnchorPoint: "Anchor-3" 394.021 710 basechar 0
AnchorPoint: "Anchor-0" 268.829 0 basechar 0
LayerCount: 2
Fore
SplineSet
310.127929688 790 m 1
 419.9921875 914 l 1
 441.9921875 914 l 1
 508.127929688 790 l 1
 480.127929688 790 l 1
 426.583984375 889 l 1
 338.127929688 790 l 1
 310.127929688 790 l 1
266.0078125 -16 m 0
 84.0078125 -16 -7.306640625 124 33.2490234375 354 c 0
 73.8037109375 584 214.842773438 726 396.842773438 726 c 0
 550.842773438 726 628.5625 628 630.465820312 480 c 1
 595.9375 477 l 1
 597.211914062 609 527.200195312 694 391.200195312 694 c 0
 229.200195312 694 104.27734375 564 67.2490234375 354 c 0
 30.220703125 144 109.650390625 16 271.650390625 16 c 0
 413.650390625 16 517.991210938 103 561.734375 249 c 1
 595.206054688 246 l 1
 542.640625 84 424.0078125 -16 266.0078125 -16 c 0
EndSplineSet
Validated: 524321
EndChar

StartChar: Cdotaccent
Encoding: 266 266 19
Width: 676
GlyphClass: 2
Flags: HMW
HStem: -16 32<267 419 267 427> 694 32<267 416> 808 70<331 365 331 365>
VStem: 50 34<249 459 249 469> 331 34<808 878 808 878>
AnchorPoint: "Anchor-3" 397.195 710 basechar 0
AnchorPoint: "Anchor-0" 272.003 0 basechar 0
LayerCount: 2
Fore
SplineSet
397.475585938 808 m 1
 409.818359375 878 l 1
 443.818359375 878 l 1
 431.475585938 808 l 1
 397.475585938 808 l 1
269.181640625 -16 m 0
 87.181640625 -16 -4.1328125 124 36.4228515625 354 c 0
 76.978515625 584 218.016601562 726 400.016601562 726 c 0
 554.016601562 726 631.736328125 628 633.639648438 480 c 1
 599.111328125 477 l 1
 600.385742188 609 530.374023438 694 394.374023438 694 c 0
 232.374023438 694 107.451171875 564 70.4228515625 354 c 0
 33.39453125 144 112.82421875 16 274.82421875 16 c 0
 416.82421875 16 521.165039062 103 564.908203125 249 c 1
 598.379882812 246 l 1
 545.814453125 84 427.181640625 -16 269.181640625 -16 c 0
EndSplineSet
Validated: 524321
Substitution2: "'ss08' Style Set 8 in Latin lookup 41 subtable" Cdotaccent.ss08
Substitution2: "'aalt' Access All Alternates in Latin lookup 0 subtable" Cdotaccent.ss08
EndChar

StartChar: D
Encoding: 68 68 20
Width: 676
GlyphClass: 2
Flags: HMW
HStem: 0 30<128 298 298 304> 680 30<128 298 128 128>
VStem: 96 32<30 30 30 680> 592 34<250 458.5>
AnchorPoint: "Anchor-3" 381.596 710 basechar 0
AnchorPoint: "Anchor-1" 200 355 basechar 0
AnchorPoint: "Anchor-0" 255.404 0 basechar 0
LayerCount: 2
Fore
SplineSet
33.404296875 0 m 1
 158.595703125 710 l 1
 360.595703125 710 l 2
 570.595703125 710 666.026367188 582 625.823242188 354 c 0
 585.797851562 127 448.404296875 0 241.404296875 0 c 2
 33.404296875 0 l 1
70.693359375 30 m 1
 240.693359375 30 l 2
 429.693359375 30 555.147460938 146 591.823242188 354 c 0
 628.67578125 563 544.306640625 680 355.306640625 680 c 2
 185.306640625 680 l 1
 70.693359375 30 l 1
EndSplineSet
Validated: 524321
EndChar

StartChar: Dcaron
Encoding: 270 270 21
Width: 676
GlyphClass: 2
Flags: HMW
HStem: 0 30<128 298 298 304> 680 30<128 298 128 128> 790 25<319 319 319 330 308 319>
VStem: 96 32<30 30 30 680> 592 34<250 458.5>
AnchorPoint: "Anchor-3" 363.61 710 basechar 0
AnchorPoint: "Anchor-1" 182.015 355 basechar 0
AnchorPoint: "Anchor-0" 237.419 0 basechar 0
LayerCount: 2
Fore
SplineSet
300.581054688 914 m 1
 328.581054688 914 l 1
 382.125 815 l 1
 470.581054688 914 l 1
 498.581054688 914 l 1
 388.716796875 790 l 1
 366.716796875 790 l 1
 300.581054688 914 l 1
15.4189453125 0 m 1
 140.610351562 710 l 1
 342.610351562 710 l 2
 552.610351562 710 648.041015625 582 607.837890625 354 c 0
 567.8125 127 430.418945312 0 223.418945312 0 c 2
 15.4189453125 0 l 1
52.7080078125 30 m 1
 222.708007812 30 l 2
 411.708007812 30 537.162109375 146 573.837890625 354 c 0
 610.690429688 563 526.321289062 680 337.321289062 680 c 2
 167.321289062 680 l 1
 52.7080078125 30 l 1
EndSplineSet
Validated: 524321
EndChar

StartChar: Dcroat
Encoding: 272 272 22
Width: 676
GlyphClass: 2
Flags: HMW
HStem: 0 30<128 298 298 304> 340 30<10 96 10 96 128 390> 680 30<128 298 128 128>
VStem: 96 32<30 30 30 340 370 680> 592 34<250 458.5>
AnchorPoint: "Anchor-3" 381.596 710 basechar 0
AnchorPoint: "Anchor-1" 200 355 basechar 0
AnchorPoint: "Anchor-0" 255.404 0 basechar 0
LayerCount: 2
Fore
SplineSet
33.404296875 0 m 1
 93.35546875 340 l 1
 7.35546875 340 l 1
 12.64453125 370 l 1
 98.64453125 370 l 1
 158.595703125 710 l 1
 360.595703125 710 l 2
 570.595703125 710 666.026367188 582 625.823242188 354 c 0
 585.797851562 127 448.404296875 0 241.404296875 0 c 2
 33.404296875 0 l 1
70.693359375 30 m 1
 240.693359375 30 l 2
 429.693359375 30 555.147460938 146 591.823242188 354 c 0
 628.67578125 563 544.306640625 680 355.306640625 680 c 2
 185.306640625 680 l 1
 130.64453125 370 l 1
 392.64453125 370 l 1
 387.35546875 340 l 1
 125.35546875 340 l 1
 70.693359375 30 l 1
EndSplineSet
Validated: 524321
EndChar

StartChar: Eth
Encoding: 208 208 23
Width: 676
GlyphClass: 2
Flags: HMW
HStem: 0 30<128 298 298 304> 340 30<10 96 10 96 128 390> 680 30<128 298 128 128>
VStem: 96 32<30 30 30 340 370 680> 592 34<250 458.5>
AnchorPoint: "Anchor-3" 381.596 710 basechar 0
AnchorPoint: "Anchor-1" 200 355 basechar 0
AnchorPoint: "Anchor-0" 255.404 0 basechar 0
LayerCount: 2
Fore
SplineSet
33.404296875 0 m 1
 93.35546875 340 l 1
 7.35546875 340 l 1
 12.64453125 370 l 1
 98.64453125 370 l 1
 158.595703125 710 l 1
 360.595703125 710 l 2
 570.595703125 710 666.026367188 582 625.823242188 354 c 0
 585.797851562 127 448.404296875 0 241.404296875 0 c 2
 33.404296875 0 l 1
70.693359375 30 m 1
 240.693359375 30 l 2
 429.693359375 30 555.147460938 146 591.823242188 354 c 0
 628.67578125 563 544.306640625 680 355.306640625 680 c 2
 185.306640625 680 l 1
 130.64453125 370 l 1
 392.64453125 370 l 1
 387.35546875 340 l 1
 125.35546875 340 l 1
 70.693359375 30 l 1
EndSplineSet
Validated: 524321
EndChar

StartChar: E
Encoding: 69 69 24
Width: 573
GlyphClass: 2
Flags: HMW
HStem: 0 30<128 523 128 523> 339 30<128 503 128 503> 680 30<128 515 128 128>
VStem: 96 32<30 339 369 680>
AnchorPoint: "Anchor-3" 368.596 710 basechar 0
AnchorPoint: "Anchor-2" 460.404 0 basechar 0
AnchorPoint: "Anchor-0" 243.404 0 basechar 0
LayerCount: 2
Fore
SplineSet
33.404296875 0 m 1
 158.595703125 710 l 1
 577.595703125 710 l 1
 572.306640625 680 l 1
 185.306640625 680 l 1
 130.46875 369 l 1
 505.46875 369 l 1
 500.178710938 339 l 1
 125.178710938 339 l 1
 70.693359375 30 l 1
 465.693359375 30 l 1
 460.404296875 0 l 1
 33.404296875 0 l 1
EndSplineSet
Validated: 524289
EndChar

StartChar: Eacute
Encoding: 201 201 25
Width: 573
GlyphClass: 2
Flags: HMW
HStem: 0 30<128 523 128 523> 339 30<128 503 128 503> 680 30<128 515 128 128> 790 116<292 398 292 398>
VStem: 96 32<30 339 369 680>
AnchorPoint: "Anchor-3" 351.316 710 basechar 0
AnchorPoint: "Anchor-2" 443.124 0 basechar 0
AnchorPoint: "Anchor-0" 226.124 0 basechar 0
LayerCount: 2
Fore
SplineSet
351.421875 790 m 1
 443.875976562 906 l 1
 477.875976562 906 l 1
 377.421875 790 l 1
 351.421875 790 l 1
16.1240234375 0 m 1
 141.31640625 710 l 1
 560.31640625 710 l 1
 555.026367188 680 l 1
 168.026367188 680 l 1
 113.188476562 369 l 1
 488.188476562 369 l 1
 482.8984375 339 l 1
 107.8984375 339 l 1
 53.4140625 30 l 1
 448.4140625 30 l 1
 443.124023438 0 l 1
 16.1240234375 0 l 1
EndSplineSet
Validated: 524289
EndChar

StartChar: Ecaron
Encoding: 282 282 26
Width: 573
GlyphClass: 2
Flags: HMW
HStem: 0 30<128 523 128 523> 339 30<128 503 128 503> 680 30<128 515 128 128> 790 25<306 306 306 317 295 306>
VStem: 96 32<30 339 369 680>
AnchorPoint: "Anchor-3" 350.61 710 basechar 0
AnchorPoint: "Anchor-2" 442.419 0 basechar 0
AnchorPoint: "Anchor-0" 225.419 0 basechar 0
LayerCount: 2
Fore
SplineSet
287.581054688 914 m 1
 315.581054688 914 l 1
 369.125 815 l 1
 457.581054688 914 l 1
 485.581054688 914 l 1
 375.716796875 790 l 1
 353.716796875 790 l 1
 287.581054688 914 l 1
15.4189453125 0 m 1
 140.610351562 710 l 1
 559.610351562 710 l 1
 554.321289062 680 l 1
 167.321289062 680 l 1
 112.483398438 369 l 1
 487.483398438 369 l 1
 482.193359375 339 l 1
 107.193359375 339 l 1
 52.7080078125 30 l 1
 447.708007812 30 l 1
 442.418945312 0 l 1
 15.4189453125 0 l 1
EndSplineSet
Validated: 524289
EndChar

StartChar: Ecircumflex
Encoding: 202 202 27
Width: 573
GlyphClass: 2
Flags: HMW
HStem: 0 30<128 523 128 523> 339 30<128 503 128 503> 680 30<128 515 128 128> 889 25<307 307>
VStem: 96 32<30 339 369 680>
AnchorPoint: "Anchor-3" 350.61 710 basechar 0
AnchorPoint: "Anchor-2" 442.419 0 basechar 0
AnchorPoint: "Anchor-0" 225.419 0 basechar 0
LayerCount: 2
Fore
SplineSet
266.716796875 790 m 1
 376.581054688 914 l 1
 398.581054688 914 l 1
 464.716796875 790 l 1
 436.716796875 790 l 1
 383.172851562 889 l 1
 294.716796875 790 l 1
 266.716796875 790 l 1
15.4189453125 0 m 1
 140.610351562 710 l 1
 559.610351562 710 l 1
 554.321289062 680 l 1
 167.321289062 680 l 1
 112.483398438 369 l 1
 487.483398438 369 l 1
 482.193359375 339 l 1
 107.193359375 339 l 1
 52.7080078125 30 l 1
 447.708007812 30 l 1
 442.418945312 0 l 1
 15.4189453125 0 l 1
EndSplineSet
Validated: 524289
EndChar

StartChar: Edieresis
Encoding: 203 203 28
Width: 573
GlyphClass: 2
Flags: HMW
HStem: 0 30<128 523 128 523> 339 30<128 503 128 503> 680 30<128 515 128 128> 808 70<225 259 225 259 353 387>
VStem: 96 32<30 339 369 680> 225 34<808 878 808 878> 353 34<808 878 808 878>
AnchorPoint: "Anchor-3" 353.784 710 basechar 0
AnchorPoint: "Anchor-2" 445.593 0 basechar 0
AnchorPoint: "Anchor-0" 228.593 0 basechar 0
LayerCount: 2
Fore
SplineSet
290.064453125 808 m 1
 302.407226562 878 l 1
 336.407226562 878 l 1
 324.064453125 808 l 1
 290.064453125 808 l 1
418.064453125 808 m 1
 430.407226562 878 l 1
 464.407226562 878 l 1
 452.064453125 808 l 1
 418.064453125 808 l 1
18.5927734375 0 m 1
 143.784179688 710 l 1
 562.784179688 710 l 1
 557.495117188 680 l 1
 170.495117188 680 l 1
 115.657226562 369 l 1
 490.657226562 369 l 1
 485.3671875 339 l 1
 110.3671875 339 l 1
 55.8818359375 30 l 1
 450.881835938 30 l 1
 445.592773438 0 l 1
 18.5927734375 0 l 1
EndSplineSet
Validated: 524289
Substitution2: "'ss08' Style Set 8 in Latin lookup 41 subtable" Edieresis.ss08
Substitution2: "'aalt' Access All Alternates in Latin lookup 0 subtable" Edieresis.ss08
EndChar

StartChar: Edotaccent
Encoding: 278 278 29
Width: 573
GlyphClass: 2
Flags: HMW
HStem: 0 30<128 523 128 523> 339 30<128 503 128 503> 680 30<128 515 128 128> 808 70<289 323 289 323>
VStem: 96 32<30 339 369 680> 289 34<808 878 808 878>
AnchorPoint: "Anchor-3" 353.784 710 basechar 0
AnchorPoint: "Anchor-2" 445.593 0 basechar 0
AnchorPoint: "Anchor-0" 228.593 0 basechar 0
LayerCount: 2
Fore
SplineSet
354.064453125 808 m 1
 366.407226562 878 l 1
 400.407226562 878 l 1
 388.064453125 808 l 1
 354.064453125 808 l 1
18.5927734375 0 m 1
 143.784179688 710 l 1
 562.784179688 710 l 1
 557.495117188 680 l 1
 170.495117188 680 l 1
 115.657226562 369 l 1
 490.657226562 369 l 1
 485.3671875 339 l 1
 110.3671875 339 l 1
 55.8818359375 30 l 1
 450.881835938 30 l 1
 445.592773438 0 l 1
 18.5927734375 0 l 1
EndSplineSet
Validated: 524289
Substitution2: "'ss08' Style Set 8 in Latin lookup 41 subtable" Edotaccent.ss08
Substitution2: "'aalt' Access All Alternates in Latin lookup 0 subtable" Edotaccent.ss08
EndChar

StartChar: Egrave
Encoding: 200 200 30
Width: 573
GlyphClass: 2
Flags: HMW
HStem: 0 30<128 523 128 523> 339 30<128 503 128 503> 680 30<128 515 128 128> 798 116<213 293 213 319>
VStem: 96 32<30 339 369 680>
AnchorPoint: "Anchor-3" 350.61 710 basechar 0
AnchorPoint: "Anchor-2" 442.419 0 basechar 0
AnchorPoint: "Anchor-0" 225.419 0 basechar 0
LayerCount: 2
Fore
SplineSet
353.127929688 798 m 1
 293.581054688 914 l 1
 327.581054688 914 l 1
 379.127929688 798 l 1
 353.127929688 798 l 1
15.4189453125 0 m 1
 140.610351562 710 l 1
 559.610351562 710 l 1
 554.321289062 680 l 1
 167.321289062 680 l 1
 112.483398438 369 l 1
 487.483398438 369 l 1
 482.193359375 339 l 1
 107.193359375 339 l 1
 52.7080078125 30 l 1
 447.708007812 30 l 1
 442.418945312 0 l 1
 15.4189453125 0 l 1
EndSplineSet
Validated: 524289
EndChar

StartChar: Emacron
Encoding: 274 274 31
Width: 573
GlyphClass: 2
Flags: HMW
HStem: 0 30<128 523 128 523> 339 30<128 503 128 503> 680 30<128 515 128 128> 824 28<182 430 182 430>
VStem: 96 32<30 339 369 680>
AnchorPoint: "Anchor-3" 356.077 710 basechar 0
AnchorPoint: "Anchor-2" 447.885 0 basechar 0
AnchorPoint: "Anchor-0" 230.885 0 basechar 0
LayerCount: 2
Fore
SplineSet
252.177734375 824 m 1
 257.115234375 852 l 1
 505.115234375 852 l 1
 500.177734375 824 l 1
 252.177734375 824 l 1
20.884765625 0 m 1
 146.077148438 710 l 1
 565.077148438 710 l 1
 559.787109375 680 l 1
 172.787109375 680 l 1
 117.94921875 369 l 1
 492.94921875 369 l 1
 487.659179688 339 l 1
 112.659179688 339 l 1
 58.1748046875 30 l 1
 453.174804688 30 l 1
 447.884765625 0 l 1
 20.884765625 0 l 1
EndSplineSet
Validated: 524289
EndChar

StartChar: Eogonek
Encoding: 280 280 32
Width: 573
GlyphClass: 2
Flags: HMW
HStem: -192 26<492 513 492 516> 0 30<128 498 128 523> 339 30<128 503 128 503> 680 30<128 515 128 128>
VStem: 96 32<30 339 369 680> 433 30<-144.5 -116> 498 25<0 30>
AnchorPoint: "Anchor-3" 385.523 710 basechar 0
AnchorPoint: "Anchor-2" 477.331 0 basechar 0
AnchorPoint: "Anchor-0" 260.331 0 basechar 0
LayerCount: 2
Fore
SplineSet
50.3310546875 0 m 1
 175.5234375 710 l 1
 594.5234375 710 l 1
 589.233398438 680 l 1
 202.233398438 680 l 1
 147.395507812 369 l 1
 522.395507812 369 l 1
 517.106445312 339 l 1
 142.106445312 339 l 1
 87.62109375 30 l 1
 482.62109375 30 l 1
 477.331054688 0 l 1
 444.278320312 -40 l 2
 418.98828125 -70 400.05078125 -98 394.409179688 -130 c 0
 389.294921875 -159 406.060546875 -166 428.060546875 -166 c 0
 448.060546875 -166 466.119140625 -160 479.706054688 -151 c 1
 489.827148438 -173 l 1
 469.7109375 -185 449.4765625 -192 423.4765625 -192 c 0
 385.4765625 -192 356.297851562 -176 364.055664062 -132 c 0
 369.698242188 -100 397.870117188 -65 430.747070312 -26 c 2
 452.331054688 0 l 1
 50.3310546875 0 l 1
EndSplineSet
Validated: 524321
EndChar

StartChar: uni1EBC
Encoding: 7868 7868 33
Width: 573
GlyphClass: 2
Flags: HMW
HStem: 0 30<128 523 128 523> 339 30<128 503 128 503> 680 30<128 515 128 128> 810 24<353 374 353 382> 870 24<228 255>
VStem: 96 32<30 339 369 680> 167 26<805 805> 405 26<903 903>
AnchorPoint: "Anchor-3" 351.58 710 basechar 0
AnchorPoint: "Anchor-2" 443.389 0 basechar 0
AnchorPoint: "Anchor-0" 226.389 0 basechar 0
LayerCount: 2
Fore
SplineSet
424.212890625 810 m 0
 396.212890625 810 381.15234375 821 365.85546875 842 c 0
 353.029296875 860 340.79296875 870 316.79296875 870 c 0
 286.79296875 870 265.08984375 849 255.33203125 805 c 1
 229.33203125 805 l 1
 243.206054688 861 279.024414062 894 321.024414062 894 c 0
 353.024414062 894 370.379882812 879 386.676757812 858 c 0
 401.502929688 840 412.4453125 834 428.4453125 834 c 0
 454.4453125 834 471.794921875 853 484.611328125 903 c 1
 510.611328125 903 l 1
 496.384765625 845 466.212890625 810 424.212890625 810 c 0
16.388671875 0 m 1
 141.580078125 710 l 1
 560.580078125 710 l 1
 555.291015625 680 l 1
 168.291015625 680 l 1
 113.453125 369 l 1
 488.453125 369 l 1
 483.163085938 339 l 1
 108.163085938 339 l 1
 53.677734375 30 l 1
 448.677734375 30 l 1
 443.388671875 0 l 1
 16.388671875 0 l 1
EndSplineSet
Validated: 524289
EndChar

StartChar: uni018F
Encoding: 399 399 34
Width: 701
GlyphClass: 1
Flags: HMW
HStem: -15 32<275.5 426.5 275.5 439> 335 30<84 618 84 84> 694 32<295 428.5>
VStem: 50 34<335 365 335 365> 618 33<335 335 365 365>
LayerCount: 2
Fore
SplineSet
651.087890625 356 m 0
 610.885742188 128 461.670898438 -15 285.670898438 -15 c 0
 108.670898438 -15 9.8857421875 128 50.087890625 356 c 2
 51.6748046875 365 l 1
 619.674804688 365 l 1
 652.469726562 568 565.686523438 694 410.686523438 694 c 0
 298.686523438 694 191.814453125 621 136.30078125 516 c 1
 102.829101562 519 l 1
 161.341796875 641 284.329101562 726 416.329101562 726 c 0
 592.329101562 726 691.114257812 583 651.087890625 356 c 0
291.313476562 17 m 0
 442.313476562 17 575.47265625 137 614.385742188 335 c 1
 80.3857421875 335 l 1
 53.47265625 137 140.313476562 17 291.313476562 17 c 0
EndSplineSet
Validated: 524321
EndChar

StartChar: F
Encoding: 70 70 35
Width: 560
GlyphClass: 1
Flags: HMW
HStem: 0 21G<96 96 96 128> 339 30<128 497 128 497> 680 30<128 515 128 128>
VStem: 96 32<0 339 369 680>
LayerCount: 2
Fore
SplineSet
33.404296875 0 m 1
 158.595703125 710 l 1
 577.595703125 710 l 1
 572.306640625 680 l 1
 185.306640625 680 l 1
 130.46875 369 l 1
 499.46875 369 l 1
 494.178710938 339 l 1
 125.178710938 339 l 1
 65.404296875 0 l 1
 33.404296875 0 l 1
EndSplineSet
Validated: 524289
EndChar

StartChar: G
Encoding: 71 71 36
Width: 675
GlyphClass: 2
Flags: HMW
HStem: -16 32<266 415> 0 21G<592 620 592 592> 302 28<354 588 354 620> 694 32<266 414>
VStem: 50 34<250 458.5 250 468.5> 588 32<302 302> 590.5 29.5
AnchorPoint: "Anchor-3" 414.596 710 basechar 0
AnchorPoint: "Anchor-0" 291.404 0 basechar 0
LayerCount: 2
Fore
SplineSet
280.583007812 -16 m 0xba
 99.5830078125 -16 9.7978515625 127 49.8232421875 354 c 0
 90.2021484375 583 224.416992188 726 417.416992188 726 c 0
 555.416992188 726 638.4296875 641 640.216796875 481 c 1
 606.51171875 477 l 1
 603.903320312 621 535.774414062 694 411.774414062 694 c 0
 239.774414062 694 120.67578125 563 83.8232421875 354 c 0
 47.1474609375 146 126.225585938 16 286.225585938 16 c 0xbc
 430.225585938 16 534.2109375 118 578.654296875 302 c 1
 344.654296875 302 l 1
 349.591796875 330 l 1
 615.591796875 330 l 1
 557.404296875 0 l 1x7c
 529.404296875 0 l 1x7a
 557.260742188 175 l 1
 512.5703125 69 418.583007812 -16 280.583007812 -16 c 0xba
EndSplineSet
Validated: 524321
Substitution2: "'ss06' Style Set 6 in Latin lookup 39 subtable" G.ss06
Substitution2: "'aalt' Access All Alternates in Latin lookup 0 subtable" G.ss06
EndChar

StartChar: Gbreve
Encoding: 286 286 37
Width: 675
GlyphClass: 2
Flags: HMW
HStem: -16 32<266 415> 0 21G<592 620 592 592> 302 28<354 588 354 620> 694 32<266 414> 798 28<326 378 326 387>
VStem: 50 34<250 458.5 250 468.5> 588 32<302 302> 590.5 29.5
AnchorPoint: "Anchor-3" 398.021 710 basechar 0
AnchorPoint: "Anchor-0" 274.829 0 basechar 0
LayerCount: 2
Fore
SplineSet
413.538085938 798 m 0xbd
 343.538085938 798 307.649414062 844 309.9921875 914 c 1
 335.9921875 914 l 1
 333.764648438 856 366.475585938 826 418.475585938 826 c 0
 470.475585938 826 513.764648438 856 531.9921875 914 c 1
 557.9921875 914 l 1
 535.649414062 844 483.538085938 798 413.538085938 798 c 0xbd
264.0078125 -16 m 0
 83.0078125 -16 -6.77734375 127 33.2490234375 354 c 0
 73.6279296875 583 207.842773438 726 400.842773438 726 c 0
 538.842773438 726 621.854492188 641 623.642578125 481 c 1
 589.9375 477 l 1
 587.328125 621 519.200195312 694 395.200195312 694 c 0
 223.200195312 694 104.1015625 563 67.2490234375 354 c 0
 30.5732421875 146 109.650390625 16 269.650390625 16 c 0xbe
 413.650390625 16 517.635742188 118 562.080078125 302 c 1
 328.080078125 302 l 1
 333.016601562 330 l 1
 599.016601562 330 l 1
 540.829101562 0 l 1x7e
 512.829101562 0 l 1x7d
 540.686523438 175 l 1
 495.99609375 69 402.0078125 -16 264.0078125 -16 c 0
EndSplineSet
Validated: 524321
Substitution2: "'ss06' Style Set 6 in Latin lookup 39 subtable" Gbreve.ss06
Substitution2: "'aalt' Access All Alternates in Latin lookup 0 subtable" Gbreve.ss06
EndChar

StartChar: Gcaron
Encoding: 486 486 38
Width: 675
GlyphClass: 2
Flags: HMW
HStem: -16 32<266 415> 0 21G<592 620 592 592> 302 28<354 588 354 620> 694 32<266 414> 790 25<352 352 352 363 341 352>
VStem: 50 34<250 458.5 250 468.5> 588 32<302 302> 590.5 29.5
AnchorPoint: "Anchor-3" 398.021 710 basechar 0
AnchorPoint: "Anchor-0" 274.829 0 basechar 0
LayerCount: 2
Fore
SplineSet
334.9921875 914 m 1xbd
 362.9921875 914 l 1
 416.536132812 815 l 1
 504.9921875 914 l 1
 532.9921875 914 l 1
 423.127929688 790 l 1
 401.127929688 790 l 1
 334.9921875 914 l 1xbd
264.0078125 -16 m 0
 83.0078125 -16 -6.77734375 127 33.2490234375 354 c 0
 73.6279296875 583 207.842773438 726 400.842773438 726 c 0
 538.842773438 726 621.854492188 641 623.642578125 481 c 1
 589.9375 477 l 1
 587.328125 621 519.200195312 694 395.200195312 694 c 0
 223.200195312 694 104.1015625 563 67.2490234375 354 c 0
 30.5732421875 146 109.650390625 16 269.650390625 16 c 0xb6
 413.650390625 16 517.635742188 118 562.080078125 302 c 1
 328.080078125 302 l 1
 333.016601562 330 l 1
 599.016601562 330 l 1
 540.829101562 0 l 1x76
 512.829101562 0 l 1x75
 540.686523438 175 l 1
 495.99609375 69 402.0078125 -16 264.0078125 -16 c 0
EndSplineSet
Validated: 524321
EndChar

StartChar: Gcircumflex
Encoding: 284 284 39
Width: 675
GlyphClass: 2
Flags: HMW
HStem: -16 32<266 415> 0 21G<592 620 592 592> 302 28<354 588 354 620> 694 32<266 414> 889 25<353 353>
VStem: 50 34<250 458.5 250 468.5> 588 32<302 302> 590.5 29.5
AnchorPoint: "Anchor-3" 398.021 710 basechar 0
AnchorPoint: "Anchor-0" 274.829 0 basechar 0
LayerCount: 2
Fore
SplineSet
314.127929688 790 m 1xbd
 423.9921875 914 l 1
 445.9921875 914 l 1
 512.127929688 790 l 1
 484.127929688 790 l 1
 430.583984375 889 l 1
 342.127929688 790 l 1
 314.127929688 790 l 1xbd
264.0078125 -16 m 0
 83.0078125 -16 -6.77734375 127 33.2490234375 354 c 0
 73.6279296875 583 207.842773438 726 400.842773438 726 c 0
 538.842773438 726 621.854492188 641 623.642578125 481 c 1
 589.9375 477 l 1
 587.328125 621 519.200195312 694 395.200195312 694 c 0
 223.200195312 694 104.1015625 563 67.2490234375 354 c 0
 30.5732421875 146 109.650390625 16 269.650390625 16 c 0xb6
 413.650390625 16 517.635742188 118 562.080078125 302 c 1
 328.080078125 302 l 1
 333.016601562 330 l 1
 599.016601562 330 l 1
 540.829101562 0 l 1x76
 512.829101562 0 l 1x75
 540.686523438 175 l 1
 495.99609375 69 402.0078125 -16 264.0078125 -16 c 0
EndSplineSet
Validated: 524321
Substitution2: "'ss06' Style Set 6 in Latin lookup 39 subtable" Gcircumflex.ss06
Substitution2: "'aalt' Access All Alternates in Latin lookup 0 subtable" Gcircumflex.ss06
EndChar

StartChar: uni0122
Encoding: 290 290 40
Width: 675
GlyphClass: 2
Flags: HMW
HStem: -94 48<329 353 329 379> -16 32<266 415> 0 21G<592 620 592 592> 302 28<354 588 354 620> 694 32<266 414>
VStem: 50 34<250 458.5 250 468.5> 329 50<-89 -46 -89 -46 -89 -46> 588 32<302 302> 590.5 29.5
AnchorPoint: "Anchor-3" 428.085 710 basechar 0
AnchorPoint: "Anchor-0" 275.094 -169 basechar 0
LayerCount: 2
Fore
SplineSet
294.071289062 -16 m 0x5e80
 113.071289062 -16 23.2861328125 127 63.3125 354 c 0
 103.69140625 583 237.90625 726 430.90625 726 c 0
 568.90625 726 651.918945312 641 653.706054688 481 c 1
 620.000976562 477 l 1
 617.391601562 621 549.263671875 694 425.263671875 694 c 0
 253.263671875 694 134.165039062 563 97.3125 354 c 0
 60.63671875 146 139.713867188 16 299.713867188 16 c 0x5f
 443.713867188 16 547.69921875 118 592.143554688 302 c 1
 358.143554688 302 l 1
 363.081054688 330 l 1
 629.081054688 330 l 1
 570.892578125 0 l 1x3f
 542.892578125 0 l 1x3e80
 570.75 175 l 1
 526.059570312 69 432.071289062 -16 294.071289062 -16 c 0x5e80
238.09375 -169 m 1
 287.318359375 -94 l 1
 263.318359375 -94 l 1
 271.782226562 -46 l 1
 321.782226562 -46 l 1x9f
 314.200195312 -89 l 1
 260.09375 -169 l 1
 238.09375 -169 l 1
EndSplineSet
Validated: 524321
Substitution2: "'ss06' Style Set 6 in Latin lookup 39 subtable" uni0122.ss06
Substitution2: "'aalt' Access All Alternates in Latin lookup 0 subtable" uni0122.ss06
EndChar

StartChar: Gdotaccent
Encoding: 288 288 41
Width: 675
GlyphClass: 2
Flags: HMW
HStem: -16 32<266 415> 0 21G<592 620 592 592> 302 28<354 588 354 620> 694 32<266 414> 808 70<335 369 335 369>
VStem: 50 34<250 458.5 250 468.5> 335 34<808 878 808 878> 588 32<302 302> 590.5 29.5
AnchorPoint: "Anchor-3" 401.195 710 basechar 0
AnchorPoint: "Anchor-0" 278.003 0 basechar 0
LayerCount: 2
Fore
SplineSet
401.475585938 808 m 1xbe80
 413.818359375 878 l 1
 447.818359375 878 l 1
 435.475585938 808 l 1
 401.475585938 808 l 1xbe80
267.181640625 -16 m 0
 86.181640625 -16 -3.603515625 127 36.4228515625 354 c 0
 76.8017578125 583 211.016601562 726 404.016601562 726 c 0
 542.016601562 726 625.028320312 641 626.81640625 481 c 1
 593.111328125 477 l 1
 590.501953125 621 522.374023438 694 398.374023438 694 c 0
 226.374023438 694 107.275390625 563 70.4228515625 354 c 0
 33.7470703125 146 112.82421875 16 272.82421875 16 c 0xbf
 416.82421875 16 520.809570312 118 565.25390625 302 c 1
 331.25390625 302 l 1
 336.19140625 330 l 1
 602.19140625 330 l 1
 544.002929688 0 l 1x7f
 516.002929688 0 l 1x7e80
 543.860351562 175 l 1
 499.169921875 69 405.181640625 -16 267.181640625 -16 c 0
EndSplineSet
Validated: 524321
Substitution2: "'ss08' Style Set 8 in Latin lookup 41 subtable" Gdotaccent.ss08
Substitution2: "'ss06' Style Set 6 in Latin lookup 39 subtable" Gdotaccent.ss06
AlternateSubs2: "'aalt' Access All Alternates in Latin lookup 1 subtable" Gdotaccent.ss06 Gdotaccent.ss08
EndChar

StartChar: uni1E20
Encoding: 7712 7712 42
Width: 675
GlyphClass: 2
Flags: HMW
HStem: -16 32<266 415> 0 21G<592 620 592 592> 302 28<354 588 354 620> 694 32<266 414> 824 28<228 476 228 476>
VStem: 50 34<250 458.5 250 468.5> 588 32<302 302> 590.5 29.5
AnchorPoint: "Anchor-3" 403.487 710 basechar 0
AnchorPoint: "Anchor-0" 280.295 0 basechar 0
LayerCount: 2
Fore
SplineSet
299.588867188 824 m 1xbd
 304.526367188 852 l 1
 552.526367188 852 l 1
 547.588867188 824 l 1
 299.588867188 824 l 1xbd
269.473632812 -16 m 0
 88.4736328125 -16 -1.3115234375 127 38.71484375 354 c 0
 79.09375 583 213.30859375 726 406.30859375 726 c 0
 544.30859375 726 627.321289062 641 629.108398438 481 c 1
 595.403320312 477 l 1
 592.793945312 621 524.666015625 694 400.666015625 694 c 0
 228.666015625 694 109.567382812 563 72.71484375 354 c 0
 36.0390625 146 115.116210938 16 275.116210938 16 c 0xbe
 419.116210938 16 523.1015625 118 567.545898438 302 c 1
 333.545898438 302 l 1
 338.483398438 330 l 1
 604.483398438 330 l 1
 546.294921875 0 l 1x7e
 518.294921875 0 l 1x7d
 546.15234375 175 l 1
 501.461914062 69 407.473632812 -16 269.473632812 -16 c 0
EndSplineSet
Validated: 524321
Substitution2: "'ss06' Style Set 6 in Latin lookup 39 subtable" uni1E20.ss06
Substitution2: "'aalt' Access All Alternates in Latin lookup 0 subtable" uni1E20.ss06
EndChar

StartChar: uni01E4
Encoding: 484 484 43
Width: 714
GlyphClass: 2
Flags: HMW
HStem: -16 32<262 399 262 408.5> 170 26<355 566 355 575 355 600 607 669> 302 28<354 588 354 620> 694 32<271 415>
VStem: 50 34<250 464.5 250 473> 588 32<286 302>
AnchorPoint: "Anchor-3" 415.596 710 basechar 0
AnchorPoint: "Anchor-0" 287.404 0 basechar 0
LayerCount: 2
Fore
SplineSet
278.583007812 -16 m 0
 97.5830078125 -16 9.091796875 123 49.8232421875 354 c 0
 91.7890625 592 232.416992188 726 419.416992188 726 c 0
 556.416992188 726 638.077148438 639 640.216796875 481 c 1
 606.51171875 477 l 1
 605.374023438 618 535.774414062 694 413.774414062 694 c 0
 247.774414062 694 122.791992188 575 83.8232421875 354 c 0
 47.1474609375 146 120.225585938 16 284.225585938 16 c 0
 394.225585938 16 481.62890625 75 533.379882812 170 c 1
 322.379882812 170 l 1
 326.963867188 196 l 1
 546.963867188 196 l 1
 560.606445312 228 571.954101562 264 578.654296875 302 c 1
 344.654296875 302 l 1
 349.591796875 330 l 1
 615.591796875 330 l 1
 611.360351562 306 l 2
 604.306640625 266 593.958984375 230 578.963867188 196 c 1
 640.963867188 196 l 1
 636.379882812 170 l 1
 567.379882812 170 l 1
 509.1015625 55 407.583007812 -16 278.583007812 -16 c 0
EndSplineSet
Validated: 524321
EndChar

StartChar: H
Encoding: 72 72 44
Width: 676
GlyphClass: 2
Flags: HMW
HStem: 0 21G<96 96 96 128 548 548 548 580> 349 30<128 548 128 548> 690 20G<96 128 128 128 548 580 580 580>
VStem: 96 32<0 349 379 710> 548 32<0 349 349 349 379 710 0 710>
AnchorPoint: "Anchor-3" 400.596 710 basechar 0
AnchorPoint: "Anchor-1" 374.147 560 basechar 0
AnchorPoint: "Anchor-0" 275.404 0 basechar 0
LayerCount: 2
Fore
SplineSet
33.404296875 0 m 1
 158.595703125 710 l 1
 190.595703125 710 l 1
 132.231445312 379 l 1
 552.231445312 379 l 1
 610.595703125 710 l 1
 642.595703125 710 l 1
 517.404296875 0 l 1
 485.404296875 0 l 1
 546.942382812 349 l 1
 126.942382812 349 l 1
 65.404296875 0 l 1
 33.404296875 0 l 1
EndSplineSet
Validated: 524289
EndChar

StartChar: Hbar
Encoding: 294 294 45
Width: 676
GlyphClass: 2
Flags: HMW
HStem: 0 21G<96 96 96 128 548 548 548 580> 349 30<128 548 128 548> 546 28<18 96 18 96 128 548 580 658> 546 164<18 128 18 128 96 128 96 548>
VStem: 96 32<0 349 379 546 574 710> 548 32<0 349 349 349 379 546 0 546 574 710>
AnchorPoint: "Anchor-3" 400.596 710 basechar 0
AnchorPoint: "Anchor-1" 374.147 560 basechar 0
AnchorPoint: "Anchor-0" 275.404 0 basechar 0
LayerCount: 2
Fore
SplineSet
33.404296875 0 m 1xec
 129.678710938 546 l 1
 51.6787109375 546 l 1
 56.615234375 574 l 1
 134.615234375 574 l 1xec
 158.595703125 710 l 1
 190.595703125 710 l 1xdc
 166.615234375 574 l 1
 586.615234375 574 l 1xec
 610.595703125 710 l 1
 642.595703125 710 l 1xdc
 618.615234375 574 l 1
 696.615234375 574 l 1
 691.678710938 546 l 1
 613.678710938 546 l 1
 517.404296875 0 l 1
 485.404296875 0 l 1
 546.942382812 349 l 1
 126.942382812 349 l 1
 65.404296875 0 l 1
 33.404296875 0 l 1xec
132.231445312 379 m 1
 552.231445312 379 l 1
 581.678710938 546 l 1
 161.678710938 546 l 1
 132.231445312 379 l 1
EndSplineSet
Validated: 524289
EndChar

StartChar: Hcircumflex
Encoding: 292 292 46
Width: 676
GlyphClass: 2
Flags: HMW
HStem: 0 21G<96 96 96 128 548 548 548 580> 349 30<128 548 128 548> 690 20G<96 128 128 128 548 580 580 580> 889 25<339 339>
VStem: 96 32<0 349 379 710> 548 32<0 349 349 349 379 710 0 710>
AnchorPoint: "Anchor-3" 382.61 710 basechar 0
AnchorPoint: "Anchor-1" 356.162 560 basechar 0
AnchorPoint: "Anchor-0" 257.419 0 basechar 0
LayerCount: 2
Fore
SplineSet
298.716796875 790 m 1
 408.581054688 914 l 1
 430.581054688 914 l 1
 496.716796875 790 l 1
 468.716796875 790 l 1
 415.172851562 889 l 1
 326.716796875 790 l 1
 298.716796875 790 l 1
15.4189453125 0 m 1
 140.610351562 710 l 1
 172.610351562 710 l 1
 114.24609375 379 l 1
 534.24609375 379 l 1
 592.610351562 710 l 1
 624.610351562 710 l 1
 499.418945312 0 l 1
 467.418945312 0 l 1
 528.95703125 349 l 1
 108.95703125 349 l 1
 47.4189453125 0 l 1
 15.4189453125 0 l 1
EndSplineSet
Validated: 524289
EndChar

StartChar: I
Encoding: 73 73 47
Width: 224
GlyphClass: 2
Flags: HMW
HStem: 0 21G<96 96 96 128> 690 20G<96 128 128 128>
VStem: 96 32<0 710 0 710>
AnchorPoint: "Anchor-3" 174.596 710 basechar 0
AnchorPoint: "Anchor-2" 65.4043 0 basechar 0
AnchorPoint: "Anchor-0" 49.4043 0 basechar 0
LayerCount: 2
Fore
SplineSet
33.404296875 0 m 1
 158.595703125 710 l 1
 190.595703125 710 l 1
 65.404296875 0 l 1
 33.404296875 0 l 1
EndSplineSet
Validated: 524289
Substitution2: "'ss05' Style Set 5 in Latin lookup 38 subtable" I.ss05
Substitution2: "'aalt' Access All Alternates in Latin lookup 0 subtable" I.ss05
EndChar

StartChar: IJ
Encoding: 306 306 48
Width: 764
GlyphClass: 2
Flags: HMW
HStem: -16 32<421.5 527.5 421.5 536.5> 0 21G<96 96 96 128> 690 20G<96 128 128 128 651 683 683 683>
VStem: 96 32<0 710 0 710> 265 34<233 236> 651 32<248 710>
AnchorPoint: "Anchor-3" 731.007 710 basechar 0
AnchorPoint: "Anchor-2" 66.8145 0 basechar 0
AnchorPoint: "Anchor-0" 50.8145 0 basechar 0
LayerCount: 2
Fore
SplineSet
34.814453125 0 m 1x7c
 160.006835938 710 l 1
 192.006835938 710 l 1
 66.814453125 0 l 1
 34.814453125 0 l 1x7c
408.993164062 -16 m 0
 286.993164062 -16 219.215820312 76 244.8984375 233 c 1
 279.427734375 236 l 1
 256.036132812 92 311.635742188 16 414.635742188 16 c 0
 523.635742188 16 606.212890625 93 633.543945312 248 c 2
 715.006835938 710 l 1
 747.006835938 710 l 1
 665.543945312 248 l 2xbc
 635.215820312 76 535.993164062 -16 408.993164062 -16 c 0
EndSplineSet
Validated: 524321
EndChar

StartChar: Iacute
Encoding: 205 205 49
Width: 224
GlyphClass: 2
Flags: HMW
HStem: 0 21G<96 96 96 128> 690 20G<96 128 128 128> 790 116<98 204 98 204>
VStem: 96 32<0 710 0 710>
AnchorPoint: "Anchor-3" 157.316 710 basechar 0
AnchorPoint: "Anchor-2" 48.124 0 basechar 0
AnchorPoint: "Anchor-0" 32.124 0 basechar 0
LayerCount: 2
Fore
SplineSet
157.421875 790 m 1
 249.875976562 906 l 1
 283.875976562 906 l 1
 183.421875 790 l 1
 157.421875 790 l 1
16.1240234375 0 m 1
 141.31640625 710 l 1
 173.31640625 710 l 1
 48.1240234375 0 l 1
 16.1240234375 0 l 1
EndSplineSet
Validated: 524289
Substitution2: "'ss05' Style Set 5 in Latin lookup 38 subtable" Iacute.ss05
Substitution2: "'aalt' Access All Alternates in Latin lookup 0 subtable" Iacute.ss05
EndChar

StartChar: Icircumflex
Encoding: 206 206 50
Width: 224
GlyphClass: 2
Flags: HMW
HStem: 0 21G<96 96 96 128> 690 20G<96 128 128 128> 889 25<113 113>
VStem: 96 32<0 710 0 710>
AnchorPoint: "Anchor-3" 156.61 710 basechar 0
AnchorPoint: "Anchor-2" 47.4189 0 basechar 0
AnchorPoint: "Anchor-0" 31.4189 0 basechar 0
LayerCount: 2
Fore
SplineSet
72.716796875 790 m 1
 182.581054688 914 l 1
 204.581054688 914 l 1
 270.716796875 790 l 1
 242.716796875 790 l 1
 189.172851562 889 l 1
 100.716796875 790 l 1
 72.716796875 790 l 1
15.4189453125 0 m 1
 140.610351562 710 l 1
 172.610351562 710 l 1
 47.4189453125 0 l 1
 15.4189453125 0 l 1
EndSplineSet
Validated: 524289
Substitution2: "'ss05' Style Set 5 in Latin lookup 38 subtable" Icircumflex.ss05
Substitution2: "'aalt' Access All Alternates in Latin lookup 0 subtable" Icircumflex.ss05
EndChar

StartChar: Idieresis
Encoding: 207 207 51
Width: 224
GlyphClass: 2
Flags: HMW
HStem: 0 21G<96 96 96 128> 690 20G<96 128 128 128> 808 70<31 65 31 65 159 193>
VStem: 31 34<808 878 808 878> 96 32<0 710 0 710> 159 34<808 878 808 878>
AnchorPoint: "Anchor-3" 159.784 710 basechar 0
AnchorPoint: "Anchor-2" 50.5928 0 basechar 0
AnchorPoint: "Anchor-0" 34.5928 0 basechar 0
LayerCount: 2
Fore
SplineSet
96.064453125 808 m 1
 108.407226562 878 l 1
 142.407226562 878 l 1
 130.064453125 808 l 1
 96.064453125 808 l 1
224.064453125 808 m 1
 236.407226562 878 l 1
 270.407226562 878 l 1
 258.064453125 808 l 1
 224.064453125 808 l 1
18.5927734375 0 m 1
 143.784179688 710 l 1
 175.784179688 710 l 1
 50.5927734375 0 l 1
 18.5927734375 0 l 1
EndSplineSet
Validated: 524289
Substitution2: "'ss08' Style Set 8 in Latin lookup 41 subtable" Idieresis.ss08
Substitution2: "'ss05' Style Set 5 in Latin lookup 38 subtable" Idieresis.ss05
AlternateSubs2: "'aalt' Access All Alternates in Latin lookup 1 subtable" Idieresis.ss05 Idieresis.ss08
EndChar

StartChar: Idotaccent
Encoding: 304 304 52
Width: 224
GlyphClass: 2
Flags: HMW
HStem: 0 21G<96 96 96 128> 690 20G<96 128 128 128> 808 70<95 129 95 129>
VStem: 95 34<808 878 808 878> 96 32<0 710 0 710>
AnchorPoint: "Anchor-3" 159.784 710 basechar 0
AnchorPoint: "Anchor-2" 50.5928 0 basechar 0
AnchorPoint: "Anchor-0" 34.5928 0 basechar 0
LayerCount: 2
Fore
SplineSet
160.064453125 808 m 1xf0
 172.407226562 878 l 1
 206.407226562 878 l 1
 194.064453125 808 l 1
 160.064453125 808 l 1xf0
18.5927734375 0 m 1xe8
 143.784179688 710 l 1
 175.784179688 710 l 1
 50.5927734375 0 l 1
 18.5927734375 0 l 1xe8
EndSplineSet
Validated: 524289
Substitution2: "'ss08' Style Set 8 in Latin lookup 41 subtable" Idotaccent.ss08
Substitution2: "'ss05' Style Set 5 in Latin lookup 38 subtable" Idotaccent.ss05
AlternateSubs2: "'aalt' Access All Alternates in Latin lookup 1 subtable" Idotaccent.ss05 Idotaccent.ss08
EndChar

StartChar: Igrave
Encoding: 204 204 53
Width: 224
GlyphClass: 2
Flags: HMW
HStem: 0 21G<96 96 96 128> 690 20G<96 128 128 128> 798 116<19 99 19 125>
VStem: 96 32<0 710 0 710>
AnchorPoint: "Anchor-3" 156.61 710 basechar 0
AnchorPoint: "Anchor-2" 47.4189 0 basechar 0
AnchorPoint: "Anchor-0" 31.4189 0 basechar 0
LayerCount: 2
Fore
SplineSet
159.127929688 798 m 1
 99.5810546875 914 l 1
 133.581054688 914 l 1
 185.127929688 798 l 1
 159.127929688 798 l 1
15.4189453125 0 m 1
 140.610351562 710 l 1
 172.610351562 710 l 1
 47.4189453125 0 l 1
 15.4189453125 0 l 1
EndSplineSet
Validated: 524289
Substitution2: "'ss05' Style Set 5 in Latin lookup 38 subtable" Igrave.ss05
Substitution2: "'aalt' Access All Alternates in Latin lookup 0 subtable" Igrave.ss05
EndChar

StartChar: Imacron
Encoding: 298 298 54
Width: 224
GlyphClass: 2
Flags: HMW
HStem: 0 21G<96 96 96 128> 690 20G<96 128 128 128> 824 28<-12 236 -12 236>
VStem: 96 32<0 710 0 710>
AnchorPoint: "Anchor-3" 162.077 710 basechar 0
AnchorPoint: "Anchor-2" 52.8848 0 basechar 0
AnchorPoint: "Anchor-0" 36.8848 0 basechar 0
LayerCount: 2
Fore
SplineSet
58.177734375 824 m 1
 63.115234375 852 l 1
 311.115234375 852 l 1
 306.177734375 824 l 1
 58.177734375 824 l 1
20.884765625 0 m 1
 146.077148438 710 l 1
 178.077148438 710 l 1
 52.884765625 0 l 1
 20.884765625 0 l 1
EndSplineSet
Validated: 524289
Substitution2: "'ss05' Style Set 5 in Latin lookup 38 subtable" Imacron.ss05
Substitution2: "'aalt' Access All Alternates in Latin lookup 0 subtable" Imacron.ss05
EndChar

StartChar: Iogonek
Encoding: 302 302 55
Width: 224
GlyphClass: 2
Flags: HMW
HStem: -192 26<97 118 97 121> 0 21G<96 96 96 103 128 128> 690 20G<96 128 128 128>
VStem: 38 30<-144.5 -116> 96 32<0 710 0 710>
AnchorPoint: "Anchor-3" 191.523 710 basechar 0
AnchorPoint: "Anchor-2" 82.3311 0 basechar 0
AnchorPoint: "Anchor-0" 66.3311 0 basechar 0
LayerCount: 2
Fore
SplineSet
50.3310546875 0 m 1
 175.5234375 710 l 1
 207.5234375 710 l 1
 82.3310546875 0 l 1xe8
 49.2783203125 -40 l 2
 23.98828125 -70 5.05078125 -98 -0.5908203125 -130 c 0
 -5.705078125 -159 11.060546875 -166 33.060546875 -166 c 0
 53.060546875 -166 71.119140625 -160 84.7060546875 -151 c 1
 94.8271484375 -173 l 1
 74.7109375 -185 54.4765625 -192 28.4765625 -192 c 0
 -9.5234375 -192 -38.7021484375 -176 -30.9443359375 -132 c 0xf0
 -25.3017578125 -100 2.8701171875 -65 35.7470703125 -26 c 2
 57.3310546875 0 l 1
 50.3310546875 0 l 1
EndSplineSet
Validated: 524321
Substitution2: "'ss05' Style Set 5 in Latin lookup 38 subtable" Iogonek.ss05
Substitution2: "'aalt' Access All Alternates in Latin lookup 0 subtable" Iogonek.ss05
EndChar

StartChar: Itilde
Encoding: 296 296 56
Width: 224
GlyphClass: 2
Flags: HMW
HStem: 0 21G<96 96 96 128> 690 20G<96 128 128 128> 810 24<159 180 159 188> 870 24<34 61>
VStem: -27 26<805 805> 96 32<0 710 0 710> 211 26<903 903>
AnchorPoint: "Anchor-3" 157.58 710 basechar 0
AnchorPoint: "Anchor-2" 48.3887 0 basechar 0
AnchorPoint: "Anchor-0" 32.3887 0 basechar 0
LayerCount: 2
Fore
SplineSet
230.212890625 810 m 0
 202.212890625 810 187.15234375 821 171.85546875 842 c 0
 159.029296875 860 146.79296875 870 122.79296875 870 c 0
 92.79296875 870 71.08984375 849 61.33203125 805 c 1
 35.33203125 805 l 1
 49.2060546875 861 85.0244140625 894 127.024414062 894 c 0
 159.024414062 894 176.379882812 879 192.676757812 858 c 0
 207.502929688 840 218.4453125 834 234.4453125 834 c 0
 260.4453125 834 277.794921875 853 290.611328125 903 c 1
 316.611328125 903 l 1
 302.384765625 845 272.212890625 810 230.212890625 810 c 0
16.388671875 0 m 1
 141.580078125 710 l 1
 173.580078125 710 l 1
 48.388671875 0 l 1
 16.388671875 0 l 1
EndSplineSet
Validated: 524289
Substitution2: "'ss05' Style Set 5 in Latin lookup 38 subtable" Itilde.ss05
Substitution2: "'aalt' Access All Alternates in Latin lookup 0 subtable" Itilde.ss05
EndChar

StartChar: J
Encoding: 74 74 57
Width: 570
GlyphClass: 2
Flags: HMW
HStem: -16 32<227.5 333.5 227.5 342.5> 690 20G<457 489 489 489>
VStem: 71 34<233 236> 457 32<248 710>
AnchorPoint: "Anchor-3" 537.007 710 basechar 0
LayerCount: 2
Fore
SplineSet
214.993164062 -16 m 0
 92.9931640625 -16 25.2158203125 76 50.8984375 233 c 1
 85.427734375 236 l 1
 62.0361328125 92 117.635742188 16 220.635742188 16 c 0
 329.635742188 16 412.212890625 93 439.543945312 248 c 2
 521.006835938 710 l 1
 553.006835938 710 l 1
 471.543945312 248 l 2
 441.215820312 76 341.993164062 -16 214.993164062 -16 c 0
EndSplineSet
Validated: 524321
Substitution2: "Single Substitution lookup 16 subtable" uni004A0301
Substitution2: "'aalt' Access All Alternates in Latin lookup 0 subtable" uni004A0301
EndChar

StartChar: uni004A0301
Encoding: 65537 -1 58
Width: 570
GlyphClass: 2
Flags: HMW
HStem: -16 32<227.5 333.5 227.5 342.5> 690 20G<457 489 489 489> 790 116<459 565 459 565>
VStem: 71 34<233 236> 457 32<248 710>
AnchorPoint: "Anchor-3" 519.727 710 basechar 0
LayerCount: 2
Fore
SplineSet
519.833007812 790 m 1
 612.287109375 906 l 1
 646.287109375 906 l 1
 545.833007812 790 l 1
 519.833007812 790 l 1
197.712890625 -16 m 0
 75.712890625 -16 7.935546875 76 33.619140625 233 c 1
 68.1474609375 236 l 1
 44.7568359375 92 100.35546875 16 203.35546875 16 c 0
 312.35546875 16 394.932617188 93 422.263671875 248 c 2
 503.7265625 710 l 1
 535.7265625 710 l 1
 454.263671875 248 l 2
 423.935546875 76 324.712890625 -16 197.712890625 -16 c 0
EndSplineSet
Validated: 524321
EndChar

StartChar: Jcircumflex
Encoding: 308 308 59
Width: 570
GlyphClass: 2
Flags: HMW
HStem: -16 32<227.5 333.5 227.5 342.5> 690 20G<457 489 489 489> 889 25<474 474>
VStem: 71 34<233 236> 457 32<248 710>
AnchorPoint: "Anchor-3" 519.021 710 basechar 0
LayerCount: 2
Fore
SplineSet
435.127929688 790 m 1
 544.9921875 914 l 1
 566.9921875 914 l 1
 633.127929688 790 l 1
 605.127929688 790 l 1
 551.583984375 889 l 1
 463.127929688 790 l 1
 435.127929688 790 l 1
197.0078125 -16 m 0
 75.0078125 -16 7.23046875 76 32.9130859375 233 c 1
 67.4423828125 236 l 1
 44.05078125 92 99.650390625 16 202.650390625 16 c 0
 311.650390625 16 394.227539062 93 421.55859375 248 c 2
 503.021484375 710 l 1
 535.021484375 710 l 1
 453.55859375 248 l 2
 423.23046875 76 324.0078125 -16 197.0078125 -16 c 0
EndSplineSet
Validated: 524321
EndChar

StartChar: K
Encoding: 75 75 60
Width: 615
GlyphClass: 2
Flags: HMW
HStem: 0 21G<96 96 96 128 558 558 558 595> 690 20G<96 128 128 128 534 573 573 573>
VStem: 96 32<0 233 275 710>
AnchorPoint: "Anchor-3" 379.596 710 basechar 0
AnchorPoint: "Anchor-0" 264.404 0 basechar 0
LayerCount: 2
Fore
SplineSet
33.404296875 0 m 1
 158.595703125 710 l 1
 190.595703125 710 l 1
 113.893554688 275 l 1
 596.595703125 710 l 1
 635.595703125 710 l 1
 292.111328125 401 l 1
 532.404296875 0 l 1
 495.404296875 0 l 1
 269.408203125 380 l 1
 106.48828125 233 l 1
 65.404296875 0 l 1
 33.404296875 0 l 1
EndSplineSet
Validated: 524289
EndChar

StartChar: uni01E8
Encoding: 488 488 61
Width: 615
GlyphClass: 2
Flags: HMW
HStem: 0 21G<96 96 96 128 558 558 558 595> 690 20G<96 128 128 128 534 573 573 573> 790 25<317 317 317 328 306 317>
VStem: 96 32<0 233 275 710>
AnchorPoint: "Anchor-3" 361.61 710 basechar 0
AnchorPoint: "Anchor-0" 246.419 0 basechar 0
LayerCount: 2
Fore
SplineSet
298.581054688 914 m 1
 326.581054688 914 l 1
 380.125 815 l 1
 468.581054688 914 l 1
 496.581054688 914 l 1
 386.716796875 790 l 1
 364.716796875 790 l 1
 298.581054688 914 l 1
15.4189453125 0 m 1
 140.610351562 710 l 1
 172.610351562 710 l 1
 95.908203125 275 l 1
 578.610351562 710 l 1
 617.610351562 710 l 1
 274.125976562 401 l 1
 514.418945312 0 l 1
 477.418945312 0 l 1
 251.422851562 380 l 1
 88.5029296875 233 l 1
 47.4189453125 0 l 1
 15.4189453125 0 l 1
EndSplineSet
Validated: 524289
EndChar

StartChar: uni0136
Encoding: 310 310 62
Width: 615
GlyphClass: 2
Flags: HMW
HStem: -94 48<302 326 302 352> 0 21G<96 96 96 128 558 558 558 595> 690 20G<96 128 128 128 534 573 573 573>
VStem: 96 32<0 233 275 710> 302 50<-89 -46 -89 -46 -89 -46>
AnchorPoint: "Anchor-3" 394.496 710 basechar 0
AnchorPoint: "Anchor-0" 249.504 -169 basechar 0
LayerCount: 2
Fore
SplineSet
48.3037109375 0 m 1
 173.49609375 710 l 1
 205.49609375 710 l 1
 128.793945312 275 l 1
 611.49609375 710 l 1
 650.49609375 710 l 1
 307.010742188 401 l 1
 547.303710938 0 l 1
 510.303710938 0 l 1
 284.307617188 380 l 1
 121.387695312 233 l 1
 80.3037109375 0 l 1
 48.3037109375 0 l 1
212.50390625 -169 m 1
 261.728515625 -94 l 1
 237.728515625 -94 l 1
 246.192382812 -46 l 1
 296.192382812 -46 l 1
 288.610351562 -89 l 1
 234.50390625 -169 l 1
 212.50390625 -169 l 1
EndSplineSet
Validated: 524289
EndChar

StartChar: L
Encoding: 76 76 63
Width: 550
GlyphClass: 2
Flags: HMW
HStem: 0 30<128 510 128 510> 690 20G<96 128 128 128>
VStem: 96 32<30 710 30 710 30 710>
AnchorPoint: "Anchor-4" 370.857 530 basechar 0
AnchorPoint: "Anchor-3" 174.596 710 basechar 0
AnchorPoint: "Anchor-1" 144.408 380 basechar 0
AnchorPoint: "Anchor-0" 240.404 0 basechar 0
LayerCount: 2
Fore
SplineSet
33.404296875 0 m 1
 158.595703125 710 l 1
 190.595703125 710 l 1
 70.693359375 30 l 1
 452.693359375 30 l 1
 447.404296875 0 l 1
 33.404296875 0 l 1
EndSplineSet
Validated: 524289
EndChar

StartChar: Lacute
Encoding: 313 313 64
Width: 550
GlyphClass: 2
Flags: HMW
HStem: 0 30<128 510 128 510> 690 20G<96 128 128 128> 790 116<98 204 98 204>
VStem: 96 32<30 710 30 710 30 710>
AnchorPoint: "Anchor-4" 353.577 530 basechar 0
AnchorPoint: "Anchor-3" 157.316 710 basechar 0
AnchorPoint: "Anchor-1" 127.128 380 basechar 0
AnchorPoint: "Anchor-0" 223.124 0 basechar 0
LayerCount: 2
Fore
SplineSet
157.421875 790 m 1
 249.875976562 906 l 1
 283.875976562 906 l 1
 183.421875 790 l 1
 157.421875 790 l 1
16.1240234375 0 m 1
 141.31640625 710 l 1
 173.31640625 710 l 1
 53.4140625 30 l 1
 435.4140625 30 l 1
 430.124023438 0 l 1
 16.1240234375 0 l 1
EndSplineSet
Validated: 524289
EndChar

StartChar: Lcaron
Encoding: 317 317 65
Width: 550
GlyphClass: 2
Flags: HMW
HStem: 0 30<128 510 128 510> 690 20G<96 128 128 128 394 426 426 426>
VStem: 96 32<30 710 30 710 30 710>
AnchorPoint: "Anchor-4" 370.857 530 basechar 0
AnchorPoint: "Anchor-3" 174.596 710 basechar 0
AnchorPoint: "Anchor-1" 144.408 380 basechar 0
AnchorPoint: "Anchor-0" 240.404 0 basechar 0
LayerCount: 2
Fore
SplineSet
33.404296875 0 m 1
 158.595703125 710 l 1
 190.595703125 710 l 1
 70.693359375 30 l 1
 452.693359375 30 l 1
 447.404296875 0 l 1
 33.404296875 0 l 1
385.919921875 502 m 1
 456.595703125 710 l 1
 488.595703125 710 l 1
 411.919921875 502 l 1
 385.919921875 502 l 1
EndSplineSet
Validated: 524289
EndChar

StartChar: uni013B
Encoding: 315 315 66
Width: 550
GlyphClass: 2
Flags: HMW
HStem: -94 48<278 302 278 328> 0 30<128 510 128 510> 690 20G<96 128 128 128>
VStem: 96 32<30 710 30 710 30 710> 278 50<-89 -46 -89 -46 -89 -46>
AnchorPoint: "Anchor-4" 385.757 530 basechar 0
AnchorPoint: "Anchor-3" 189.496 710 basechar 0
AnchorPoint: "Anchor-1" 159.308 380 basechar 0
AnchorPoint: "Anchor-0" 225.504 -169 basechar 0
LayerCount: 2
Fore
SplineSet
48.3037109375 0 m 1
 173.49609375 710 l 1
 205.49609375 710 l 1
 85.59375 30 l 1
 467.59375 30 l 1
 462.303710938 0 l 1
 48.3037109375 0 l 1
188.50390625 -169 m 1
 237.728515625 -94 l 1
 213.728515625 -94 l 1
 222.192382812 -46 l 1
 272.192382812 -46 l 1
 264.610351562 -89 l 1
 210.50390625 -169 l 1
 188.50390625 -169 l 1
EndSplineSet
Validated: 524289
Substitution2: "'locl' Localized Forms in Latin lookup 11 subtable" uni013B.loclMAH
Substitution2: "'aalt' Access All Alternates in Latin lookup 0 subtable" uni013B.loclMAH
EndChar

StartChar: Lslash
Encoding: 321 321 67
Width: 550
GlyphClass: 2
Flags: HMW
HStem: 0 30<128 510 128 510> 690 20G<96 128 128 128>
VStem: 96 32<30 347 347 347 387 710> 96 157<0 445 347 445 419 445 419 710>
AnchorPoint: "Anchor-4" 370.857 530 basechar 0
AnchorPoint: "Anchor-3" 174.596 710 basechar 0
AnchorPoint: "Anchor-1" 144.408 380 basechar 0
AnchorPoint: "Anchor-0" 240.404 0 basechar 0
LayerCount: 2
Fore
SplineSet
33.404296875 0 m 1xe0
 94.58984375 347 l 1
 19.947265625 315 l 1
 24.53125 341 l 1
 99.173828125 373 l 1
 158.595703125 710 l 1
 190.595703125 710 l 1
 133.642578125 387 l 1xe0
 268.869140625 445 l 1
 264.28515625 419 l 1xd0
 129.057617188 361 l 1
 70.693359375 30 l 1
 452.693359375 30 l 1
 447.404296875 0 l 1
 33.404296875 0 l 1xe0
EndSplineSet
Validated: 524289
EndChar

StartChar: M
Encoding: 77 77 68
Width: 850
GlyphClass: 2
Flags: HMW
HStem: 0 34<407 425 425 425 425 443> 680 30<128 128 722 722>
VStem: 96 32<0 680 0 710 0 710> 722 32<0 680 680 680>
AnchorPoint: "Anchor-3" 487.596 710 basechar 0
AnchorPoint: "Anchor-0" 362.404 0 basechar 0
LayerCount: 2
Fore
SplineSet
33.404296875 0 m 1
 158.595703125 710 l 1
 212.595703125 710 l 1
 368.399414062 34 l 1
 762.595703125 710 l 1
 816.595703125 710 l 1
 691.404296875 0 l 1
 659.404296875 0 l 1
 779.306640625 680 l 1
 380.404296875 0 l 1
 344.404296875 0 l 1
 185.306640625 680 l 1
 65.404296875 0 l 1
 33.404296875 0 l 1
EndSplineSet
Validated: 524289
EndChar

StartChar: N
Encoding: 78 78 69
Width: 711
GlyphClass: 2
Flags: HMW
HStem: 0 30<568 583 583 583 583 615> 680 30<128 128>
VStem: 96 32<0 680 0 710 0 710> 583 32<30 710 0 710>
AnchorPoint: "Anchor-3" 418.596 710 basechar 0
AnchorPoint: "Anchor-0" 293.404 0 basechar 0
LayerCount: 2
Fore
SplineSet
33.404296875 0 m 1
 158.595703125 710 l 1
 205.595703125 710 l 1
 525.693359375 30 l 1
 645.595703125 710 l 1
 677.595703125 710 l 1
 552.404296875 0 l 1
 505.404296875 0 l 1
 185.306640625 680 l 1
 65.404296875 0 l 1
 33.404296875 0 l 1
EndSplineSet
Validated: 524289
EndChar

StartChar: Nacute
Encoding: 323 323 70
Width: 711
GlyphClass: 2
Flags: HMW
HStem: 0 30<568 583 583 583 583 615> 680 30<128 128> 790 116<342 448 342 448>
VStem: 96 32<0 680 0 710 0 710> 583 32<30 710 0 710>
AnchorPoint: "Anchor-3" 401.316 710 basechar 0
AnchorPoint: "Anchor-0" 276.124 0 basechar 0
LayerCount: 2
Fore
SplineSet
401.421875 790 m 1
 493.875976562 906 l 1
 527.875976562 906 l 1
 427.421875 790 l 1
 401.421875 790 l 1
16.1240234375 0 m 1
 141.31640625 710 l 1
 188.31640625 710 l 1
 508.4140625 30 l 1
 628.31640625 710 l 1
 660.31640625 710 l 1
 535.124023438 0 l 1
 488.124023438 0 l 1
 168.026367188 680 l 1
 48.1240234375 0 l 1
 16.1240234375 0 l 1
EndSplineSet
Validated: 524289
EndChar

StartChar: Ncaron
Encoding: 327 327 71
Width: 711
GlyphClass: 2
Flags: HMW
HStem: 0 30<568 583 583 583 583 615> 680 30<128 128> 790 25<356 356 356 367 345 356>
VStem: 96 32<0 680 0 710 0 710> 583 32<30 710 0 710>
AnchorPoint: "Anchor-3" 400.61 710 basechar 0
AnchorPoint: "Anchor-0" 275.419 0 basechar 0
LayerCount: 2
Fore
SplineSet
337.581054688 914 m 1
 365.581054688 914 l 1
 419.125 815 l 1
 507.581054688 914 l 1
 535.581054688 914 l 1
 425.716796875 790 l 1
 403.716796875 790 l 1
 337.581054688 914 l 1
15.4189453125 0 m 1
 140.610351562 710 l 1
 187.610351562 710 l 1
 507.708007812 30 l 1
 627.610351562 710 l 1
 659.610351562 710 l 1
 534.418945312 0 l 1
 487.418945312 0 l 1
 167.321289062 680 l 1
 47.4189453125 0 l 1
 15.4189453125 0 l 1
EndSplineSet
Validated: 524289
EndChar

StartChar: uni0145
Encoding: 325 325 72
Width: 711
GlyphClass: 2
Flags: HMW
HStem: -94 48<331 355 331 381> 0 30<568 583 583 583 583 615> 680 30<128 128>
VStem: 96 32<0 680 0 710 0 710> 331 50<-89 -46 -89 -46 -89 -46> 583 32<30 710 0 710>
AnchorPoint: "Anchor-3" 433.496 710 basechar 0
AnchorPoint: "Anchor-0" 278.504 -169 basechar 0
LayerCount: 2
Fore
SplineSet
48.3037109375 0 m 1
 173.49609375 710 l 1
 220.49609375 710 l 1
 540.59375 30 l 1
 660.49609375 710 l 1
 692.49609375 710 l 1
 567.303710938 0 l 1
 520.303710938 0 l 1
 200.206054688 680 l 1
 80.3037109375 0 l 1
 48.3037109375 0 l 1
241.50390625 -169 m 1
 290.728515625 -94 l 1
 266.728515625 -94 l 1
 275.192382812 -46 l 1
 325.192382812 -46 l 1
 317.610351562 -89 l 1
 263.50390625 -169 l 1
 241.50390625 -169 l 1
EndSplineSet
Validated: 524289
Substitution2: "'locl' Localized Forms in Latin lookup 11 subtable" uni0145.loclMAH
Substitution2: "'aalt' Access All Alternates in Latin lookup 0 subtable" uni0145.loclMAH
EndChar

StartChar: Ntilde
Encoding: 209 209 73
Width: 711
GlyphClass: 2
Flags: HMW
HStem: 0 30<568 583 583 583 583 615> 680 30<128 128> 810 24<403 424 403 432> 870 24<278 305>
VStem: 96 32<0 680 0 710 0 710> 217 26<805 805> 455 26<903 903> 583 32<30 710 0 710>
AnchorPoint: "Anchor-3" 401.58 710 basechar 0
AnchorPoint: "Anchor-0" 276.389 0 basechar 0
LayerCount: 2
Fore
SplineSet
474.212890625 810 m 0
 446.212890625 810 431.15234375 821 415.85546875 842 c 0
 403.029296875 860 390.79296875 870 366.79296875 870 c 0
 336.79296875 870 315.08984375 849 305.33203125 805 c 1
 279.33203125 805 l 1
 293.206054688 861 329.024414062 894 371.024414062 894 c 0
 403.024414062 894 420.379882812 879 436.676757812 858 c 0
 451.502929688 840 462.4453125 834 478.4453125 834 c 0
 504.4453125 834 521.794921875 853 534.611328125 903 c 1
 560.611328125 903 l 1
 546.384765625 845 516.212890625 810 474.212890625 810 c 0
16.388671875 0 m 1
 141.580078125 710 l 1
 188.580078125 710 l 1
 508.677734375 30 l 1
 628.580078125 710 l 1
 660.580078125 710 l 1
 535.388671875 0 l 1
 488.388671875 0 l 1
 168.291015625 680 l 1
 48.388671875 0 l 1
 16.388671875 0 l 1
EndSplineSet
Validated: 524289
EndChar

StartChar: Eng
Encoding: 330 330 74
Width: 711
GlyphClass: 2
Flags: HMW
HStem: -150 28<394 492 394 492> 0 21G<96 96 96 128 568 568 568 583> 0 30<568 583 568 583> 680 30<128 128>
VStem: 96 32<0 680 0 710 0 710> 583 32<-30 0 0 0 30 710>
AnchorPoint: "Anchor-3" 431.82 710 basechar 0
AnchorPoint: "Anchor-0" 280.18 -150 basechar 0
LayerCount: 2
Fore
SplineSet
46.62890625 0 m 1xdc
 171.8203125 710 l 1
 218.8203125 710 l 1
 538.91796875 30 l 1xbc
 658.8203125 710 l 1
 690.8203125 710 l 1
 560.338867188 -30 l 2
 547.99609375 -100 493.1796875 -150 416.1796875 -150 c 2
 318.1796875 -150 l 1
 323.116210938 -122 l 1
 421.116210938 -122 l 2
 479.116210938 -122 518.993164062 -83 528.338867188 -30 c 2
 533.62890625 0 l 1
 518.62890625 0 l 1
 198.53125 680 l 1
 78.62890625 0 l 1
 46.62890625 0 l 1xdc
EndSplineSet
Validated: 524289
EndChar

StartChar: O
Encoding: 79 79 75
Width: 714
GlyphClass: 2
Flags: HMW
HStem: -16 32<272.5 441.5 272.5 452> 694 32<272.5 441.5>
VStem: 50 34<250 458.5 250 468.5> 630 34<250 458.5>
AnchorPoint: "Anchor-3" 419.596 710 basechar 0
AnchorPoint: "Anchor-1" 357 355 basechar 0
AnchorPoint: "Anchor-0" 294.404 0 basechar 0
LayerCount: 2
Fore
SplineSet
291.583007812 -16 m 0
 101.583007812 -16 9.7978515625 127 49.8232421875 354 c 0
 90.2021484375 583 232.416992188 726 422.416992188 726 c 0
 612.416992188 726 704.202148438 583 663.823242188 354 c 0
 623.797851562 127 481.583007812 -16 291.583007812 -16 c 0
297.225585938 16 m 0
 466.225585938 16 593.147460938 146 629.823242188 354 c 0
 666.67578125 563 585.774414062 694 416.774414062 694 c 0
 247.774414062 694 120.67578125 563 83.8232421875 354 c 0
 47.1474609375 146 128.225585938 16 297.225585938 16 c 0
EndSplineSet
Validated: 524321
Substitution2: "Single Substitution lookup 27 subtable" ordmasculine
Substitution2: "'aalt' Access All Alternates in Latin lookup 0 subtable" ordmasculine
EndChar

StartChar: Oacute
Encoding: 211 211 76
Width: 714
GlyphClass: 2
Flags: HMW
HStem: -16 32<272.5 441.5 272.5 452> 694 32<272.5 441.5> 790 116<343 449 343 449>
VStem: 50 34<250 458.5 250 468.5> 630 34<250 458.5>
AnchorPoint: "Anchor-3" 403.727 710 basechar 0
AnchorPoint: "Anchor-1" 341.131 355 basechar 0
AnchorPoint: "Anchor-0" 278.534 0 basechar 0
LayerCount: 2
Fore
SplineSet
403.833007812 790 m 1
 496.287109375 906 l 1
 530.287109375 906 l 1
 429.833007812 790 l 1
 403.833007812 790 l 1
275.712890625 -16 m 0
 85.712890625 -16 -6.072265625 127 33.9541015625 354 c 0
 74.3330078125 583 216.547851562 726 406.547851562 726 c 0
 596.547851562 726 688.333007812 583 647.954101562 354 c 0
 607.927734375 127 465.712890625 -16 275.712890625 -16 c 0
281.35546875 16 m 0
 450.35546875 16 577.278320312 146 613.954101562 354 c 0
 650.806640625 563 569.905273438 694 400.905273438 694 c 0
 231.905273438 694 104.806640625 563 67.9541015625 354 c 0
 31.2783203125 146 112.35546875 16 281.35546875 16 c 0
EndSplineSet
Validated: 524321
EndChar

StartChar: Ocircumflex
Encoding: 212 212 77
Width: 714
GlyphClass: 2
Flags: HMW
HStem: -16 32<272.5 441.5 272.5 452> 694 32<272.5 441.5> 889 25<358 358>
VStem: 50 34<250 458.5 250 468.5> 630 34<250 458.5>
AnchorPoint: "Anchor-3" 403.021 710 basechar 0
AnchorPoint: "Anchor-1" 340.425 355 basechar 0
AnchorPoint: "Anchor-0" 277.829 0 basechar 0
LayerCount: 2
Fore
SplineSet
319.127929688 790 m 1
 428.9921875 914 l 1
 450.9921875 914 l 1
 517.127929688 790 l 1
 489.127929688 790 l 1
 435.583984375 889 l 1
 347.127929688 790 l 1
 319.127929688 790 l 1
275.0078125 -16 m 0
 85.0078125 -16 -6.77734375 127 33.2490234375 354 c 0
 73.6279296875 583 215.842773438 726 405.842773438 726 c 0
 595.842773438 726 687.627929688 583 647.249023438 354 c 0
 607.22265625 127 465.0078125 -16 275.0078125 -16 c 0
280.650390625 16 m 0
 449.650390625 16 576.573242188 146 613.249023438 354 c 0
 650.1015625 563 569.200195312 694 400.200195312 694 c 0
 231.200195312 694 104.1015625 563 67.2490234375 354 c 0
 30.5732421875 146 111.650390625 16 280.650390625 16 c 0
EndSplineSet
Validated: 524321
EndChar

StartChar: Odieresis
Encoding: 214 214 78
Width: 714
GlyphClass: 2
Flags: HMW
HStem: -16 32<272.5 441.5 272.5 452> 694 32<272.5 441.5> 808 70<276 310 276 310 404 438>
VStem: 50 34<250 458.5 250 468.5> 276 34<808 878 808 878> 404 34<808 878 808 878> 630 34<250 458.5>
AnchorPoint: "Anchor-3" 406.195 710 basechar 0
AnchorPoint: "Anchor-1" 343.6 355 basechar 0
AnchorPoint: "Anchor-0" 281.003 0 basechar 0
LayerCount: 2
Fore
SplineSet
342.475585938 808 m 1
 354.818359375 878 l 1
 388.818359375 878 l 1
 376.475585938 808 l 1
 342.475585938 808 l 1
470.475585938 808 m 1
 482.818359375 878 l 1
 516.818359375 878 l 1
 504.475585938 808 l 1
 470.475585938 808 l 1
278.181640625 -16 m 0
 88.181640625 -16 -3.603515625 127 36.4228515625 354 c 0
 76.8017578125 583 219.016601562 726 409.016601562 726 c 0
 599.016601562 726 690.801757812 583 650.422851562 354 c 0
 610.396484375 127 468.181640625 -16 278.181640625 -16 c 0
283.82421875 16 m 0
 452.82421875 16 579.747070312 146 616.422851562 354 c 0
 653.275390625 563 572.374023438 694 403.374023438 694 c 0
 234.374023438 694 107.275390625 563 70.4228515625 354 c 0
 33.7470703125 146 114.82421875 16 283.82421875 16 c 0
EndSplineSet
Validated: 524321
Substitution2: "'ss08' Style Set 8 in Latin lookup 41 subtable" Odieresis.ss08
Substitution2: "'aalt' Access All Alternates in Latin lookup 0 subtable" Odieresis.ss08
EndChar

StartChar: Ograve
Encoding: 210 210 79
Width: 714
GlyphClass: 2
Flags: HMW
HStem: -16 32<272.5 441.5 272.5 452> 694 32<272.5 441.5> 798 116<264 344 264 370>
VStem: 50 34<250 458.5 250 468.5> 630 34<250 458.5>
AnchorPoint: "Anchor-3" 403.021 710 basechar 0
AnchorPoint: "Anchor-1" 340.425 355 basechar 0
AnchorPoint: "Anchor-0" 277.829 0 basechar 0
LayerCount: 2
Fore
SplineSet
405.538085938 798 m 1
 345.9921875 914 l 1
 379.9921875 914 l 1
 431.538085938 798 l 1
 405.538085938 798 l 1
275.0078125 -16 m 0
 85.0078125 -16 -6.77734375 127 33.2490234375 354 c 0
 73.6279296875 583 215.842773438 726 405.842773438 726 c 0
 595.842773438 726 687.627929688 583 647.249023438 354 c 0
 607.22265625 127 465.0078125 -16 275.0078125 -16 c 0
280.650390625 16 m 0
 449.650390625 16 576.573242188 146 613.249023438 354 c 0
 650.1015625 563 569.200195312 694 400.200195312 694 c 0
 231.200195312 694 104.1015625 563 67.2490234375 354 c 0
 30.5732421875 146 111.650390625 16 280.650390625 16 c 0
EndSplineSet
Validated: 524321
EndChar

StartChar: Ohungarumlaut
Encoding: 336 336 80
Width: 714
GlyphClass: 2
Flags: HMW
HStem: -16 32<272.5 441.5 272.5 452> 694 32<272.5 441.5> 790 116<297 403 297 403 391 403 369 417 391 391>
VStem: 50 34<250 458.5 250 468.5> 630 34<250 458.5>
AnchorPoint: "Anchor-3" 403.727 710 basechar 0
AnchorPoint: "Anchor-1" 341.131 355 basechar 0
AnchorPoint: "Anchor-0" 278.534 0 basechar 0
LayerCount: 2
Fore
SplineSet
357.833007812 790 m 1
 450.287109375 906 l 1
 484.287109375 906 l 1
 383.833007812 790 l 1
 357.833007812 790 l 1
451.833007812 790 m 1
 544.287109375 906 l 1
 578.287109375 906 l 1
 477.833007812 790 l 1
 451.833007812 790 l 1
275.712890625 -16 m 0
 85.712890625 -16 -6.072265625 127 33.9541015625 354 c 0
 74.3330078125 583 216.547851562 726 406.547851562 726 c 0
 596.547851562 726 688.333007812 583 647.954101562 354 c 0
 607.927734375 127 465.712890625 -16 275.712890625 -16 c 0
281.35546875 16 m 0
 450.35546875 16 577.278320312 146 613.954101562 354 c 0
 650.806640625 563 569.905273438 694 400.905273438 694 c 0
 231.905273438 694 104.806640625 563 67.9541015625 354 c 0
 31.2783203125 146 112.35546875 16 281.35546875 16 c 0
EndSplineSet
Validated: 524321
EndChar

StartChar: Omacron
Encoding: 332 332 81
Width: 714
GlyphClass: 2
Flags: HMW
HStem: -16 32<272.5 441.5 272.5 452> 694 32<272.5 441.5> 824 28<233 481 233 481>
VStem: 50 34<250 458.5 250 468.5> 630 34<250 458.5>
AnchorPoint: "Anchor-3" 408.487 710 basechar 0
AnchorPoint: "Anchor-1" 345.892 355 basechar 0
AnchorPoint: "Anchor-0" 283.295 0 basechar 0
LayerCount: 2
Fore
SplineSet
304.588867188 824 m 1
 309.526367188 852 l 1
 557.526367188 852 l 1
 552.588867188 824 l 1
 304.588867188 824 l 1
280.473632812 -16 m 0
 90.4736328125 -16 -1.3115234375 127 38.71484375 354 c 0
 79.09375 583 221.30859375 726 411.30859375 726 c 0
 601.30859375 726 693.09375 583 652.71484375 354 c 0
 612.688476562 127 470.473632812 -16 280.473632812 -16 c 0
286.116210938 16 m 0
 455.116210938 16 582.0390625 146 618.71484375 354 c 0
 655.567382812 563 574.666015625 694 405.666015625 694 c 0
 236.666015625 694 109.567382812 563 72.71484375 354 c 0
 36.0390625 146 117.116210938 16 286.116210938 16 c 0
EndSplineSet
Validated: 524321
EndChar

StartChar: Oslash
Encoding: 216 216 82
Width: 714
GlyphClass: 2
Flags: HMW
HStem: -16 32<321.5 441.5 321.5 452> 694 32<272.5 392.5>
VStem: 50 34<300 458.5 300 468.5> 630 34<250 408>
AnchorPoint: "Anchor-3" 419.596 710 basechar 0
AnchorPoint: "Anchor-1" 357 355 basechar 0
AnchorPoint: "Anchor-0" 294.404 0 basechar 0
LayerCount: 2
Fore
SplineSet
14.5830078125 -16 m 1
 92.275390625 73 l 1
 44.560546875 137 28.6640625 234 49.8232421875 354 c 0
 90.2021484375 583 232.416992188 726 422.416992188 726 c 0
 500.416992188 726 562.185546875 702 605.250976562 657 c 1
 665.416992188 726 l 1
 699.416992188 726 l 1
 621.724609375 637 l 1
 669.439453125 573 685.159179688 475 663.823242188 354 c 0
 623.797851562 127 481.583007812 -16 291.583007812 -16 c 0
 213.583007812 -16 151.814453125 8 108.749023438 53 c 1
 48.5830078125 -16 l 1
 14.5830078125 -16 l 1
83.8232421875 354 m 0
 64.7802734375 246 77.6162109375 160 117.212890625 101 c 1
 580.313476562 629 l 1
 542.719726562 671 487.774414062 694 416.774414062 694 c 0
 247.774414062 694 120.67578125 563 83.8232421875 354 c 0
297.225585938 16 m 0
 466.225585938 16 593.147460938 146 629.823242188 354 c 0
 648.8671875 462 636.383789062 550 596.787109375 609 c 1
 133.686523438 81 l 1
 171.280273438 39 226.225585938 16 297.225585938 16 c 0
EndSplineSet
Validated: 524321
EndChar

StartChar: Otilde
Encoding: 213 213 83
Width: 714
GlyphClass: 2
Flags: HMW
HStem: -16 32<272.5 441.5 272.5 452> 694 32<272.5 441.5> 810 24<404 425 404 433> 870 24<279 306>
VStem: 50 34<250 458.5 250 468.5> 218 26<805 805> 456 26<903 903> 630 34<250 458.5>
AnchorPoint: "Anchor-3" 403.991 710 basechar 0
AnchorPoint: "Anchor-1" 341.396 355 basechar 0
AnchorPoint: "Anchor-0" 278.799 0 basechar 0
LayerCount: 2
Fore
SplineSet
476.624023438 810 m 0
 448.624023438 810 433.563476562 821 418.266601562 842 c 0
 405.440429688 860 393.203125 870 369.203125 870 c 0
 339.203125 870 317.500976562 849 307.7421875 805 c 1
 281.7421875 805 l 1
 295.616210938 861 331.435546875 894 373.435546875 894 c 0
 405.435546875 894 422.790039062 879 439.087890625 858 c 0
 453.9140625 840 464.85546875 834 480.85546875 834 c 0
 506.85546875 834 524.206054688 853 537.022460938 903 c 1
 563.022460938 903 l 1
 548.794921875 845 518.624023438 810 476.624023438 810 c 0
275.977539062 -16 m 0
 85.9775390625 -16 -5.8076171875 127 34.21875 354 c 0
 74.59765625 583 216.8125 726 406.8125 726 c 0
 596.8125 726 688.59765625 583 648.21875 354 c 0
 608.192382812 127 465.977539062 -16 275.977539062 -16 c 0
281.620117188 16 m 0
 450.620117188 16 577.54296875 146 614.21875 354 c 0
 651.071289062 563 570.169921875 694 401.169921875 694 c 0
 232.169921875 694 105.071289062 563 68.21875 354 c 0
 31.54296875 146 112.620117188 16 281.620117188 16 c 0
EndSplineSet
Validated: 524321
EndChar

StartChar: OE
Encoding: 338 338 84
Width: 1077
GlyphClass: 2
Flags: HMW
HStem: -16 32<272 420.5> 0 30<662 1027 662 1027> 339 30<662 1007 662 1007> 517 20G<630 630> 680 30<662 1019 662 662> 694 32<272 421 263 441>
VStem: 50 34<250 458.5 250 466.5> 630 32<30 173 173 173 250 339 369 458.5 537 680>
AnchorPoint: "Anchor-3" 601.596 710 basechar 0
AnchorPoint: "Anchor-0" 476.404 0 basechar 0
LayerCount: 2
Fore
SplineSet
290.583007812 -16 m 0xbb
 105.583007812 -16 10.5029296875 131 49.8232421875 354 c 0
 89.4970703125 579 235.416992188 726 421.416992188 726 c 0xb7
 551.416992188 726 635.250976562 657 662.091796875 537 c 1
 692.595703125 710 l 1
 1081.59570312 710 l 1
 1076.30664062 680 l 1
 719.306640625 680 l 1
 664.46875 369 l 1
 1009.46875 369 l 1
 1004.17871094 339 l 1
 659.178710938 339 l 1
 604.693359375 30 l 1
 969.693359375 30 l 1
 964.404296875 0 l 1
 567.404296875 0 l 1x7b
 597.908203125 173 l 1
 528.749023438 53 419.583007812 -16 290.583007812 -16 c 0xbb
296.225585938 16 m 0
 466.225585938 16 593.147460938 146 629.823242188 354 c 0
 666.67578125 563 585.774414062 694 415.774414062 694 c 0
 247.774414062 694 120.67578125 563 83.8232421875 354 c 0
 47.1474609375 146 128.225585938 16 296.225585938 16 c 0
EndSplineSet
Validated: 524321
EndChar

StartChar: P
Encoding: 80 80 85
Width: 618
GlyphClass: 2
Flags: HMW
HStem: 0 21G<96 96 96 128> 305 30<128 333 128 333> 680 30<128 333 128 128>
VStem: 96 32<0 305 335 680> 539 34<450.5 561>
AnchorPoint: "Anchor-3" 371.596 710 basechar 0
AnchorPoint: "Anchor-0" 246.404 0 basechar 0
LayerCount: 2
Fore
SplineSet
33.404296875 0 m 1
 158.595703125 710 l 1
 395.595703125 710 l 2
 545.595703125 710 621.666015625 631 599.44921875 505 c 0
 577.760742188 382 474.18359375 305 324.18359375 305 c 2
 119.18359375 305 l 1
 65.404296875 0 l 1
 33.404296875 0 l 1
124.473632812 335 m 1
 329.473632812 335 l 2
 461.473632812 335 546.229492188 396 565.44921875 505 c 0
 585.197265625 617 522.306640625 680 390.306640625 680 c 2
 185.306640625 680 l 1
 124.473632812 335 l 1
EndSplineSet
Validated: 524321
EndChar

StartChar: Thorn
Encoding: 222 222 86
Width: 588
GlyphClass: 2
Flags: HMW
HStem: 0 21G<96 96 96 128> 164 30<128 293 128 293> 539 30<128 293 128 293> 539 171<96 293 96 128>
VStem: 96 32<0 164 0 194 194 539 569 710> 509 34<304 424>
AnchorPoint: "Anchor-3" 357.596 710 basechar 0
AnchorPoint: "Anchor-0" 232.404 0 basechar 0
LayerCount: 2
Fore
SplineSet
33.404296875 0 m 1xec
 158.595703125 710 l 1
 190.595703125 710 l 1xdc
 165.734375 569 l 1
 330.734375 569 l 2
 490.734375 569 566.803710938 490 544.586914062 364 c 0
 521.840820312 235 419.321289062 164 259.321289062 164 c 2
 94.3212890625 164 l 1
 65.404296875 0 l 1
 33.404296875 0 l 1xec
325.444335938 539 m 2xec
 160.444335938 539 l 1
 99.611328125 194 l 1
 264.611328125 194 l 2
 398.611328125 194 489.427734375 244 510.586914062 364 c 0
 531.74609375 484 459.444335938 539 325.444335938 539 c 2xec
EndSplineSet
Validated: 524321
EndChar

StartChar: Q
Encoding: 81 81 87
Width: 708
GlyphClass: 2
Flags: HMW
HStem: -16 32<271 378 271 381.5> 694 32<271 437>
VStem: 50 34<250 458.5 250 466.5> 624 34<287 458.5>
AnchorPoint: "Anchor-3" 421.269 710 basechar 0
AnchorPoint: "Anchor-0" 296.076 0 basechar 0
LayerCount: 2
Fore
SplineSet
499.91015625 -69 m 1
 445.956054688 22 l 1
 399.547851562 -3 348.254882812 -16 293.254882812 -16 c 0
 110.254882812 -16 15.17578125 131 54.49609375 354 c 0
 94.169921875 579 240.08984375 726 424.08984375 726 c 0
 608.08984375 726 702.169921875 579 662.49609375 354 c 0
 636.400390625 206 567.533203125 99 472.600585938 37 c 1
 537.91015625 -69 l 1
 499.91015625 -69 l 1
298.897460938 16 m 0
 346.897460938 16 390.837890625 27 431.364257812 47 c 1
 332.752929688 208 l 1
 370.752929688 208 l 1
 458.008789062 62 l 1
 542.70703125 117 604.868164062 220 628.49609375 354 c 0
 665.348632812 563 584.447265625 694 418.447265625 694 c 0
 252.447265625 694 125.348632812 563 88.49609375 354 c 0
 51.8203125 146 132.897460938 16 298.897460938 16 c 0
EndSplineSet
Validated: 524321
EndChar

StartChar: R
Encoding: 82 82 88
Width: 630
GlyphClass: 2
Flags: HMW
HStem: 0 21G<96 96 96 128 542 542 542 575> 311 30<128 348 348 364 128 348> 680 30<128 335 128 128>
VStem: 96 32<0 311 341 680> 534.5 32.5 541 34<462 564.5>
AnchorPoint: "Anchor-3" 386.596 710 basechar 0
AnchorPoint: "Anchor-0" 255.404 0 basechar 0
LayerCount: 2
Fore
SplineSet
33.404296875 0 m 1xf8
 158.595703125 710 l 1
 399.595703125 710 l 2
 553.595703125 710 624.547851562 636 601.801757812 507 c 0xf4
 585.932617188 417 519.647460938 353 430.591796875 330 c 1
 506.475585938 318 538.365234375 272 530.788085938 195 c 2
 512.404296875 0 l 1
 479.404296875 0 l 1
 498.611328125 194 l 2
 506.717773438 274 464.241210938 311 356.241210938 311 c 2
 120.241210938 311 l 1
 65.404296875 0 l 1
 33.404296875 0 l 1xf8
125.53125 341 m 1
 345.53125 341 l 2
 464.53125 341 548.934570312 400 567.801757812 507 c 0
 588.079101562 622 530.306640625 680 392.306640625 680 c 2
 185.306640625 680 l 1
 125.53125 341 l 1
EndSplineSet
Validated: 524321
Substitution2: "'ss04' Style Set 4 in Latin lookup 37 subtable" R.ss04
Substitution2: "'aalt' Access All Alternates in Latin lookup 0 subtable" R.ss04
EndChar

StartChar: Racute
Encoding: 340 340 89
Width: 630
GlyphClass: 2
Flags: HMW
HStem: 0 21G<96 96 96 128 542 542 542 575> 311 30<128 348 348 364 128 348> 680 30<128 335 128 128> 790 116<310 416 310 416>
VStem: 96 32<0 311 341 680> 534.5 32.5 541 34<462 564.5>
AnchorPoint: "Anchor-3" 369.316 710 basechar 0
AnchorPoint: "Anchor-0" 238.124 0 basechar 0
LayerCount: 2
Fore
SplineSet
369.421875 790 m 1xfc
 461.875976562 906 l 1
 495.875976562 906 l 1
 395.421875 790 l 1
 369.421875 790 l 1xfc
16.1240234375 0 m 1
 141.31640625 710 l 1
 382.31640625 710 l 2
 536.31640625 710 607.267578125 636 584.521484375 507 c 0xfa
 568.65234375 417 502.3671875 353 413.311523438 330 c 1
 489.196289062 318 521.084960938 272 513.5078125 195 c 2
 495.124023438 0 l 1
 462.124023438 0 l 1
 481.331054688 194 l 2
 489.4375 274 446.961914062 311 338.961914062 311 c 2
 102.961914062 311 l 1
 48.1240234375 0 l 1
 16.1240234375 0 l 1
108.250976562 341 m 1
 328.250976562 341 l 2
 447.250976562 341 531.654296875 400 550.521484375 507 c 0
 570.798828125 622 513.026367188 680 375.026367188 680 c 2
 168.026367188 680 l 1
 108.250976562 341 l 1
EndSplineSet
Validated: 524321
Substitution2: "'ss04' Style Set 4 in Latin lookup 37 subtable" Racute.ss04
Substitution2: "'aalt' Access All Alternates in Latin lookup 0 subtable" Racute.ss04
EndChar

StartChar: Rcaron
Encoding: 344 344 90
Width: 630
GlyphClass: 2
Flags: HMW
HStem: 0 21G<96 96 96 128 542 542 542 575> 311 30<128 348 348 364 128 348> 680 30<128 335 128 128> 790 25<324 324 324 335 313 324>
VStem: 96 32<0 311 341 680> 534.5 32.5 541 34<462 564.5>
AnchorPoint: "Anchor-3" 368.61 710 basechar 0
AnchorPoint: "Anchor-0" 237.419 0 basechar 0
LayerCount: 2
Fore
SplineSet
305.581054688 914 m 1xfc
 333.581054688 914 l 1
 387.125 815 l 1
 475.581054688 914 l 1
 503.581054688 914 l 1
 393.716796875 790 l 1
 371.716796875 790 l 1
 305.581054688 914 l 1xfc
15.4189453125 0 m 1
 140.610351562 710 l 1
 381.610351562 710 l 2
 535.610351562 710 606.5625 636 583.81640625 507 c 0xfa
 567.947265625 417 501.662109375 353 412.606445312 330 c 1
 488.490234375 318 520.379882812 272 512.802734375 195 c 2
 494.418945312 0 l 1
 461.418945312 0 l 1
 480.625976562 194 l 2
 488.732421875 274 446.255859375 311 338.255859375 311 c 2
 102.255859375 311 l 1
 47.4189453125 0 l 1
 15.4189453125 0 l 1
107.545898438 341 m 1
 327.545898438 341 l 2
 446.545898438 341 530.94921875 400 549.81640625 507 c 0
 570.09375 622 512.321289062 680 374.321289062 680 c 2
 167.321289062 680 l 1
 107.545898438 341 l 1
EndSplineSet
Validated: 524321
Substitution2: "'ss04' Style Set 4 in Latin lookup 37 subtable" Rcaron.ss04
Substitution2: "'aalt' Access All Alternates in Latin lookup 0 subtable" Rcaron.ss04
EndChar

StartChar: uni0156
Encoding: 342 342 91
Width: 630
GlyphClass: 2
Flags: HMW
HStem: -94 48<293 317 293 343> 0 21G<96 96 96 128 542 542 542 575> 311 30<128 348 348 364 128 348> 680 30<128 335 128 128>
VStem: 96 32<0 311 341 680> 293 50<-89 -46 -89 -46 -89 -46> 534.5 32.5 541 34<462 564.5>
AnchorPoint: "Anchor-3" 401.496 710 basechar 0
AnchorPoint: "Anchor-0" 240.504 -169 basechar 0
LayerCount: 2
Fore
SplineSet
48.3037109375 0 m 1xfe
 173.49609375 710 l 1
 414.49609375 710 l 2
 568.49609375 710 639.447265625 636 616.701171875 507 c 0xfd
 600.83203125 417 534.546875 353 445.491210938 330 c 1
 521.375976562 318 553.264648438 272 545.6875 195 c 2
 527.303710938 0 l 1
 494.303710938 0 l 1
 513.510742188 194 l 2
 521.6171875 274 479.141601562 311 371.141601562 311 c 2
 135.141601562 311 l 1
 80.3037109375 0 l 1
 48.3037109375 0 l 1xfe
140.430664062 341 m 1
 360.430664062 341 l 2
 479.430664062 341 563.833984375 400 582.701171875 507 c 0
 602.978515625 622 545.206054688 680 407.206054688 680 c 2
 200.206054688 680 l 1
 140.430664062 341 l 1
203.50390625 -169 m 1
 252.728515625 -94 l 1
 228.728515625 -94 l 1
 237.192382812 -46 l 1
 287.192382812 -46 l 1
 279.610351562 -89 l 1
 225.50390625 -169 l 1
 203.50390625 -169 l 1
EndSplineSet
Validated: 524321
Substitution2: "'ss04' Style Set 4 in Latin lookup 37 subtable" uni0156.ss04
Substitution2: "'aalt' Access All Alternates in Latin lookup 0 subtable" uni0156.ss04
EndChar

StartChar: S
Encoding: 83 83 92
Width: 623
GlyphClass: 2
Flags: HMW
HStem: -16 32<255 382 255 388.5> 694 32<242 371>
VStem: 60 33<167 219> 75 34<493.5 582 493.5 590> 510 34<508 556> 529 34<128 217.5>
AnchorPoint: "Anchor-3" 366.596 710 basechar 0
AnchorPoint: "Anchor-0" 247.404 0 basechar 0
LayerCount: 2
Fore
SplineSet
256.583007812 -16 m 0xd4
 106.583007812 -16 13.0966796875 89 36.01953125 219 c 1
 69.548828125 222 l 1
 50.15234375 112 126.225585938 16 264.225585938 16 c 0
 380.225585938 16 479.8046875 76 498.142578125 180 c 0xe4
 511.3671875 255 479.712890625 308 297.470703125 352 c 0
 147.818359375 388 87.8720703125 428 107.267578125 538 c 0
 125.60546875 642 223.416992188 726 371.416992188 726 c 0
 527.416992188 726 590.021484375 616 570.978515625 508 c 1
 536.44921875 505 l 1xd8
 554.434570312 607 497.774414062 694 363.774414062 694 c 0
 239.774414062 694 157.137695312 628 140.915039062 536 c 0
 125.927734375 451 163.108398438 418 312.760742188 382 c 0
 508.473632812 335 548.717773438 274 531.790039062 178 c 0
 510.630859375 58 389.583007812 -16 256.583007812 -16 c 0xd4
EndSplineSet
Validated: 524321
EndChar

StartChar: Sacute
Encoding: 346 346 93
Width: 623
GlyphClass: 2
Flags: HMW
HStem: -16 32<255 382 255 388.5> 694 32<242 371> 790 116<290 396 290 396>
VStem: 60 33<167 219> 75 34<493.5 582 493.5 590> 510 34<508 556> 529 34<128 217.5>
AnchorPoint: "Anchor-3" 350.727 710 basechar 0
AnchorPoint: "Anchor-0" 231.534 0 basechar 0
LayerCount: 2
Fore
SplineSet
350.833007812 790 m 1xea
 443.287109375 906 l 1
 477.287109375 906 l 1
 376.833007812 790 l 1
 350.833007812 790 l 1xea
240.712890625 -16 m 0
 90.712890625 -16 -2.7724609375 89 20.150390625 219 c 1
 53.6787109375 222 l 1
 34.283203125 112 110.35546875 16 248.35546875 16 c 0
 364.35546875 16 463.935546875 76 482.2734375 180 c 0xd2
 495.498046875 255 463.842773438 308 281.6015625 352 c 0
 131.94921875 388 72.001953125 428 91.3984375 538 c 0
 109.736328125 642 207.547851562 726 355.547851562 726 c 0
 511.547851562 726 574.15234375 616 555.108398438 508 c 1
 520.580078125 505 l 1xcc
 538.565429688 607 481.905273438 694 347.905273438 694 c 0
 223.905273438 694 141.267578125 628 125.045898438 536 c 0
 110.057617188 451 147.239257812 418 296.891601562 382 c 0
 492.604492188 335 532.84765625 274 515.920898438 178 c 0
 494.76171875 58 373.712890625 -16 240.712890625 -16 c 0
EndSplineSet
Validated: 524321
EndChar

StartChar: Scaron
Encoding: 352 352 94
Width: 623
GlyphClass: 2
Flags: HMW
HStem: -16 32<255 382 255 388.5> 694 32<242 371> 790 25<304 304 304 315 293 304>
VStem: 60 33<167 219> 75 34<493.5 582 493.5 590> 510 34<508 556> 529 34<128 217.5>
AnchorPoint: "Anchor-3" 350.021 710 basechar 0
AnchorPoint: "Anchor-0" 230.829 0 basechar 0
LayerCount: 2
Fore
SplineSet
286.9921875 914 m 1xea
 314.9921875 914 l 1
 368.536132812 815 l 1
 456.9921875 914 l 1
 484.9921875 914 l 1
 375.127929688 790 l 1
 353.127929688 790 l 1
 286.9921875 914 l 1xea
240.0078125 -16 m 0
 90.0078125 -16 -3.4775390625 89 19.4443359375 219 c 1
 52.9736328125 222 l 1
 33.578125 112 109.650390625 16 247.650390625 16 c 0
 363.650390625 16 463.23046875 76 481.568359375 180 c 0xd2
 494.79296875 255 463.137695312 308 280.896484375 352 c 0
 131.244140625 388 71.296875 428 90.693359375 538 c 0
 109.03125 642 206.842773438 726 354.842773438 726 c 0
 510.842773438 726 573.446289062 616 554.403320312 508 c 1
 519.874023438 505 l 1xcc
 537.859375 607 481.200195312 694 347.200195312 694 c 0
 223.200195312 694 140.5625 628 124.340820312 536 c 0
 109.352539062 451 146.534179688 418 296.186523438 382 c 0
 491.8984375 335 532.142578125 274 515.215820312 178 c 0
 494.055664062 58 373.0078125 -16 240.0078125 -16 c 0
EndSplineSet
Validated: 524321
EndChar

StartChar: Scedilla
Encoding: 350 350 95
Width: 623
GlyphClass: 2
Flags: HMW
HStem: -204 26<279 321 279 330> -72 24<298 298 298 313.5> -16 32<315 322 315 316.5> -14 30<289 289> 694 32<242 371>
VStem: 60 33<167 219> 75 34<493.5 582 493.5 590> 368 28<-143 -106.5> 510 34<508 556> 529 34<128 217.5>
AnchorPoint: "Anchor-3" 383.171 710 basechar 0
AnchorPoint: "Anchor-0" 263.979 0 basechar 0
LayerCount: 2
Fore
SplineSet
273.157226562 -16 m 0xeb40
 271.157226562 -16 269.157226562 -16 266.157226562 -16 c 2xeb40
 243.514648438 -48 l 1
 305.162109375 -50 336.930664062 -74 327.76171875 -126 c 0
 318.9453125 -176 276.0078125 -204 220.0078125 -204 c 0
 170.0078125 -204 139.88671875 -182 134.587890625 -144 c 1
 160.350585938 -134 l 1
 163.766601562 -160 180.592773438 -178 222.592773438 -178 c 0
 264.592773438 -178 293.4140625 -162 300.114257812 -124 c 0
 306.28515625 -89 286.283203125 -72 223.283203125 -72 c 1
 212.45703125 -54 l 1
 240.509765625 -14 l 1xdd40
 109.978515625 0 31.4345703125 99 52.5947265625 219 c 1
 86.123046875 222 l 1
 66.7275390625 112 142.799804688 16 280.799804688 16 c 0
 396.799804688 16 496.379882812 76 514.717773438 180 c 0xed40
 527.942382812 255 496.287109375 308 314.045898438 352 c 0
 164.393554688 388 104.446289062 428 123.842773438 538 c 0
 142.180664062 642 239.9921875 726 387.9921875 726 c 0
 543.9921875 726 606.595703125 616 587.552734375 508 c 1
 553.0234375 505 l 1xeb80
 571.008789062 607 514.349609375 694 380.349609375 694 c 0
 256.349609375 694 173.711914062 628 157.490234375 536 c 0
 142.501953125 451 179.68359375 418 329.3359375 382 c 0
 525.047851562 335 565.291992188 274 548.365234375 178 c 0
 527.206054688 58 406.157226562 -16 273.157226562 -16 c 0xeb40
EndSplineSet
Validated: 524321
Substitution2: "'locl' Localized Forms in Latin lookup 10 subtable" uni0218
Substitution2: "'aalt' Access All Alternates in Latin lookup 0 subtable" uni0218
EndChar

StartChar: Scircumflex
Encoding: 348 348 96
Width: 623
GlyphClass: 2
Flags: HMW
HStem: -16 32<255 382 255 388.5> 694 32<242 371> 889 25<305 305>
VStem: 60 33<167 219> 75 34<493.5 582 493.5 590> 510 34<508 556> 529 34<128 217.5>
AnchorPoint: "Anchor-3" 350.021 710 basechar 0
AnchorPoint: "Anchor-0" 230.829 0 basechar 0
LayerCount: 2
Fore
SplineSet
266.127929688 790 m 1xea
 375.9921875 914 l 1
 397.9921875 914 l 1
 464.127929688 790 l 1
 436.127929688 790 l 1
 382.583984375 889 l 1
 294.127929688 790 l 1
 266.127929688 790 l 1xea
240.0078125 -16 m 0
 90.0078125 -16 -3.4775390625 89 19.4443359375 219 c 1
 52.9736328125 222 l 1
 33.578125 112 109.650390625 16 247.650390625 16 c 0
 363.650390625 16 463.23046875 76 481.568359375 180 c 0xd2
 494.79296875 255 463.137695312 308 280.896484375 352 c 0
 131.244140625 388 71.296875 428 90.693359375 538 c 0
 109.03125 642 206.842773438 726 354.842773438 726 c 0
 510.842773438 726 573.446289062 616 554.403320312 508 c 1
 519.874023438 505 l 1xcc
 537.859375 607 481.200195312 694 347.200195312 694 c 0
 223.200195312 694 140.5625 628 124.340820312 536 c 0
 109.352539062 451 146.534179688 418 296.186523438 382 c 0
 491.8984375 335 532.142578125 274 515.215820312 178 c 0
 494.055664062 58 373.0078125 -16 240.0078125 -16 c 0
EndSplineSet
Validated: 524321
EndChar

StartChar: uni0218
Encoding: 536 536 97
Width: 623
GlyphClass: 2
Flags: HMW
HStem: -94 48<285 309 285 335> -16 32<255 382 255 388.5> 694 32<242 371>
VStem: 60 33<167 219> 75 34<493.5 582 493.5 590> 285 50<-89 -46 -89 -46 -89 -46> 510 34<508 556> 529 34<128 217.5>
AnchorPoint: "Anchor-3" 380.085 710 basechar 0
AnchorPoint: "Anchor-0" 231.094 -169 basechar 0
LayerCount: 2
Fore
SplineSet
270.071289062 -16 m 0x6d
 120.071289062 -16 26.5859375 89 49.5087890625 219 c 1
 83.037109375 222 l 1
 63.6416015625 112 139.713867188 16 277.713867188 16 c 0
 393.713867188 16 493.293945312 76 511.631835938 180 c 0x75
 524.856445312 255 493.201171875 308 310.959960938 352 c 0
 161.307617188 388 101.361328125 428 120.756835938 538 c 0
 139.094726562 642 236.90625 726 384.90625 726 c 0
 540.90625 726 603.510742188 616 584.466796875 508 c 1
 549.938476562 505 l 1x6e
 567.923828125 607 511.263671875 694 377.263671875 694 c 0
 253.263671875 694 170.625976562 628 154.404296875 536 c 0
 139.416015625 451 176.59765625 418 326.25 382 c 0
 521.962890625 335 562.206054688 274 545.279296875 178 c 0
 524.120117188 58 403.071289062 -16 270.071289062 -16 c 0x6d
194.09375 -169 m 1
 243.318359375 -94 l 1
 219.318359375 -94 l 1
 227.782226562 -46 l 1
 277.782226562 -46 l 1xad
 270.200195312 -89 l 1
 216.09375 -169 l 1
 194.09375 -169 l 1
EndSplineSet
Validated: 524321
EndChar

StartChar: uni1E9E
Encoding: 7838 7838 98
Width: 654
GlyphClass: 2
Flags: HMW
HStem: 0 30<223 357 223 357> 378 30<253 389> 680 30<272 273 273 530>
VStem: 96 32<0 530 530 531 0 592.5> 253 37<408 408 408 411 408 411> 530 31<680 680> 565 34<145 259.5>
AnchorPoint: "Anchor-3" 389.596 710 basechar 0
AnchorPoint: "Anchor-0" 264.404 0 basechar 0
LayerCount: 2
Fore
SplineSet
33.404296875 0 m 1
 126.857421875 530 l 2
 148.8984375 655 212.595703125 710 334.595703125 710 c 2
 623.595703125 710 l 1
 616.190429688 668 l 1xf4
 299.345703125 408 l 1
 497.345703125 408 595.826171875 337 571.668945312 200 c 0
 548.922851562 71 436.404296875 0 294.404296875 0 c 2
 160.404296875 0 l 1
 165.693359375 30 l 1
 299.693359375 30 l 2
 421.693359375 30 518.2734375 90 537.668945312 200 c 0xfa
 558.65234375 319 483.055664062 378 292.055664062 378 c 2
 257.055664062 378 l 1
 262.874023438 411 l 1
 587.306640625 680 l 1
 330.306640625 680 l 2
 225.306640625 680 178.077148438 639 159.033203125 531 c 2
 65.404296875 0 l 1
 33.404296875 0 l 1
EndSplineSet
Validated: 524321
EndChar

StartChar: T
Encoding: 84 84 99
Width: 544
GlyphClass: 2
Flags: HMW
HStem: 0 21G<256 256 256 288> 680 30<14 256 14 530 288 288 288 530>
VStem: 256 32<0 680 0 680>
AnchorPoint: "Anchor-3" 334.596 710 basechar 0
AnchorPoint: "Anchor-1" 270.766 348 basechar 0
AnchorPoint: "Anchor-0" 209.404 0 basechar 0
LayerCount: 2
Fore
SplineSet
193.404296875 0 m 1
 313.306640625 680 l 1
 71.306640625 680 l 1
 76.595703125 710 l 1
 592.595703125 710 l 1
 587.306640625 680 l 1
 345.306640625 680 l 1
 225.404296875 0 l 1
 193.404296875 0 l 1
EndSplineSet
Validated: 524289
EndChar

StartChar: Tbar
Encoding: 358 358 100
Width: 544
GlyphClass: 2
Flags: HMW
HStem: 0 21G<256 256 256 288> 333 30<82 256 82 256 288 462> 680 30<14 256 14 530 288 288 288 530>
VStem: 256 32<0 333 0 333 363 680>
AnchorPoint: "Anchor-3" 334.596 710 basechar 0
AnchorPoint: "Anchor-1" 270.766 348 basechar 0
AnchorPoint: "Anchor-0" 209.404 0 basechar 0
LayerCount: 2
Fore
SplineSet
193.404296875 0 m 1
 252.12109375 333 l 1
 78.12109375 333 l 1
 83.41015625 363 l 1
 257.41015625 363 l 1
 313.306640625 680 l 1
 71.306640625 680 l 1
 76.595703125 710 l 1
 592.595703125 710 l 1
 587.306640625 680 l 1
 345.306640625 680 l 1
 289.41015625 363 l 1
 463.41015625 363 l 1
 458.12109375 333 l 1
 284.12109375 333 l 1
 225.404296875 0 l 1
 193.404296875 0 l 1
EndSplineSet
Validated: 524289
EndChar

StartChar: Tcaron
Encoding: 356 356 101
Width: 544
GlyphClass: 2
Flags: HMW
HStem: 0 21G<256 256 256 288> 680 30<14 256 14 530 288 288 288 530> 790 25<272 272 272 283 261 272>
VStem: 256 32<0 680 0 680>
AnchorPoint: "Anchor-3" 316.61 710 basechar 0
AnchorPoint: "Anchor-1" 252.78 348 basechar 0
AnchorPoint: "Anchor-0" 191.419 0 basechar 0
LayerCount: 2
Fore
SplineSet
253.581054688 914 m 1
 281.581054688 914 l 1
 335.125 815 l 1
 423.581054688 914 l 1
 451.581054688 914 l 1
 341.716796875 790 l 1
 319.716796875 790 l 1
 253.581054688 914 l 1
175.418945312 0 m 1
 295.321289062 680 l 1
 53.3212890625 680 l 1
 58.6103515625 710 l 1
 574.610351562 710 l 1
 569.321289062 680 l 1
 327.321289062 680 l 1
 207.418945312 0 l 1
 175.418945312 0 l 1
EndSplineSet
Validated: 524289
EndChar

StartChar: uni0162
Encoding: 354 354 102
Width: 544
GlyphClass: 2
Flags: HMW
HStem: -204 26<241 283 241 292> -72 24<260 260 260 275.5> 0 21G<256 256 256 258 286 286 286 288> 680 30<14 256 14 530 288 288 288 530>
VStem: 256 32<0 680 0 680> 330 28<-143 -106.5>
AnchorPoint: "Anchor-3" 352.581 710 basechar 0
AnchorPoint: "Anchor-1" 288.751 348 basechar 0
AnchorPoint: "Anchor-0" 227.39 0 basechar 0
LayerCount: 2
Fore
SplineSet
211.389648438 0 m 1
 331.291992188 680 l 1
 89.2919921875 680 l 1
 94.5810546875 710 l 1
 610.581054688 710 l 1
 605.291992188 680 l 1
 363.291992188 680 l 1
 243.389648438 0 l 1
 241.389648438 0 l 1
 206.92578125 -48 l 1
 268.573242188 -50 300.340820312 -74 291.171875 -126 c 0
 282.35546875 -176 239.418945312 -204 183.418945312 -204 c 0
 133.418945312 -204 103.297851562 -182 97.998046875 -144 c 1
 123.76171875 -134 l 1
 127.176757812 -160 144.002929688 -178 186.002929688 -178 c 0
 228.002929688 -178 256.82421875 -162 263.524414062 -124 c 0
 269.696289062 -89 249.693359375 -72 186.693359375 -72 c 1
 175.8671875 -54 l 1
 213.389648438 0 l 1
 211.389648438 0 l 1
EndSplineSet
Validated: 524321
Substitution2: "'locl' Localized Forms in Latin lookup 10 subtable" uni021A
Substitution2: "'aalt' Access All Alternates in Latin lookup 0 subtable" uni021A
EndChar

StartChar: uni021A
Encoding: 538 538 103
Width: 544
GlyphClass: 2
Flags: HMW
HStem: -94 48<247 271 247 297> 0 21G<256 256 256 288> 680 30<14 256 14 530 288 288 288 530>
VStem: 247 41 256 32<0 680 0 680> 256 41
AnchorPoint: "Anchor-3" 349.496 710 basechar 0
AnchorPoint: "Anchor-1" 285.665 348 basechar 0
AnchorPoint: "Anchor-0" 194.504 -169 basechar 0
LayerCount: 2
Fore
SplineSet
208.303710938 0 m 1xe8
 328.206054688 680 l 1
 86.2060546875 680 l 1
 91.49609375 710 l 1
 607.49609375 710 l 1
 602.206054688 680 l 1
 360.206054688 680 l 1
 240.303710938 0 l 1
 208.303710938 0 l 1xe8
157.50390625 -169 m 1
 206.728515625 -94 l 1
 182.728515625 -94 l 1
 191.192382812 -46 l 1xf0
 241.192382812 -46 l 1
 233.610351562 -89 l 1xe4
 179.50390625 -169 l 1
 157.50390625 -169 l 1
EndSplineSet
Validated: 524289
EndChar

StartChar: U
Encoding: 85 85 104
Width: 662
GlyphClass: 2
Flags: HMW
HStem: -16 32<261 401 261 411> 691 20G<81 113 113 113 549 581 581 581>
VStem: 81 32<248 711> 549 32<248 711>
AnchorPoint: "Anchor-3" 394.919 710 basechar 0
AnchorPoint: "Anchor-2" 374.902 1 basechar 0
AnchorPoint: "Anchor-0" 269.727 0 basechar 0
LayerCount: 2
Fore
SplineSet
266.905273438 -16 m 0
 106.905273438 -16 33.65625 79 63.455078125 248 c 2
 145.094726562 711 l 1
 177.094726562 711 l 1
 95.455078125 248 l 2
 69.1826171875 99 132.547851562 16 272.547851562 16 c 0
 412.547851562 16 505.182617188 99 531.455078125 248 c 2
 613.094726562 711 l 1
 645.094726562 711 l 1
 563.455078125 248 l 2
 533.65625 79 426.905273438 -16 266.905273438 -16 c 0
EndSplineSet
Validated: 524321
EndChar

StartChar: Uacute
Encoding: 218 218 105
Width: 662
GlyphClass: 2
Flags: HMW
HStem: -16 32<261 401 261 411> 691 20G<81 113 113 113 549 581 581 581> 790 116<317 423 317 423>
VStem: 81 32<248 711> 549 32<248 711>
AnchorPoint: "Anchor-3" 377.727 710 basechar 0
AnchorPoint: "Anchor-2" 357.711 1 basechar 0
AnchorPoint: "Anchor-0" 252.534 0 basechar 0
LayerCount: 2
Fore
SplineSet
377.833007812 790 m 1
 470.287109375 906 l 1
 504.287109375 906 l 1
 403.833007812 790 l 1
 377.833007812 790 l 1
249.712890625 -16 m 0
 89.712890625 -16 16.4638671875 79 46.263671875 248 c 2
 127.903320312 711 l 1
 159.903320312 711 l 1
 78.263671875 248 l 2
 51.9912109375 99 115.35546875 16 255.35546875 16 c 0
 395.35546875 16 487.991210938 99 514.263671875 248 c 2
 595.903320312 711 l 1
 627.903320312 711 l 1
 546.263671875 248 l 2
 516.463867188 79 409.712890625 -16 249.712890625 -16 c 0
EndSplineSet
Validated: 524321
EndChar

StartChar: Ubreve
Encoding: 364 364 106
Width: 662
GlyphClass: 2
Flags: HMW
HStem: -16 32<261 401 261 411> 691 20G<81 113 113 113 549 581 581 581> 798 28<305 357 305 366>
VStem: 81 32<248 711> 549 32<248 711>
AnchorPoint: "Anchor-3" 377.021 710 basechar 0
AnchorPoint: "Anchor-2" 357.006 1 basechar 0
AnchorPoint: "Anchor-0" 251.829 0 basechar 0
LayerCount: 2
Fore
SplineSet
392.538085938 798 m 0
 322.538085938 798 286.649414062 844 288.9921875 914 c 1
 314.9921875 914 l 1
 312.764648438 856 345.475585938 826 397.475585938 826 c 0
 449.475585938 826 492.764648438 856 510.9921875 914 c 1
 536.9921875 914 l 1
 514.649414062 844 462.538085938 798 392.538085938 798 c 0
249.0078125 -16 m 0
 89.0078125 -16 15.7587890625 79 45.55859375 248 c 2
 127.197265625 711 l 1
 159.197265625 711 l 1
 77.55859375 248 l 2
 51.28515625 99 114.650390625 16 254.650390625 16 c 0
 394.650390625 16 487.28515625 99 513.55859375 248 c 2
 595.197265625 711 l 1
 627.197265625 711 l 1
 545.55859375 248 l 2
 515.758789062 79 409.0078125 -16 249.0078125 -16 c 0
EndSplineSet
Validated: 524321
EndChar

StartChar: Ucircumflex
Encoding: 219 219 107
Width: 662
GlyphClass: 2
Flags: HMW
HStem: -16 32<261 401 261 411> 691 20G<81 113 113 113 549 581 581 581> 889 25<332 332>
VStem: 81 32<248 711> 549 32<248 711>
AnchorPoint: "Anchor-3" 377.021 710 basechar 0
AnchorPoint: "Anchor-2" 357.006 1 basechar 0
AnchorPoint: "Anchor-0" 251.829 0 basechar 0
LayerCount: 2
Fore
SplineSet
293.127929688 790 m 1
 402.9921875 914 l 1
 424.9921875 914 l 1
 491.127929688 790 l 1
 463.127929688 790 l 1
 409.583984375 889 l 1
 321.127929688 790 l 1
 293.127929688 790 l 1
249.0078125 -16 m 0
 89.0078125 -16 15.7587890625 79 45.55859375 248 c 2
 127.197265625 711 l 1
 159.197265625 711 l 1
 77.55859375 248 l 2
 51.28515625 99 114.650390625 16 254.650390625 16 c 0
 394.650390625 16 487.28515625 99 513.55859375 248 c 2
 595.197265625 711 l 1
 627.197265625 711 l 1
 545.55859375 248 l 2
 515.758789062 79 409.0078125 -16 249.0078125 -16 c 0
EndSplineSet
Validated: 524321
EndChar

StartChar: Udieresis
Encoding: 220 220 108
Width: 662
GlyphClass: 2
Flags: HMW
HStem: -16 32<261 401 261 411> 691 20G<81 113 113 113 549 581 581 581> 808 70<250 284 250 284 378 412>
VStem: 81 32<248 711> 250 34<808 878 808 878> 378 34<808 878 808 878> 549 32<248 711>
AnchorPoint: "Anchor-3" 380.195 710 basechar 0
AnchorPoint: "Anchor-2" 360.18 1 basechar 0
AnchorPoint: "Anchor-0" 255.003 0 basechar 0
LayerCount: 2
Fore
SplineSet
316.475585938 808 m 1
 328.818359375 878 l 1
 362.818359375 878 l 1
 350.475585938 808 l 1
 316.475585938 808 l 1
444.475585938 808 m 1
 456.818359375 878 l 1
 490.818359375 878 l 1
 478.475585938 808 l 1
 444.475585938 808 l 1
252.181640625 -16 m 0
 92.181640625 -16 18.9326171875 79 48.732421875 248 c 2
 130.37109375 711 l 1
 162.37109375 711 l 1
 80.732421875 248 l 2
 54.458984375 99 117.82421875 16 257.82421875 16 c 0
 397.82421875 16 490.458984375 99 516.732421875 248 c 2
 598.37109375 711 l 1
 630.37109375 711 l 1
 548.732421875 248 l 2
 518.932617188 79 412.181640625 -16 252.181640625 -16 c 0
EndSplineSet
Validated: 524321
Substitution2: "'ss08' Style Set 8 in Latin lookup 41 subtable" Udieresis.ss08
Substitution2: "'aalt' Access All Alternates in Latin lookup 0 subtable" Udieresis.ss08
EndChar

StartChar: Ugrave
Encoding: 217 217 109
Width: 662
GlyphClass: 2
Flags: HMW
HStem: -16 32<261 401 261 411> 691 20G<81 113 113 113 549 581 581 581> 798 116<238 318 238 344>
VStem: 81 32<248 711> 549 32<248 711>
AnchorPoint: "Anchor-3" 377.021 710 basechar 0
AnchorPoint: "Anchor-2" 357.006 1 basechar 0
AnchorPoint: "Anchor-0" 251.829 0 basechar 0
LayerCount: 2
Fore
SplineSet
379.538085938 798 m 1
 319.9921875 914 l 1
 353.9921875 914 l 1
 405.538085938 798 l 1
 379.538085938 798 l 1
249.0078125 -16 m 0
 89.0078125 -16 15.7587890625 79 45.55859375 248 c 2
 127.197265625 711 l 1
 159.197265625 711 l 1
 77.55859375 248 l 2
 51.28515625 99 114.650390625 16 254.650390625 16 c 0
 394.650390625 16 487.28515625 99 513.55859375 248 c 2
 595.197265625 711 l 1
 627.197265625 711 l 1
 545.55859375 248 l 2
 515.758789062 79 409.0078125 -16 249.0078125 -16 c 0
EndSplineSet
Validated: 524321
EndChar

StartChar: Uhungarumlaut
Encoding: 368 368 110
Width: 662
GlyphClass: 2
Flags: HMW
HStem: -16 32<261 401 261 411> 691 20G<81 113 113 113 549 581 581 581> 790 116<271 377 271 377 365 377 343 391 365 365>
VStem: 81 32<248 711> 549 32<248 711>
AnchorPoint: "Anchor-3" 377.727 710 basechar 0
AnchorPoint: "Anchor-2" 357.711 1 basechar 0
AnchorPoint: "Anchor-0" 252.534 0 basechar 0
LayerCount: 2
Fore
SplineSet
331.833007812 790 m 1
 424.287109375 906 l 1
 458.287109375 906 l 1
 357.833007812 790 l 1
 331.833007812 790 l 1
425.833007812 790 m 1
 518.287109375 906 l 1
 552.287109375 906 l 1
 451.833007812 790 l 1
 425.833007812 790 l 1
249.712890625 -16 m 0
 89.712890625 -16 16.4638671875 79 46.263671875 248 c 2
 127.903320312 711 l 1
 159.903320312 711 l 1
 78.263671875 248 l 2
 51.9912109375 99 115.35546875 16 255.35546875 16 c 0
 395.35546875 16 487.991210938 99 514.263671875 248 c 2
 595.903320312 711 l 1
 627.903320312 711 l 1
 546.263671875 248 l 2
 516.463867188 79 409.712890625 -16 249.712890625 -16 c 0
EndSplineSet
Validated: 524321
EndChar

StartChar: Umacron
Encoding: 362 362 111
Width: 662
GlyphClass: 2
Flags: HMW
HStem: -16 32<261 401 261 411> 691 20G<81 113 113 113 549 581 581 581> 824 28<207 455 207 455>
VStem: 81 32<248 711> 549 32<248 711>
AnchorPoint: "Anchor-3" 382.487 710 basechar 0
AnchorPoint: "Anchor-2" 362.472 1 basechar 0
AnchorPoint: "Anchor-0" 257.295 0 basechar 0
LayerCount: 2
Fore
SplineSet
278.588867188 824 m 1
 283.526367188 852 l 1
 531.526367188 852 l 1
 526.588867188 824 l 1
 278.588867188 824 l 1
254.473632812 -16 m 0
 94.4736328125 -16 21.2255859375 79 51.0244140625 248 c 2
 132.6640625 711 l 1
 164.6640625 711 l 1
 83.0244140625 248 l 2
 56.751953125 99 120.116210938 16 260.116210938 16 c 0
 400.116210938 16 492.751953125 99 519.024414062 248 c 2
 600.6640625 711 l 1
 632.6640625 711 l 1
 551.024414062 248 l 2
 521.225585938 79 414.473632812 -16 254.473632812 -16 c 0
EndSplineSet
Validated: 524321
EndChar

StartChar: Uogonek
Encoding: 370 370 112
Width: 662
GlyphClass: 2
Flags: HMW
HStem: -191 26<405 426 405 429> -16 32<261 344.5> 691 20G<81 113 113 113 549 581 581 581>
VStem: 81 32<248 711> 346 30<-143.5 -115> 549 32<248 711>
AnchorPoint: "Anchor-3" 410.347 710 basechar 0
AnchorPoint: "Anchor-2" 390.331 1 basechar 0
AnchorPoint: "Anchor-0" 285.155 0 basechar 0
LayerCount: 2
Fore
SplineSet
282.333984375 -16 m 0
 122.333984375 -16 49.0849609375 79 78.8837890625 248 c 2
 160.5234375 711 l 1
 192.5234375 711 l 1
 110.883789062 248 l 2
 84.611328125 99 147.9765625 16 287.9765625 16 c 0
 427.9765625 16 520.611328125 99 546.883789062 248 c 2
 628.5234375 711 l 1
 660.5234375 711 l 1
 578.883789062 248 l 2
 556.490234375 121 490.326171875 35 390.331054688 1 c 1
 357.278320312 -39 l 2
 331.98828125 -69 313.05078125 -97 307.409179688 -129 c 0
 302.294921875 -158 319.060546875 -165 341.060546875 -165 c 0
 361.060546875 -165 379.119140625 -159 392.706054688 -150 c 1
 402.827148438 -172 l 1
 382.7109375 -184 362.4765625 -191 336.4765625 -191 c 0
 298.4765625 -191 269.297851562 -175 277.055664062 -131 c 0
 282.698242188 -99 310.870117188 -64 343.747070312 -25 c 2
 357.744140625 -8 l 1
 334.862304688 -13 309.333984375 -16 282.333984375 -16 c 0
EndSplineSet
Validated: 524321
EndChar

StartChar: Uring
Encoding: 366 366 113
Width: 662
GlyphClass: 2
Flags: HMW
HStem: -16 32<261 401 261 411> 691 20G<81 113 113 113 549 581 581 581> 772 25<317 345 317 352> 888 26<317 345>
VStem: 81 32<248 711> 259 26<829 857 829 863.5> 376 26<829 857> 549 32<248 711>
AnchorPoint: "Anchor-3" 377.021 710 basechar 0
AnchorPoint: "Anchor-2" 357.006 1 basechar 0
AnchorPoint: "Anchor-0" 251.829 0 basechar 0
LayerCount: 2
Fore
SplineSet
387.954101562 772 m 0
 345.954101562 772 321.067382812 801 328.47265625 843 c 0
 335.702148438 884 370.9921875 914 412.9921875 914 c 0
 453.9921875 914 478.702148438 884 471.47265625 843 c 0
 464.243164062 802 429.954101562 772 387.954101562 772 c 0
392.361328125 797 m 0
 420.361328125 797 440.536132812 815 445.47265625 843 c 0
 450.41015625 871 436.407226562 888 408.407226562 888 c 0
 380.407226562 888 359.41015625 871 354.47265625 843 c 0
 349.536132812 815 364.361328125 797 392.361328125 797 c 0
249.0078125 -16 m 0
 89.0078125 -16 15.7587890625 79 45.55859375 248 c 2
 127.197265625 711 l 1
 159.197265625 711 l 1
 77.55859375 248 l 2
 51.28515625 99 114.650390625 16 254.650390625 16 c 0
 394.650390625 16 487.28515625 99 513.55859375 248 c 2
 595.197265625 711 l 1
 627.197265625 711 l 1
 545.55859375 248 l 2
 515.758789062 79 409.0078125 -16 249.0078125 -16 c 0
EndSplineSet
Validated: 524321
EndChar

StartChar: Utilde
Encoding: 360 360 114
Width: 662
GlyphClass: 2
Flags: HMW
HStem: -16 32<261 401 261 411> 691 20G<81 113 113 113 549 581 581 581> 810 24<378 399 378 407> 870 24<253 280>
VStem: 81 32<248 711> 192 26<805 805> 430 26<903 903> 549 32<248 711>
AnchorPoint: "Anchor-3" 377.991 710 basechar 0
AnchorPoint: "Anchor-2" 357.976 1 basechar 0
AnchorPoint: "Anchor-0" 252.799 0 basechar 0
LayerCount: 2
Fore
SplineSet
450.624023438 810 m 0
 422.624023438 810 407.563476562 821 392.266601562 842 c 0
 379.440429688 860 367.203125 870 343.203125 870 c 0
 313.203125 870 291.500976562 849 281.7421875 805 c 1
 255.7421875 805 l 1
 269.616210938 861 305.435546875 894 347.435546875 894 c 0
 379.435546875 894 396.790039062 879 413.087890625 858 c 0
 427.9140625 840 438.85546875 834 454.85546875 834 c 0
 480.85546875 834 498.206054688 853 511.022460938 903 c 1
 537.022460938 903 l 1
 522.794921875 845 492.624023438 810 450.624023438 810 c 0
249.977539062 -16 m 0
 89.9775390625 -16 16.728515625 79 46.5283203125 248 c 2
 128.166992188 711 l 1
 160.166992188 711 l 1
 78.5283203125 248 l 2
 52.2548828125 99 115.620117188 16 255.620117188 16 c 0
 395.620117188 16 488.254882812 99 514.528320312 248 c 2
 596.166992188 711 l 1
 628.166992188 711 l 1
 546.528320312 248 l 2
 516.728515625 79 409.977539062 -16 249.977539062 -16 c 0
EndSplineSet
Validated: 524321
EndChar

StartChar: V
Encoding: 86 86 115
Width: 642
GlyphClass: 2
Flags: HMW
HStem: 0 34<303 321 321 321 321 339> 690 20G<24 59 59 59 583 618 618 618>
VStem: 24 594<710 710>
AnchorPoint: "Anchor-3" 383.596 710 basechar 0
AnchorPoint: "Anchor-0" 258.404 0 basechar 0
LayerCount: 2
Fore
SplineSet
240.404296875 0 m 1
 86.595703125 710 l 1
 121.595703125 710 l 1
 264.399414062 34 l 1
 645.595703125 710 l 1
 680.595703125 710 l 1
 276.404296875 0 l 1
 240.404296875 0 l 1
EndSplineSet
Validated: 524289
EndChar

StartChar: W
Encoding: 87 87 116
Width: 914
GlyphClass: 2
Flags: HMW
HStem: 0 33<241 264 264 264 264 289> 676 34<457 457>
VStem: 42 830<710 710>
AnchorPoint: "Anchor-3" 519.596 710 basechar 0
AnchorPoint: "Anchor-0" 394.404 0 basechar 0
LayerCount: 2
Fore
SplineSet
178.404296875 0 m 1
 104.595703125 710 l 1
 137.595703125 710 l 1
 207.22265625 33 l 1
 497.595703125 710 l 1
 541.595703125 710 l 1
 593.22265625 33 l 1
 901.595703125 710 l 1
 934.595703125 710 l 1
 610.404296875 0 l 1
 562.404296875 0 l 1
 513.600585938 676 l 1
 226.404296875 0 l 1
 178.404296875 0 l 1
EndSplineSet
Validated: 524289
EndChar

StartChar: Wacute
Encoding: 7810 7810 117
Width: 914
GlyphClass: 2
Flags: HMW
HStem: 0 33<241 264 264 264 264 289> 676 34<457 457> 790 116<443 549 443 549>
VStem: 42 830<710 710>
AnchorPoint: "Anchor-3" 502.316 710 basechar 0
AnchorPoint: "Anchor-0" 377.124 0 basechar 0
LayerCount: 2
Fore
SplineSet
502.421875 790 m 1
 594.875976562 906 l 1
 628.875976562 906 l 1
 528.421875 790 l 1
 502.421875 790 l 1
161.124023438 0 m 1
 87.31640625 710 l 1
 120.31640625 710 l 1
 189.942382812 33 l 1
 480.31640625 710 l 1
 524.31640625 710 l 1
 575.942382812 33 l 1
 884.31640625 710 l 1
 917.31640625 710 l 1
 593.124023438 0 l 1
 545.124023438 0 l 1
 496.321289062 676 l 1
 209.124023438 0 l 1
 161.124023438 0 l 1
EndSplineSet
Validated: 524289
EndChar

StartChar: Wcircumflex
Encoding: 372 372 118
Width: 914
GlyphClass: 2
Flags: HMW
HStem: 0 33<241 264 264 264 264 289> 676 34<457 457> 889 25<458 458>
VStem: 42 830<710 710>
AnchorPoint: "Anchor-3" 501.61 710 basechar 0
AnchorPoint: "Anchor-0" 376.419 0 basechar 0
LayerCount: 2
Fore
SplineSet
417.716796875 790 m 1
 527.581054688 914 l 1
 549.581054688 914 l 1
 615.716796875 790 l 1
 587.716796875 790 l 1
 534.172851562 889 l 1
 445.716796875 790 l 1
 417.716796875 790 l 1
160.418945312 0 m 1
 86.6103515625 710 l 1
 119.610351562 710 l 1
 189.237304688 33 l 1
 479.610351562 710 l 1
 523.610351562 710 l 1
 575.237304688 33 l 1
 883.610351562 710 l 1
 916.610351562 710 l 1
 592.418945312 0 l 1
 544.418945312 0 l 1
 495.615234375 676 l 1
 208.418945312 0 l 1
 160.418945312 0 l 1
EndSplineSet
Validated: 524289
EndChar

StartChar: Wdieresis
Encoding: 7812 7812 119
Width: 914
GlyphClass: 2
Flags: HMW
HStem: 0 33<241 264 264 264 264 289> 676 34<457 457> 808 70<376 410 376 410 504 538>
VStem: 376 34<808 878 808 878> 504 34<808 878 808 878>
AnchorPoint: "Anchor-3" 504.784 710 basechar 0
AnchorPoint: "Anchor-0" 379.593 0 basechar 0
LayerCount: 2
Fore
SplineSet
441.064453125 808 m 1
 453.407226562 878 l 1
 487.407226562 878 l 1
 475.064453125 808 l 1
 441.064453125 808 l 1
569.064453125 808 m 1
 581.407226562 878 l 1
 615.407226562 878 l 1
 603.064453125 808 l 1
 569.064453125 808 l 1
163.592773438 0 m 1
 89.7841796875 710 l 1
 122.784179688 710 l 1
 192.411132812 33 l 1
 482.784179688 710 l 1
 526.784179688 710 l 1
 578.411132812 33 l 1
 886.784179688 710 l 1
 919.784179688 710 l 1
 595.592773438 0 l 1
 547.592773438 0 l 1
 498.7890625 676 l 1
 211.592773438 0 l 1
 163.592773438 0 l 1
EndSplineSet
Validated: 524289
Substitution2: "'ss08' Style Set 8 in Latin lookup 41 subtable" Wdieresis.ss08
Substitution2: "'aalt' Access All Alternates in Latin lookup 0 subtable" Wdieresis.ss08
EndChar

StartChar: Wgrave
Encoding: 7808 7808 120
Width: 914
GlyphClass: 2
Flags: HMW
HStem: 0 33<241 264 264 264 264 289> 676 34<457 457> 798 116<364 444 364 470>
VStem: 42 830<710 710>
AnchorPoint: "Anchor-3" 501.61 710 basechar 0
AnchorPoint: "Anchor-0" 376.419 0 basechar 0
LayerCount: 2
Fore
SplineSet
504.127929688 798 m 1
 444.581054688 914 l 1
 478.581054688 914 l 1
 530.127929688 798 l 1
 504.127929688 798 l 1
160.418945312 0 m 1
 86.6103515625 710 l 1
 119.610351562 710 l 1
 189.237304688 33 l 1
 479.610351562 710 l 1
 523.610351562 710 l 1
 575.237304688 33 l 1
 883.610351562 710 l 1
 916.610351562 710 l 1
 592.418945312 0 l 1
 544.418945312 0 l 1
 495.615234375 676 l 1
 208.418945312 0 l 1
 160.418945312 0 l 1
EndSplineSet
Validated: 524289
EndChar

StartChar: X
Encoding: 88 88 121
Width: 598
GlyphClass: 2
Flags: HMW
HStem: 0 21G<20 20 20 59 539 539 539 578> 690 20G<27 66 66 66 532 571 571 571>
VStem: 20 558<0 0>
AnchorPoint: "Anchor-3" 361.596 710 basechar 0
AnchorPoint: "Anchor-0" 236.404 0 basechar 0
LayerCount: 2
Fore
SplineSet
-42.595703125 0 m 1
 278.529296875 358 l 1
 89.595703125 710 l 1
 128.595703125 710 l 1
 302.760742188 382 l 1
 594.595703125 710 l 1
 633.595703125 710 l 1
 320.176757812 356 l 1
 515.404296875 0 l 1
 476.404296875 0 l 1
 295.944335938 332 l 1
 -3.595703125 0 l 1
 -42.595703125 0 l 1
EndSplineSet
Validated: 524289
EndChar

StartChar: Y
Encoding: 89 89 122
Width: 541
GlyphClass: 2
Flags: HMW
HStem: 0 21G<255 255 255 287> 690 20G<-2 36 36 36 505 543 543 543>
VStem: 255 32<0 290 0 290>
AnchorPoint: "Anchor-3" 333.596 710 basechar 0
AnchorPoint: "Anchor-0" 208.404 0 basechar 0
LayerCount: 2
Fore
SplineSet
192.404296875 0 m 1
 243.5390625 290 l 1
 60.595703125 710 l 1
 98.595703125 710 l 1
 264.828125 320 l 1
 567.595703125 710 l 1
 605.595703125 710 l 1
 275.5390625 290 l 1
 224.404296875 0 l 1
 192.404296875 0 l 1
EndSplineSet
Validated: 524289
EndChar

StartChar: Yacute
Encoding: 221 221 123
Width: 541
GlyphClass: 2
Flags: HMW
HStem: 0 21G<255 255 255 287> 690 20G<-2 36 36 36 505 543 543 543> 790 116<257 363 257 363>
VStem: 255 32<0 290 0 290>
AnchorPoint: "Anchor-3" 316.316 710 basechar 0
AnchorPoint: "Anchor-0" 191.124 0 basechar 0
LayerCount: 2
Fore
SplineSet
316.421875 790 m 1
 408.875976562 906 l 1
 442.875976562 906 l 1
 342.421875 790 l 1
 316.421875 790 l 1
175.124023438 0 m 1
 226.258789062 290 l 1
 43.31640625 710 l 1
 81.31640625 710 l 1
 247.548828125 320 l 1
 550.31640625 710 l 1
 588.31640625 710 l 1
 258.258789062 290 l 1
 207.124023438 0 l 1
 175.124023438 0 l 1
EndSplineSet
Validated: 524289
EndChar

StartChar: Ycircumflex
Encoding: 374 374 124
Width: 541
GlyphClass: 2
Flags: HMW
HStem: 0 21G<255 255 255 287> 690 20G<-2 36 36 36 505 543 543 543> 889 25<272 272>
VStem: 255 32<0 290 0 290>
AnchorPoint: "Anchor-3" 315.61 710 basechar 0
AnchorPoint: "Anchor-0" 190.419 0 basechar 0
LayerCount: 2
Fore
SplineSet
231.716796875 790 m 1
 341.581054688 914 l 1
 363.581054688 914 l 1
 429.716796875 790 l 1
 401.716796875 790 l 1
 348.172851562 889 l 1
 259.716796875 790 l 1
 231.716796875 790 l 1
174.418945312 0 m 1
 225.553710938 290 l 1
 42.6103515625 710 l 1
 80.6103515625 710 l 1
 246.842773438 320 l 1
 549.610351562 710 l 1
 587.610351562 710 l 1
 257.553710938 290 l 1
 206.418945312 0 l 1
 174.418945312 0 l 1
EndSplineSet
Validated: 524289
EndChar

StartChar: Ydieresis
Encoding: 376 376 125
Width: 541
GlyphClass: 2
Flags: HMW
HStem: 0 21G<255 255 255 287> 690 20G<-2 36 36 36 505 543 543 543> 808 70<190 224 190 224 318 352>
VStem: 190 34<808 878 808 878> 255 32<0 290 0 290> 318 34<808 878 808 878>
AnchorPoint: "Anchor-3" 318.784 710 basechar 0
AnchorPoint: "Anchor-0" 193.593 0 basechar 0
LayerCount: 2
Fore
SplineSet
255.064453125 808 m 1
 267.407226562 878 l 1
 301.407226562 878 l 1
 289.064453125 808 l 1
 255.064453125 808 l 1
383.064453125 808 m 1
 395.407226562 878 l 1
 429.407226562 878 l 1
 417.064453125 808 l 1
 383.064453125 808 l 1
177.592773438 0 m 1
 228.727539062 290 l 1
 45.7841796875 710 l 1
 83.7841796875 710 l 1
 250.016601562 320 l 1
 552.784179688 710 l 1
 590.784179688 710 l 1
 260.727539062 290 l 1
 209.592773438 0 l 1
 177.592773438 0 l 1
EndSplineSet
Validated: 524289
Substitution2: "'ss08' Style Set 8 in Latin lookup 41 subtable" Ydieresis.ss08
Substitution2: "'aalt' Access All Alternates in Latin lookup 0 subtable" Ydieresis.ss08
EndChar

StartChar: Ygrave
Encoding: 7922 7922 126
Width: 541
GlyphClass: 2
Flags: HMW
HStem: 0 21G<255 255 255 287> 690 20G<-2 36 36 36 505 543 543 543> 798 116<178 258 178 284>
VStem: 255 32<0 290 0 290>
AnchorPoint: "Anchor-3" 315.61 710 basechar 0
AnchorPoint: "Anchor-0" 190.419 0 basechar 0
LayerCount: 2
Fore
SplineSet
318.127929688 798 m 1
 258.581054688 914 l 1
 292.581054688 914 l 1
 344.127929688 798 l 1
 318.127929688 798 l 1
174.418945312 0 m 1
 225.553710938 290 l 1
 42.6103515625 710 l 1
 80.6103515625 710 l 1
 246.842773438 320 l 1
 549.610351562 710 l 1
 587.610351562 710 l 1
 257.553710938 290 l 1
 206.418945312 0 l 1
 174.418945312 0 l 1
EndSplineSet
Validated: 524289
EndChar

StartChar: uni1EF8
Encoding: 7928 7928 127
Width: 541
GlyphClass: 2
Flags: HMW
HStem: 0 21G<255 255 255 287> 690 20G<-2 36 36 36 505 543 543 543> 810 24<318 339 318 347> 870 24<193 220>
VStem: 132 26<805 805> 255 32<0 290 0 290> 370 26<903 903>
AnchorPoint: "Anchor-3" 316.58 710 basechar 0
AnchorPoint: "Anchor-0" 191.389 0 basechar 0
LayerCount: 2
Fore
SplineSet
389.212890625 810 m 0
 361.212890625 810 346.15234375 821 330.85546875 842 c 0
 318.029296875 860 305.79296875 870 281.79296875 870 c 0
 251.79296875 870 230.08984375 849 220.33203125 805 c 1
 194.33203125 805 l 1
 208.206054688 861 244.024414062 894 286.024414062 894 c 0
 318.024414062 894 335.379882812 879 351.676757812 858 c 0
 366.502929688 840 377.4453125 834 393.4453125 834 c 0
 419.4453125 834 436.794921875 853 449.611328125 903 c 1
 475.611328125 903 l 1
 461.384765625 845 431.212890625 810 389.212890625 810 c 0
175.388671875 0 m 1
 226.5234375 290 l 1
 43.580078125 710 l 1
 81.580078125 710 l 1
 247.813476562 320 l 1
 550.580078125 710 l 1
 588.580078125 710 l 1
 258.5234375 290 l 1
 207.388671875 0 l 1
 175.388671875 0 l 1
EndSplineSet
Validated: 524289
EndChar

StartChar: Z
Encoding: 90 90 128
Width: 523
GlyphClass: 2
Flags: HMW
HStem: 0 30<30 30 65 493> 680 30<43 448 43 483 43 483>
VStem: 30 35<0 30 30 30> 448 35<680 710>
AnchorPoint: "Anchor-3" 328.596 710 basechar 0
AnchorPoint: "Anchor-0" 203.404 0 basechar 0
LayerCount: 2
Fore
SplineSet
-32.595703125 0 m 1
 -27.306640625 30 l 1
 505.306640625 680 l 1
 100.306640625 680 l 1
 105.595703125 710 l 1
 545.595703125 710 l 1
 540.306640625 680 l 1
 7.693359375 30 l 1
 435.693359375 30 l 1
 430.404296875 0 l 1
 -32.595703125 0 l 1
EndSplineSet
Validated: 524289
EndChar

StartChar: Zacute
Encoding: 377 377 129
Width: 523
GlyphClass: 2
Flags: HMW
HStem: 0 30<30 30 65 493> 680 30<43 448 43 483 43 483> 790 116<252 358 252 358>
VStem: 30 35<0 30 30 30> 448 35<680 710>
AnchorPoint: "Anchor-3" 311.316 710 basechar 0
AnchorPoint: "Anchor-0" 186.124 0 basechar 0
LayerCount: 2
Fore
SplineSet
311.421875 790 m 1
 403.875976562 906 l 1
 437.875976562 906 l 1
 337.421875 790 l 1
 311.421875 790 l 1
-49.8759765625 0 m 1
 -44.5859375 30 l 1
 488.026367188 680 l 1
 83.0263671875 680 l 1
 88.31640625 710 l 1
 528.31640625 710 l 1
 523.026367188 680 l 1
 -9.5859375 30 l 1
 418.4140625 30 l 1
 413.124023438 0 l 1
 -49.8759765625 0 l 1
EndSplineSet
Validated: 524289
EndChar

StartChar: Zcaron
Encoding: 381 381 130
Width: 523
GlyphClass: 2
Flags: HMW
HStem: 0 30<30 30 65 493> 680 30<43 448 43 483 43 483> 790 25<266 266 266 277 255 266>
VStem: 30 35<0 30 30 30> 448 35<680 710>
AnchorPoint: "Anchor-3" 310.61 710 basechar 0
AnchorPoint: "Anchor-0" 185.419 0 basechar 0
LayerCount: 2
Fore
SplineSet
247.581054688 914 m 1
 275.581054688 914 l 1
 329.125 815 l 1
 417.581054688 914 l 1
 445.581054688 914 l 1
 335.716796875 790 l 1
 313.716796875 790 l 1
 247.581054688 914 l 1
-50.5810546875 0 m 1
 -45.2919921875 30 l 1
 487.321289062 680 l 1
 82.3212890625 680 l 1
 87.6103515625 710 l 1
 527.610351562 710 l 1
 522.321289062 680 l 1
 -10.2919921875 30 l 1
 417.708007812 30 l 1
 412.418945312 0 l 1
 -50.5810546875 0 l 1
EndSplineSet
Validated: 524289
EndChar

StartChar: Zdotaccent
Encoding: 379 379 131
Width: 523
GlyphClass: 2
Flags: HMW
HStem: 0 30<30 30 65 493> 680 30<43 448 43 483 43 483> 808 70<249 283 249 283>
VStem: 30 35<0 30 30 30> 249 34<808 878 808 878> 448 35<680 710>
AnchorPoint: "Anchor-3" 313.784 710 basechar 0
AnchorPoint: "Anchor-0" 188.593 0 basechar 0
LayerCount: 2
Fore
SplineSet
314.064453125 808 m 1
 326.407226562 878 l 1
 360.407226562 878 l 1
 348.064453125 808 l 1
 314.064453125 808 l 1
-47.4072265625 0 m 1
 -42.1181640625 30 l 1
 490.495117188 680 l 1
 85.4951171875 680 l 1
 90.7841796875 710 l 1
 530.784179688 710 l 1
 525.495117188 680 l 1
 -7.1181640625 30 l 1
 420.881835938 30 l 1
 415.592773438 0 l 1
 -47.4072265625 0 l 1
EndSplineSet
Validated: 524289
Substitution2: "'ss08' Style Set 8 in Latin lookup 41 subtable" Zdotaccent.ss08
Substitution2: "'aalt' Access All Alternates in Latin lookup 0 subtable" Zdotaccent.ss08
EndChar

StartChar: uniA78B
Encoding: 42891 42891 132
Width: 134
GlyphClass: 1
Flags: HMW
HStem: 690 20G<50 84 84 84>
VStem: 50 34<650 710 650 710>
LayerCount: 2
Fore
SplineSet
24.0244140625 370 m 1
 69.3955078125 650 l 1
 79.9755859375 710 l 1
 113.975585938 710 l 1
 103.395507812 650 l 1
 50.0244140625 370 l 1
 24.0244140625 370 l 1
EndSplineSet
Validated: 524289
EndChar

StartChar: uni013B.loclMAH
Encoding: 65538 -1 133
Width: 550
GlyphClass: 2
Flags: HMW
HStem: -94 48<278 302 278 328> 0 30<128 510 128 510> 690 20G<96 128 128 128>
VStem: 96 32<30 710 30 710 30 710> 278 50<-89 -46 -89 -46 -89 -46>
AnchorPoint: "Anchor-4" 385.757 530 basechar 0
AnchorPoint: "Anchor-3" 189.496 710 basechar 0
AnchorPoint: "Anchor-1" 159.308 380 basechar 0
AnchorPoint: "Anchor-0" 225.504 -169 basechar 0
LayerCount: 2
Fore
SplineSet
48.3037109375 0 m 1
 173.49609375 710 l 1
 205.49609375 710 l 1
 85.59375 30 l 1
 467.59375 30 l 1
 462.303710938 0 l 1
 48.3037109375 0 l 1
188.50390625 -169 m 1
 237.728515625 -94 l 1
 213.728515625 -94 l 1
 222.192382812 -46 l 1
 272.192382812 -46 l 1
 264.610351562 -89 l 1
 210.50390625 -169 l 1
 188.50390625 -169 l 1
EndSplineSet
Validated: 524289
EndChar

StartChar: uni0145.loclMAH
Encoding: 65539 -1 134
Width: 711
GlyphClass: 2
Flags: HMW
HStem: -94 48<331 355 331 381> 0 30<568 583 583 583 583 615> 680 30<128 128>
VStem: 96 32<0 680 0 710 0 710> 331 50<-89 -46 -89 -46 -89 -46> 583 32<30 710 0 710>
AnchorPoint: "Anchor-3" 433.496 710 basechar 0
AnchorPoint: "Anchor-0" 278.504 -169 basechar 0
LayerCount: 2
Fore
SplineSet
48.3037109375 0 m 1
 173.49609375 710 l 1
 220.49609375 710 l 1
 540.59375 30 l 1
 660.49609375 710 l 1
 692.49609375 710 l 1
 567.303710938 0 l 1
 520.303710938 0 l 1
 200.206054688 680 l 1
 80.3037109375 0 l 1
 48.3037109375 0 l 1
241.50390625 -169 m 1
 290.728515625 -94 l 1
 266.728515625 -94 l 1
 275.192382812 -46 l 1
 325.192382812 -46 l 1
 317.610351562 -89 l 1
 263.50390625 -169 l 1
 241.50390625 -169 l 1
EndSplineSet
Validated: 524289
EndChar

StartChar: R.ss04
Encoding: 65540 -1 135
Width: 628
GlyphClass: 2
Flags: HMW
HStem: 0 21G<96 96 96 128 539 539 539 573> 311 30<128 333 128 333> 680 30<128 333 128 128>
VStem: 96 32<0 311 341 680> 539 34<0 0 454 561>
AnchorPoint: "Anchor-3" 380.596 710 basechar 0
AnchorPoint: "Anchor-0" 255.404 0 basechar 0
LayerCount: 2
Fore
SplineSet
33.404296875 0 m 1
 158.595703125 710 l 1
 395.595703125 710 l 2
 542.595703125 710 621.666015625 631 599.44921875 505 c 0
 581.463867188 403 501.12109375 333 384.947265625 315 c 1
 510.404296875 0 l 1
 476.404296875 0 l 1
 352.41796875 312 l 1
 344.241210938 311 334.241210938 311 325.241210938 311 c 2
 120.241210938 311 l 1
 65.404296875 0 l 1
 33.404296875 0 l 1
125.53125 341 m 1
 330.53125 341 l 2
 462.53125 341 546.934570312 400 565.44921875 505 c 0
 585.197265625 617 522.306640625 680 390.306640625 680 c 2
 185.306640625 680 l 1
 125.53125 341 l 1
EndSplineSet
Validated: 524321
EndChar

StartChar: Racute.ss04
Encoding: 65541 -1 136
Width: 628
GlyphClass: 2
Flags: HMW
HStem: 0 21G<96 96 96 128 539 539 539 573> 311 30<128 333 128 333> 680 30<128 333 128 128> 790 116<304 410 304 410>
VStem: 96 32<0 311 341 680> 539 34<0 0 454 561>
AnchorPoint: "Anchor-3" 363.316 710 basechar 0
AnchorPoint: "Anchor-0" 238.124 0 basechar 0
LayerCount: 2
Fore
SplineSet
363.421875 790 m 1
 455.875976562 906 l 1
 489.875976562 906 l 1
 389.421875 790 l 1
 363.421875 790 l 1
16.1240234375 0 m 1
 141.31640625 710 l 1
 378.31640625 710 l 2
 525.31640625 710 604.385742188 631 582.168945312 505 c 0
 564.18359375 403 483.840820312 333 367.666992188 315 c 1
 493.124023438 0 l 1
 459.124023438 0 l 1
 335.137695312 312 l 1
 326.961914062 311 316.961914062 311 307.961914062 311 c 2
 102.961914062 311 l 1
 48.1240234375 0 l 1
 16.1240234375 0 l 1
108.250976562 341 m 1
 313.250976562 341 l 2
 445.250976562 341 529.654296875 400 548.168945312 505 c 0
 567.91796875 617 505.026367188 680 373.026367188 680 c 2
 168.026367188 680 l 1
 108.250976562 341 l 1
EndSplineSet
Validated: 524321
EndChar

StartChar: Rcaron.ss04
Encoding: 65542 -1 137
Width: 628
GlyphClass: 2
Flags: HMW
HStem: 0 21G<96 96 96 128 539 539 539 573> 311 30<128 333 128 333> 680 30<128 333 128 128> 790 25<318 318 318 329 307 318>
VStem: 96 32<0 311 341 680> 539 34<0 0 454 561>
AnchorPoint: "Anchor-3" 362.61 710 basechar 0
AnchorPoint: "Anchor-0" 237.419 0 basechar 0
LayerCount: 2
Fore
SplineSet
299.581054688 914 m 1
 327.581054688 914 l 1
 381.125 815 l 1
 469.581054688 914 l 1
 497.581054688 914 l 1
 387.716796875 790 l 1
 365.716796875 790 l 1
 299.581054688 914 l 1
15.4189453125 0 m 1
 140.610351562 710 l 1
 377.610351562 710 l 2
 524.610351562 710 603.680664062 631 581.463867188 505 c 0
 563.478515625 403 483.135742188 333 366.961914062 315 c 1
 492.418945312 0 l 1
 458.418945312 0 l 1
 334.432617188 312 l 1
 326.255859375 311 316.255859375 311 307.255859375 311 c 2
 102.255859375 311 l 1
 47.4189453125 0 l 1
 15.4189453125 0 l 1
107.545898438 341 m 1
 312.545898438 341 l 2
 444.545898438 341 528.94921875 400 547.463867188 505 c 0
 567.211914062 617 504.321289062 680 372.321289062 680 c 2
 167.321289062 680 l 1
 107.545898438 341 l 1
EndSplineSet
Validated: 524321
EndChar

StartChar: uni0156.ss04
Encoding: 65543 -1 138
Width: 628
GlyphClass: 2
Flags: HMW
HStem: -94 48<293 317 293 343> 0 21G<96 96 96 128 539 539 539 573> 311 30<128 333 128 333> 680 30<128 333 128 128>
VStem: 96 32<0 311 341 680> 293 50<-89 -46 -89 -46 -89 -46> 539 34<0 0 454 561>
AnchorPoint: "Anchor-3" 395.496 710 basechar 0
AnchorPoint: "Anchor-0" 240.504 -169 basechar 0
LayerCount: 2
Fore
SplineSet
48.3037109375 0 m 1
 173.49609375 710 l 1
 410.49609375 710 l 2
 557.49609375 710 636.565429688 631 614.348632812 505 c 0
 596.36328125 403 516.020507812 333 399.846679688 315 c 1
 525.303710938 0 l 1
 491.303710938 0 l 1
 367.317382812 312 l 1
 359.141601562 311 349.141601562 311 340.141601562 311 c 2
 135.141601562 311 l 1
 80.3037109375 0 l 1
 48.3037109375 0 l 1
140.430664062 341 m 1
 345.430664062 341 l 2
 477.430664062 341 561.833984375 400 580.348632812 505 c 0
 600.09765625 617 537.206054688 680 405.206054688 680 c 2
 200.206054688 680 l 1
 140.430664062 341 l 1
203.50390625 -169 m 1
 252.728515625 -94 l 1
 228.728515625 -94 l 1
 237.192382812 -46 l 1
 287.192382812 -46 l 1
 279.610351562 -89 l 1
 225.50390625 -169 l 1
 203.50390625 -169 l 1
EndSplineSet
Validated: 524321
EndChar

StartChar: I.ss05
Encoding: 65544 -1 139
Width: 320
GlyphClass: 2
Flags: HMW
HStem: 0 30<50 144 50 144 176 270> 680 30<56 144 56 264 176 176 176 264>
VStem: 144 32<30 680 30 680>
AnchorPoint: "Anchor-3" 222.596 710 basechar 0
AnchorPoint: "Anchor-2" 207.404 0 basechar 0
AnchorPoint: "Anchor-0" 97.4043 0 basechar 0
LayerCount: 2
Fore
SplineSet
-12.595703125 0 m 1
 -7.306640625 30 l 1
 86.693359375 30 l 1
 201.306640625 680 l 1
 113.306640625 680 l 1
 118.595703125 710 l 1
 326.595703125 710 l 1
 321.306640625 680 l 1
 233.306640625 680 l 1
 118.693359375 30 l 1
 212.693359375 30 l 1
 207.404296875 0 l 1
 -12.595703125 0 l 1
EndSplineSet
Validated: 524289
EndChar

StartChar: Iacute.ss05
Encoding: 65545 -1 140
Width: 320
GlyphClass: 2
Flags: HMW
HStem: 0 30<50 144 50 144 176 270> 680 30<56 144 56 264 176 176 176 264> 790 116<146 252 146 252>
VStem: 144 32<30 680 30 680>
AnchorPoint: "Anchor-3" 205.316 710 basechar 0
AnchorPoint: "Anchor-2" 190.124 0 basechar 0
AnchorPoint: "Anchor-0" 80.124 0 basechar 0
LayerCount: 2
Fore
SplineSet
205.421875 790 m 1
 297.875976562 906 l 1
 331.875976562 906 l 1
 231.421875 790 l 1
 205.421875 790 l 1
-29.8759765625 0 m 1
 -24.5859375 30 l 1
 69.4140625 30 l 1
 184.026367188 680 l 1
 96.0263671875 680 l 1
 101.31640625 710 l 1
 309.31640625 710 l 1
 304.026367188 680 l 1
 216.026367188 680 l 1
 101.4140625 30 l 1
 195.4140625 30 l 1
 190.124023438 0 l 1
 -29.8759765625 0 l 1
EndSplineSet
Validated: 524289
EndChar

StartChar: Icircumflex.ss05
Encoding: 65546 -1 141
Width: 320
GlyphClass: 2
Flags: HMW
HStem: 0 30<50 144 50 144 176 270> 680 30<56 144 56 264 176 176 176 264> 889 25<161 161>
VStem: 144 32<30 680 30 680>
AnchorPoint: "Anchor-3" 204.61 710 basechar 0
AnchorPoint: "Anchor-2" 189.419 0 basechar 0
AnchorPoint: "Anchor-0" 79.4189 0 basechar 0
LayerCount: 2
Fore
SplineSet
120.716796875 790 m 1
 230.581054688 914 l 1
 252.581054688 914 l 1
 318.716796875 790 l 1
 290.716796875 790 l 1
 237.172851562 889 l 1
 148.716796875 790 l 1
 120.716796875 790 l 1
-30.5810546875 0 m 1
 -25.2919921875 30 l 1
 68.7080078125 30 l 1
 183.321289062 680 l 1
 95.3212890625 680 l 1
 100.610351562 710 l 1
 308.610351562 710 l 1
 303.321289062 680 l 1
 215.321289062 680 l 1
 100.708007812 30 l 1
 194.708007812 30 l 1
 189.418945312 0 l 1
 -30.5810546875 0 l 1
EndSplineSet
Validated: 524289
EndChar

StartChar: Idieresis.ss05
Encoding: 65547 -1 142
Width: 320
GlyphClass: 2
Flags: HMW
HStem: 0 30<50 144 50 144 176 270> 680 30<56 144 56 264 176 176 176 264> 808 70<79 113 79 113 207 241>
VStem: 79 34<808 878 808 878> 144 32<30 680 30 680> 207 34<808 878 808 878>
AnchorPoint: "Anchor-3" 207.784 710 basechar 0
AnchorPoint: "Anchor-2" 192.593 0 basechar 0
AnchorPoint: "Anchor-0" 82.5928 0 basechar 0
LayerCount: 2
Fore
SplineSet
144.064453125 808 m 1
 156.407226562 878 l 1
 190.407226562 878 l 1
 178.064453125 808 l 1
 144.064453125 808 l 1
272.064453125 808 m 1
 284.407226562 878 l 1
 318.407226562 878 l 1
 306.064453125 808 l 1
 272.064453125 808 l 1
-27.4072265625 0 m 1
 -22.1181640625 30 l 1
 71.8818359375 30 l 1
 186.495117188 680 l 1
 98.4951171875 680 l 1
 103.784179688 710 l 1
 311.784179688 710 l 1
 306.495117188 680 l 1
 218.495117188 680 l 1
 103.881835938 30 l 1
 197.881835938 30 l 1
 192.592773438 0 l 1
 -27.4072265625 0 l 1
EndSplineSet
Validated: 524289
Substitution2: "'ss08' Style Set 8 in Latin lookup 41 subtable" Idieresis.ss05.ss08
Substitution2: "'aalt' Access All Alternates in Latin lookup 0 subtable" Idieresis.ss05.ss08
EndChar

StartChar: Idotaccent.ss05
Encoding: 65548 -1 143
Width: 320
GlyphClass: 2
Flags: HMW
HStem: 0 30<50 144 50 144 176 270> 680 30<56 144 56 264 176 176 176 264> 808 70<143 177 143 177>
VStem: 143 34<808 878 808 878> 144 32<30 680 30 680>
AnchorPoint: "Anchor-3" 207.784 710 basechar 0
AnchorPoint: "Anchor-2" 192.593 0 basechar 0
AnchorPoint: "Anchor-0" 82.5928 0 basechar 0
LayerCount: 2
Fore
SplineSet
208.064453125 808 m 1xf0
 220.407226562 878 l 1
 254.407226562 878 l 1
 242.064453125 808 l 1
 208.064453125 808 l 1xf0
-27.4072265625 0 m 1
 -22.1181640625 30 l 1
 71.8818359375 30 l 1
 186.495117188 680 l 1
 98.4951171875 680 l 1
 103.784179688 710 l 1
 311.784179688 710 l 1
 306.495117188 680 l 1
 218.495117188 680 l 1
 103.881835938 30 l 1xe8
 197.881835938 30 l 1
 192.592773438 0 l 1
 -27.4072265625 0 l 1
EndSplineSet
Validated: 524289
Substitution2: "'ss08' Style Set 8 in Latin lookup 41 subtable" Idotaccent.ss05.ss08
Substitution2: "'aalt' Access All Alternates in Latin lookup 0 subtable" Idotaccent.ss05.ss08
EndChar

StartChar: Igrave.ss05
Encoding: 65549 -1 144
Width: 320
GlyphClass: 2
Flags: HMW
HStem: 0 30<50 144 50 144 176 270> 680 30<56 144 56 264 176 176 176 264> 798 116<67 147 67 173>
VStem: 144 32<30 680 30 680>
AnchorPoint: "Anchor-3" 204.61 710 basechar 0
AnchorPoint: "Anchor-2" 189.419 0 basechar 0
AnchorPoint: "Anchor-0" 79.4189 0 basechar 0
LayerCount: 2
Fore
SplineSet
207.127929688 798 m 1
 147.581054688 914 l 1
 181.581054688 914 l 1
 233.127929688 798 l 1
 207.127929688 798 l 1
-30.5810546875 0 m 1
 -25.2919921875 30 l 1
 68.7080078125 30 l 1
 183.321289062 680 l 1
 95.3212890625 680 l 1
 100.610351562 710 l 1
 308.610351562 710 l 1
 303.321289062 680 l 1
 215.321289062 680 l 1
 100.708007812 30 l 1
 194.708007812 30 l 1
 189.418945312 0 l 1
 -30.5810546875 0 l 1
EndSplineSet
Validated: 524289
EndChar

StartChar: Imacron.ss05
Encoding: 65550 -1 145
Width: 320
GlyphClass: 2
Flags: HMW
HStem: 0 30<50 144 50 144 176 270> 680 30<56 144 56 264 176 176 176 264> 824 28<36 284 36 284>
VStem: 144 32<30 680 30 680>
AnchorPoint: "Anchor-3" 210.077 710 basechar 0
AnchorPoint: "Anchor-2" 194.885 0 basechar 0
AnchorPoint: "Anchor-0" 84.8848 0 basechar 0
LayerCount: 2
Fore
SplineSet
106.177734375 824 m 1
 111.115234375 852 l 1
 359.115234375 852 l 1
 354.177734375 824 l 1
 106.177734375 824 l 1
-25.115234375 0 m 1
 -19.8251953125 30 l 1
 74.1748046875 30 l 1
 188.787109375 680 l 1
 100.787109375 680 l 1
 106.077148438 710 l 1
 314.077148438 710 l 1
 308.787109375 680 l 1
 220.787109375 680 l 1
 106.174804688 30 l 1
 200.174804688 30 l 1
 194.884765625 0 l 1
 -25.115234375 0 l 1
EndSplineSet
Validated: 524289
EndChar

StartChar: Iogonek.ss05
Encoding: 65551 -1 146
Width: 320
GlyphClass: 2
Flags: HMW
HStem: -192 26<239 260 239 263> 0 30<50 144 50 144 176 245> 680 30<56 144 56 264 176 176 176 264>
VStem: 144 32<30 680 30 680> 180 30<-144.5 -116> 245 25<0 30>
AnchorPoint: "Anchor-3" 239.523 710 basechar 0
AnchorPoint: "Anchor-2" 224.331 0 basechar 0
AnchorPoint: "Anchor-0" 114.331 0 basechar 0
LayerCount: 2
Fore
SplineSet
4.3310546875 0 m 1
 9.62109375 30 l 1
 103.62109375 30 l 1
 218.233398438 680 l 1
 130.233398438 680 l 1
 135.5234375 710 l 1
 343.5234375 710 l 1
 338.233398438 680 l 1
 250.233398438 680 l 1
 135.62109375 30 l 1xf0
 229.62109375 30 l 1
 224.331054688 0 l 1
 191.278320312 -40 l 2
 165.98828125 -70 147.05078125 -98 141.409179688 -130 c 0
 136.294921875 -159 153.060546875 -166 175.060546875 -166 c 0
 195.060546875 -166 213.119140625 -160 226.706054688 -151 c 1
 236.827148438 -173 l 1
 216.7109375 -185 196.4765625 -192 170.4765625 -192 c 0
 132.4765625 -192 103.297851562 -176 111.055664062 -132 c 0
 116.698242188 -100 144.870117188 -65 177.747070312 -26 c 2
 199.331054688 0 l 1
 4.3310546875 0 l 1
EndSplineSet
Validated: 524321
EndChar

StartChar: Itilde.ss05
Encoding: 65552 -1 147
Width: 320
GlyphClass: 2
Flags: HMW
HStem: 0 30<50 144 50 144 176 270> 680 30<56 144 56 264 176 176 176 264> 810 24<207 228 207 236> 870 24<82 109>
VStem: 21 26<805 805> 144 32<30 680 30 680> 259 26<903 903>
AnchorPoint: "Anchor-3" 205.58 710 basechar 0
AnchorPoint: "Anchor-2" 190.389 0 basechar 0
AnchorPoint: "Anchor-0" 80.3887 0 basechar 0
LayerCount: 2
Fore
SplineSet
278.212890625 810 m 0
 250.212890625 810 235.15234375 821 219.85546875 842 c 0
 207.029296875 860 194.79296875 870 170.79296875 870 c 0
 140.79296875 870 119.08984375 849 109.33203125 805 c 1
 83.33203125 805 l 1
 97.2060546875 861 133.024414062 894 175.024414062 894 c 0
 207.024414062 894 224.379882812 879 240.676757812 858 c 0
 255.502929688 840 266.4453125 834 282.4453125 834 c 0
 308.4453125 834 325.794921875 853 338.611328125 903 c 1
 364.611328125 903 l 1
 350.384765625 845 320.212890625 810 278.212890625 810 c 0
-29.611328125 0 m 1
 -24.322265625 30 l 1
 69.677734375 30 l 1
 184.291015625 680 l 1
 96.291015625 680 l 1
 101.580078125 710 l 1
 309.580078125 710 l 1
 304.291015625 680 l 1
 216.291015625 680 l 1
 101.677734375 30 l 1
 195.677734375 30 l 1
 190.388671875 0 l 1
 -29.611328125 0 l 1
EndSplineSet
Validated: 524289
EndChar

StartChar: G.ss06
Encoding: 65553 -1 148
Width: 665
GlyphClass: 2
Flags: HMW
HStem: -16 32<262 421.5 262 431> 302 28<354 588 354 620> 694 32<271 415>
VStem: 50 34<250 464.5 250 473> 588 32<217 302>
AnchorPoint: "Anchor-3" 415.596 710 basechar 0
AnchorPoint: "Anchor-0" 287.404 0 basechar 0
LayerCount: 2
Fore
SplineSet
278.583007812 -16 m 0
 97.5830078125 -16 9.091796875 123 49.8232421875 354 c 0
 91.7890625 592 232.416992188 726 419.416992188 726 c 0
 556.416992188 726 638.077148438 639 640.216796875 481 c 1
 606.51171875 477 l 1
 605.374023438 618 535.774414062 694 413.774414062 694 c 0
 247.774414062 694 122.791992188 575 83.8232421875 354 c 0
 47.1474609375 146 120.225585938 16 284.225585938 16 c 0
 439.225585938 16 548.678710938 132 578.654296875 302 c 1
 344.654296875 302 l 1
 349.591796875 330 l 1
 615.591796875 330 l 1
 611.360351562 306 l 2
 577.504882812 114 452.583007812 -16 278.583007812 -16 c 0
EndSplineSet
Validated: 524321
EndChar

StartChar: Gbreve.ss06
Encoding: 65554 -1 149
Width: 665
GlyphClass: 2
Flags: HMW
HStem: -16 32<262 421.5 262 431> 302 28<354 588 354 620> 694 32<271 415> 798 28<327 379 327 388>
VStem: 50 34<250 464.5 250 473> 588 32<217 302>
AnchorPoint: "Anchor-3" 399.021 710 basechar 0
AnchorPoint: "Anchor-0" 270.829 0 basechar 0
LayerCount: 2
Fore
SplineSet
414.538085938 798 m 0
 344.538085938 798 308.649414062 844 310.9921875 914 c 1
 336.9921875 914 l 1
 334.764648438 856 367.475585938 826 419.475585938 826 c 0
 471.475585938 826 514.764648438 856 532.9921875 914 c 1
 558.9921875 914 l 1
 536.649414062 844 484.538085938 798 414.538085938 798 c 0
262.0078125 -16 m 0
 81.0078125 -16 -7.482421875 123 33.2490234375 354 c 0
 75.21484375 592 215.842773438 726 402.842773438 726 c 0
 539.842773438 726 621.501953125 639 623.642578125 481 c 1
 589.9375 477 l 1
 588.798828125 618 519.200195312 694 397.200195312 694 c 0
 231.200195312 694 106.216796875 575 67.2490234375 354 c 0
 30.5732421875 146 103.650390625 16 267.650390625 16 c 0
 422.650390625 16 532.104492188 132 562.080078125 302 c 1
 328.080078125 302 l 1
 333.016601562 330 l 1
 599.016601562 330 l 1
 594.78515625 306 l 2
 560.930664062 114 436.0078125 -16 262.0078125 -16 c 0
EndSplineSet
Validated: 524321
EndChar

StartChar: Gcircumflex.ss06
Encoding: 65555 -1 150
Width: 665
GlyphClass: 2
Flags: HMW
HStem: -16 32<262 421.5 262 431> 302 28<354 588 354 620> 694 32<271 415> 889 25<354 354>
VStem: 50 34<250 464.5 250 473> 588 32<217 302>
AnchorPoint: "Anchor-3" 399.021 710 basechar 0
AnchorPoint: "Anchor-0" 270.829 0 basechar 0
LayerCount: 2
Fore
SplineSet
315.127929688 790 m 1
 424.9921875 914 l 1
 446.9921875 914 l 1
 513.127929688 790 l 1
 485.127929688 790 l 1
 431.583984375 889 l 1
 343.127929688 790 l 1
 315.127929688 790 l 1
262.0078125 -16 m 0
 81.0078125 -16 -7.482421875 123 33.2490234375 354 c 0
 75.21484375 592 215.842773438 726 402.842773438 726 c 0
 539.842773438 726 621.501953125 639 623.642578125 481 c 1
 589.9375 477 l 1
 588.798828125 618 519.200195312 694 397.200195312 694 c 0
 231.200195312 694 106.216796875 575 67.2490234375 354 c 0
 30.5732421875 146 103.650390625 16 267.650390625 16 c 0
 422.650390625 16 532.104492188 132 562.080078125 302 c 1
 328.080078125 302 l 1
 333.016601562 330 l 1
 599.016601562 330 l 1
 594.78515625 306 l 2
 560.930664062 114 436.0078125 -16 262.0078125 -16 c 0
EndSplineSet
Validated: 524321
EndChar

StartChar: uni0122.ss06
Encoding: 65556 -1 151
Width: 665
GlyphClass: 2
Flags: HMW
HStem: -94 48<325 349 325 375> -16 32<262 421.5 262 431> 302 28<354 588 354 620> 694 32<271 415>
VStem: 50 34<250 464.5 250 473> 325 50<-89 -46 -89 -46 -89 -46> 588 32<217 302>
AnchorPoint: "Anchor-3" 429.085 710 basechar 0
AnchorPoint: "Anchor-0" 271.094 -169 basechar 0
LayerCount: 2
Fore
SplineSet
292.071289062 -16 m 0
 111.071289062 -16 22.5810546875 123 63.3125 354 c 0
 105.278320312 592 245.90625 726 432.90625 726 c 0
 569.90625 726 651.565429688 639 653.706054688 481 c 1
 620.000976562 477 l 1
 618.86328125 618 549.263671875 694 427.263671875 694 c 0
 261.263671875 694 136.28125 575 97.3125 354 c 0
 60.63671875 146 133.713867188 16 297.713867188 16 c 0
 452.713867188 16 562.16796875 132 592.143554688 302 c 1
 358.143554688 302 l 1
 363.081054688 330 l 1
 629.081054688 330 l 1
 624.848632812 306 l 2
 590.994140625 114 466.071289062 -16 292.071289062 -16 c 0
234.09375 -169 m 1
 283.318359375 -94 l 1
 259.318359375 -94 l 1
 267.782226562 -46 l 1
 317.782226562 -46 l 1xbe
 310.200195312 -89 l 1
 256.09375 -169 l 1
 234.09375 -169 l 1
EndSplineSet
Validated: 524321
EndChar

StartChar: Gdotaccent.ss06
Encoding: 65557 -1 152
Width: 665
GlyphClass: 2
Flags: HMW
HStem: -16 32<262 421.5 262 431> 302 28<354 588 354 620> 694 32<271 415> 808 70<336 370 336 370>
VStem: 50 34<250 464.5 250 473> 336 34<808 878 808 878> 588 32<217 302>
AnchorPoint: "Anchor-3" 402.195 710 basechar 0
AnchorPoint: "Anchor-0" 274.003 0 basechar 0
LayerCount: 2
Fore
SplineSet
402.475585938 808 m 1
 414.818359375 878 l 1
 448.818359375 878 l 1
 436.475585938 808 l 1
 402.475585938 808 l 1
265.181640625 -16 m 0
 84.181640625 -16 -4.30859375 123 36.4228515625 354 c 0
 78.388671875 592 219.016601562 726 406.016601562 726 c 0
 543.016601562 726 624.67578125 639 626.81640625 481 c 1
 593.111328125 477 l 1
 591.973632812 618 522.374023438 694 400.374023438 694 c 0
 234.374023438 694 109.390625 575 70.4228515625 354 c 0
 33.7470703125 146 106.82421875 16 270.82421875 16 c 0
 425.82421875 16 535.278320312 132 565.25390625 302 c 1
 331.25390625 302 l 1
 336.19140625 330 l 1
 602.19140625 330 l 1
 597.958984375 306 l 2
 564.104492188 114 439.181640625 -16 265.181640625 -16 c 0
EndSplineSet
Validated: 524321
Substitution2: "'ss08' Style Set 8 in Latin lookup 41 subtable" Gdotaccent.ss06.ss08
Substitution2: "'aalt' Access All Alternates in Latin lookup 0 subtable" Gdotaccent.ss06.ss08
EndChar

StartChar: uni1E20.ss06
Encoding: 65558 -1 153
Width: 665
GlyphClass: 2
Flags: HMW
HStem: -16 32<262 421.5 262 431> 302 28<354 588 354 620> 694 32<271 415> 824 28<229 477 229 477>
VStem: 50 34<250 464.5 250 473> 588 32<217 302>
AnchorPoint: "Anchor-3" 404.487 710 basechar 0
AnchorPoint: "Anchor-0" 276.295 0 basechar 0
LayerCount: 2
Fore
SplineSet
300.588867188 824 m 1
 305.526367188 852 l 1
 553.526367188 852 l 1
 548.588867188 824 l 1
 300.588867188 824 l 1
267.473632812 -16 m 0
 86.4736328125 -16 -2.0166015625 123 38.71484375 354 c 0
 80.6806640625 592 221.30859375 726 408.30859375 726 c 0
 545.30859375 726 626.96875 639 629.108398438 481 c 1
 595.403320312 477 l 1
 594.265625 618 524.666015625 694 402.666015625 694 c 0
 236.666015625 694 111.68359375 575 72.71484375 354 c 0
 36.0390625 146 109.116210938 16 273.116210938 16 c 0
 428.116210938 16 537.5703125 132 567.545898438 302 c 1
 333.545898438 302 l 1
 338.483398438 330 l 1
 604.483398438 330 l 1
 600.250976562 306 l 2
 566.396484375 114 441.473632812 -16 267.473632812 -16 c 0
EndSplineSet
Validated: 524321
EndChar

StartChar: Adieresis.ss08
Encoding: 65559 -1 154
Width: 612
GlyphClass: 2
Flags: HMW
HStem: 0 21G<24 24 24 57 555 555 555 588> 235 30<154 458 154 469 143 458> 678 32<306 306> 814 56<219 233 379 393>
VStem: 200 52<833 851> 360 52<833 851>
AnchorPoint: "Anchor-3" 354.49 710 basechar 0
AnchorPoint: "Anchor-2" 511.298 0 basechar 0
AnchorPoint: "Anchor-0" 229.298 0 basechar 0
LayerCount: 2
Fore
SplineSet
292.828125 814 m 0
 278.828125 814 268.590820312 824 271.764648438 842 c 0
 274.939453125 860 288.702148438 870 302.702148438 870 c 0
 316.702148438 870 326.939453125 860 323.764648438 842 c 0
 320.590820312 824 306.828125 814 292.828125 814 c 0
452.828125 814 m 0
 438.828125 814 428.590820312 824 431.764648438 842 c 0
 434.939453125 860 448.702148438 870 462.702148438 870 c 0
 476.702148438 870 486.939453125 860 483.764648438 842 c 0
 480.590820312 824 466.828125 814 452.828125 814 c 0
-52.7021484375 0 m 1
 335.490234375 710 l 1
 373.490234375 710 l 1
 511.297851562 0 l 1
 478.297851562 0 l 1
 433.734375 235 l 1
 107.734375 235 l 1
 -19.7021484375 0 l 1
 -52.7021484375 0 l 1
124.024414062 265 m 1
 428.024414062 265 l 1
 348.84765625 678 l 1
 124.024414062 265 l 1
EndSplineSet
Validated: 524321
EndChar

StartChar: Cdotaccent.ss08
Encoding: 65560 -1 155
Width: 676
GlyphClass: 2
Flags: HMW
HStem: -16 32<267 419 267 427> 694 32<267 416> 814 56<341 355>
VStem: 50 34<249 459 249 469> 322 52<833 851>
AnchorPoint: "Anchor-3" 397.9 710 basechar 0
AnchorPoint: "Anchor-0" 272.708 0 basechar 0
LayerCount: 2
Fore
SplineSet
416.23828125 814 m 0
 402.23828125 814 392.001953125 824 395.17578125 842 c 0
 398.349609375 860 412.11328125 870 426.11328125 870 c 0
 440.11328125 870 450.349609375 860 447.17578125 842 c 0
 444.001953125 824 430.23828125 814 416.23828125 814 c 0
269.88671875 -16 m 0
 87.88671875 -16 -3.4267578125 124 37.1279296875 354 c 0
 77.68359375 584 218.721679688 726 400.721679688 726 c 0
 554.721679688 726 632.44140625 628 634.345703125 480 c 1
 599.81640625 477 l 1
 601.091796875 609 531.079101562 694 395.079101562 694 c 0
 233.079101562 694 108.157226562 564 71.1279296875 354 c 0
 34.099609375 144 113.529296875 16 275.529296875 16 c 0
 417.529296875 16 521.870117188 103 565.614257812 249 c 1
 599.084960938 246 l 1
 546.51953125 84 427.88671875 -16 269.88671875 -16 c 0
EndSplineSet
Validated: 524321
EndChar

StartChar: Edieresis.ss08
Encoding: 65561 -1 156
Width: 573
GlyphClass: 2
Flags: HMW
HStem: 0 30<128 523 128 523> 339 30<128 503 128 503> 680 30<128 515 128 128> 814 56<219 233 379 393>
VStem: 96 32<30 339 369 680> 200 52<833 851> 360 52<833 851>
AnchorPoint: "Anchor-3" 354.49 710 basechar 0
AnchorPoint: "Anchor-2" 446.298 0 basechar 0
AnchorPoint: "Anchor-0" 229.298 0 basechar 0
LayerCount: 2
Fore
SplineSet
292.828125 814 m 0
 278.828125 814 268.590820312 824 271.764648438 842 c 0
 274.939453125 860 288.702148438 870 302.702148438 870 c 0
 316.702148438 870 326.939453125 860 323.764648438 842 c 0
 320.590820312 824 306.828125 814 292.828125 814 c 0
452.828125 814 m 0
 438.828125 814 428.590820312 824 431.764648438 842 c 0
 434.939453125 860 448.702148438 870 462.702148438 870 c 0
 476.702148438 870 486.939453125 860 483.764648438 842 c 0
 480.590820312 824 466.828125 814 452.828125 814 c 0
19.2978515625 0 m 1
 144.490234375 710 l 1
 563.490234375 710 l 1
 558.200195312 680 l 1
 171.200195312 680 l 1
 116.362304688 369 l 1
 491.362304688 369 l 1
 486.072265625 339 l 1
 111.072265625 339 l 1
 56.587890625 30 l 1
 451.587890625 30 l 1
 446.297851562 0 l 1
 19.2978515625 0 l 1
EndSplineSet
Validated: 524321
EndChar

StartChar: Edotaccent.ss08
Encoding: 65562 -1 157
Width: 573
GlyphClass: 2
Flags: HMW
HStem: 0 30<128 523 128 523> 339 30<128 503 128 503> 680 30<128 515 128 128> 814 56<299 313>
VStem: 96 32<30 339 369 680> 280 52<833 851>
AnchorPoint: "Anchor-3" 354.49 710 basechar 0
AnchorPoint: "Anchor-2" 446.298 0 basechar 0
AnchorPoint: "Anchor-0" 229.298 0 basechar 0
LayerCount: 2
Fore
SplineSet
372.828125 814 m 0
 358.828125 814 348.590820312 824 351.764648438 842 c 0
 354.939453125 860 368.702148438 870 382.702148438 870 c 0
 396.702148438 870 406.939453125 860 403.764648438 842 c 0
 400.590820312 824 386.828125 814 372.828125 814 c 0
19.2978515625 0 m 1
 144.490234375 710 l 1
 563.490234375 710 l 1
 558.200195312 680 l 1
 171.200195312 680 l 1
 116.362304688 369 l 1
 491.362304688 369 l 1
 486.072265625 339 l 1
 111.072265625 339 l 1
 56.587890625 30 l 1
 451.587890625 30 l 1
 446.297851562 0 l 1
 19.2978515625 0 l 1
EndSplineSet
Validated: 524321
EndChar

StartChar: Gdotaccent.ss08
Encoding: 65563 -1 158
Width: 675
GlyphClass: 2
Flags: HMW
HStem: -16 32<266 415> 0 21G<592 620 592 592> 302 28<354 588 354 620> 694 32<266 414> 814 56<345 359>
VStem: 50 34<250 458.5 250 468.5> 326 52<833 851> 588 32<302 302> 590.5 29.5
AnchorPoint: "Anchor-3" 401.9 710 basechar 0
AnchorPoint: "Anchor-0" 278.708 0 basechar 0
LayerCount: 2
Fore
SplineSet
420.23828125 814 m 0xbe80
 406.23828125 814 396.001953125 824 399.17578125 842 c 0
 402.349609375 860 416.11328125 870 430.11328125 870 c 0
 444.11328125 870 454.349609375 860 451.17578125 842 c 0
 448.001953125 824 434.23828125 814 420.23828125 814 c 0xbe80
267.88671875 -16 m 0
 86.88671875 -16 -2.8984375 127 37.1279296875 354 c 0
 77.5068359375 583 211.721679688 726 404.721679688 726 c 0
 542.721679688 726 625.734375 641 627.521484375 481 c 1
 593.81640625 477 l 1
 591.20703125 621 523.079101562 694 399.079101562 694 c 0
 227.079101562 694 107.98046875 563 71.1279296875 354 c 0
 34.4521484375 146 113.529296875 16 273.529296875 16 c 0xb5
 417.529296875 16 521.514648438 118 565.958984375 302 c 1
 331.958984375 302 l 1
 336.896484375 330 l 1
 602.896484375 330 l 1
 544.708007812 0 l 1x75
 516.708007812 0 l 1x7480
 544.565429688 175 l 1
 499.875 69 405.88671875 -16 267.88671875 -16 c 0
EndSplineSet
Validated: 524321
EndChar

StartChar: Idieresis.ss08
Encoding: 65564 -1 159
Width: 224
GlyphClass: 2
Flags: HMW
HStem: 0 21G<96 96 96 128> 690 20G<96 128 128 128> 814 56<25 39 185 199>
VStem: 6 52<833 851> 96 32<0 710 0 710> 166 52<833 851>
AnchorPoint: "Anchor-3" 160.49 710 basechar 0
AnchorPoint: "Anchor-2" 51.2979 0 basechar 0
AnchorPoint: "Anchor-0" 35.2979 0 basechar 0
LayerCount: 2
Fore
SplineSet
98.828125 814 m 0
 84.828125 814 74.5908203125 824 77.7646484375 842 c 0
 80.939453125 860 94.7021484375 870 108.702148438 870 c 0
 122.702148438 870 132.939453125 860 129.764648438 842 c 0
 126.590820312 824 112.828125 814 98.828125 814 c 0
258.828125 814 m 0
 244.828125 814 234.590820312 824 237.764648438 842 c 0
 240.939453125 860 254.702148438 870 268.702148438 870 c 0
 282.702148438 870 292.939453125 860 289.764648438 842 c 0
 286.590820312 824 272.828125 814 258.828125 814 c 0
19.2978515625 0 m 1
 144.490234375 710 l 1
 176.490234375 710 l 1
 51.2978515625 0 l 1
 19.2978515625 0 l 1
EndSplineSet
Validated: 524321
EndChar

StartChar: Idotaccent.ss08
Encoding: 65565 -1 160
Width: 224
GlyphClass: 2
Flags: HMW
HStem: 0 21G<96 96 96 128> 690 20G<96 128 128 128> 814 56<105 119>
VStem: 86 52<833 851> 96 32<0 710 0 710>
AnchorPoint: "Anchor-3" 160.49 710 basechar 0
AnchorPoint: "Anchor-2" 51.2979 0 basechar 0
AnchorPoint: "Anchor-0" 35.2979 0 basechar 0
LayerCount: 2
Fore
SplineSet
178.828125 814 m 0xf0
 164.828125 814 154.590820312 824 157.764648438 842 c 0
 160.939453125 860 174.702148438 870 188.702148438 870 c 0
 202.702148438 870 212.939453125 860 209.764648438 842 c 0
 206.590820312 824 192.828125 814 178.828125 814 c 0xf0
19.2978515625 0 m 1xe8
 144.490234375 710 l 1
 176.490234375 710 l 1
 51.2978515625 0 l 1
 19.2978515625 0 l 1xe8
EndSplineSet
Validated: 524321
EndChar

StartChar: Odieresis.ss08
Encoding: 65566 -1 161
Width: 714
GlyphClass: 2
Flags: HMW
HStem: -16 32<272.5 441.5 272.5 452> 694 32<272.5 441.5> 814 56<270 284 430 444>
VStem: 50 34<250 458.5 250 468.5> 251 52<833 851> 411 52<833 851> 630 34<250 458.5>
AnchorPoint: "Anchor-3" 406.9 710 basechar 0
AnchorPoint: "Anchor-1" 344.305 355 basechar 0
AnchorPoint: "Anchor-0" 281.708 0 basechar 0
LayerCount: 2
Fore
SplineSet
345.23828125 814 m 0
 331.23828125 814 321.001953125 824 324.17578125 842 c 0
 327.349609375 860 341.11328125 870 355.11328125 870 c 0
 369.11328125 870 379.349609375 860 376.17578125 842 c 0
 373.001953125 824 359.23828125 814 345.23828125 814 c 0
505.23828125 814 m 0
 491.23828125 814 481.001953125 824 484.17578125 842 c 0
 487.349609375 860 501.11328125 870 515.11328125 870 c 0
 529.11328125 870 539.349609375 860 536.17578125 842 c 0
 533.001953125 824 519.23828125 814 505.23828125 814 c 0
278.88671875 -16 m 0
 88.88671875 -16 -2.8984375 127 37.1279296875 354 c 0
 77.5068359375 583 219.721679688 726 409.721679688 726 c 0
 599.721679688 726 691.506835938 583 651.127929688 354 c 0
 611.1015625 127 468.88671875 -16 278.88671875 -16 c 0
284.529296875 16 m 0
 453.529296875 16 580.452148438 146 617.127929688 354 c 0
 653.98046875 563 573.079101562 694 404.079101562 694 c 0
 235.079101562 694 107.98046875 563 71.1279296875 354 c 0
 34.4521484375 146 115.529296875 16 284.529296875 16 c 0
EndSplineSet
Validated: 524321
EndChar

StartChar: Udieresis.ss08
Encoding: 65567 -1 162
Width: 662
GlyphClass: 2
Flags: HMW
HStem: -16 32<261 401 261 411> 691 20G<81 113 113 113 549 581 581 581> 814 56<244 258 404 418>
VStem: 81 32<248 711> 225 52<833 851> 385 52<833 851> 549 32<248 711>
AnchorPoint: "Anchor-3" 380.9 710 basechar 0
AnchorPoint: "Anchor-2" 360.885 1 basechar 0
AnchorPoint: "Anchor-0" 255.708 0 basechar 0
LayerCount: 2
Fore
SplineSet
319.23828125 814 m 0
 305.23828125 814 295.001953125 824 298.17578125 842 c 0
 301.349609375 860 315.11328125 870 329.11328125 870 c 0
 343.11328125 870 353.349609375 860 350.17578125 842 c 0
 347.001953125 824 333.23828125 814 319.23828125 814 c 0
479.23828125 814 m 0
 465.23828125 814 455.001953125 824 458.17578125 842 c 0
 461.349609375 860 475.11328125 870 489.11328125 870 c 0
 503.11328125 870 513.349609375 860 510.17578125 842 c 0
 507.001953125 824 493.23828125 814 479.23828125 814 c 0
252.88671875 -16 m 0
 92.88671875 -16 19.638671875 79 49.4375 248 c 2
 131.077148438 711 l 1
 163.077148438 711 l 1
 81.4375 248 l 2
 55.1650390625 99 118.529296875 16 258.529296875 16 c 0
 398.529296875 16 491.165039062 99 517.4375 248 c 2
 599.077148438 711 l 1
 631.077148438 711 l 1
 549.4375 248 l 2
 519.638671875 79 412.88671875 -16 252.88671875 -16 c 0
EndSplineSet
Validated: 524321
EndChar

StartChar: Wdieresis.ss08
Encoding: 65568 -1 163
Width: 914
GlyphClass: 2
Flags: HMW
HStem: 0 33<241 264 264 264 264 289> 676 34<457 457> 814 56<370 384 530 544>
VStem: 351 52<833 851> 511 52<833 851>
AnchorPoint: "Anchor-3" 505.49 710 basechar 0
AnchorPoint: "Anchor-0" 380.298 0 basechar 0
LayerCount: 2
Fore
SplineSet
443.828125 814 m 0
 429.828125 814 419.590820312 824 422.764648438 842 c 0
 425.939453125 860 439.702148438 870 453.702148438 870 c 0
 467.702148438 870 477.939453125 860 474.764648438 842 c 0
 471.590820312 824 457.828125 814 443.828125 814 c 0
603.828125 814 m 0
 589.828125 814 579.590820312 824 582.764648438 842 c 0
 585.939453125 860 599.702148438 870 613.702148438 870 c 0
 627.702148438 870 637.939453125 860 634.764648438 842 c 0
 631.590820312 824 617.828125 814 603.828125 814 c 0
164.297851562 0 m 1
 90.490234375 710 l 1
 123.490234375 710 l 1
 193.116210938 33 l 1
 483.490234375 710 l 1
 527.490234375 710 l 1
 579.116210938 33 l 1
 887.490234375 710 l 1
 920.490234375 710 l 1
 596.297851562 0 l 1
 548.297851562 0 l 1
 499.495117188 676 l 1
 212.297851562 0 l 1
 164.297851562 0 l 1
EndSplineSet
Validated: 524321
EndChar

StartChar: Ydieresis.ss08
Encoding: 65569 -1 164
Width: 541
GlyphClass: 2
Flags: HMW
HStem: 0 21G<255 255 255 287> 690 20G<-2 36 36 36 505 543 543 543> 814 56<184 198 344 358>
VStem: 165 52<833 851> 255 32<0 290 0 290> 325 52<833 851>
AnchorPoint: "Anchor-3" 319.49 710 basechar 0
AnchorPoint: "Anchor-0" 194.298 0 basechar 0
LayerCount: 2
Fore
SplineSet
257.828125 814 m 0
 243.828125 814 233.590820312 824 236.764648438 842 c 0
 239.939453125 860 253.702148438 870 267.702148438 870 c 0
 281.702148438 870 291.939453125 860 288.764648438 842 c 0
 285.590820312 824 271.828125 814 257.828125 814 c 0
417.828125 814 m 0
 403.828125 814 393.590820312 824 396.764648438 842 c 0
 399.939453125 860 413.702148438 870 427.702148438 870 c 0
 441.702148438 870 451.939453125 860 448.764648438 842 c 0
 445.590820312 824 431.828125 814 417.828125 814 c 0
178.297851562 0 m 1
 229.432617188 290 l 1
 46.490234375 710 l 1
 84.490234375 710 l 1
 250.72265625 320 l 1
 553.490234375 710 l 1
 591.490234375 710 l 1
 261.432617188 290 l 1
 210.297851562 0 l 1
 178.297851562 0 l 1
EndSplineSet
Validated: 524321
EndChar

StartChar: Zdotaccent.ss08
Encoding: 65570 -1 165
Width: 523
GlyphClass: 2
Flags: HMW
HStem: 0 30<30 30 65 493> 680 30<43 448 43 483 43 483> 814 56<259 273>
VStem: 30 35<0 30 30 30> 240 52<833 851> 448 35<680 710>
AnchorPoint: "Anchor-3" 314.49 710 basechar 0
AnchorPoint: "Anchor-0" 189.298 0 basechar 0
LayerCount: 2
Fore
SplineSet
332.828125 814 m 0
 318.828125 814 308.590820312 824 311.764648438 842 c 0
 314.939453125 860 328.702148438 870 342.702148438 870 c 0
 356.702148438 870 366.939453125 860 363.764648438 842 c 0
 360.590820312 824 346.828125 814 332.828125 814 c 0
-46.7021484375 0 m 1
 -41.412109375 30 l 1
 491.200195312 680 l 1
 86.2001953125 680 l 1
 91.490234375 710 l 1
 531.490234375 710 l 1
 526.200195312 680 l 1
 -6.412109375 30 l 1
 421.587890625 30 l 1
 416.297851562 0 l 1
 -46.7021484375 0 l 1
EndSplineSet
Validated: 524321
EndChar

StartChar: Idieresis.ss05.ss08
Encoding: 65571 -1 166
Width: 320
GlyphClass: 2
Flags: HMW
HStem: 0 30<50 144 50 144 176 270> 680 30<56 144 56 264 176 176 176 264> 814 56<73 87 233 247>
VStem: 54 52<833 851> 144 32<30 680 30 680> 214 52<833 851>
AnchorPoint: "Anchor-3" 208.49 710 basechar 0
AnchorPoint: "Anchor-2" 193.298 0 basechar 0
AnchorPoint: "Anchor-0" 83.2979 0 basechar 0
LayerCount: 2
Fore
SplineSet
146.828125 814 m 0
 132.828125 814 122.590820312 824 125.764648438 842 c 0
 128.939453125 860 142.702148438 870 156.702148438 870 c 0
 170.702148438 870 180.939453125 860 177.764648438 842 c 0
 174.590820312 824 160.828125 814 146.828125 814 c 0
306.828125 814 m 0
 292.828125 814 282.590820312 824 285.764648438 842 c 0
 288.939453125 860 302.702148438 870 316.702148438 870 c 0
 330.702148438 870 340.939453125 860 337.764648438 842 c 0
 334.590820312 824 320.828125 814 306.828125 814 c 0
-26.7021484375 0 m 1
 -21.412109375 30 l 1
 72.587890625 30 l 1
 187.200195312 680 l 1
 99.2001953125 680 l 1
 104.490234375 710 l 1
 312.490234375 710 l 1
 307.200195312 680 l 1
 219.200195312 680 l 1
 104.587890625 30 l 1
 198.587890625 30 l 1
 193.297851562 0 l 1
 -26.7021484375 0 l 1
EndSplineSet
Validated: 524321
EndChar

StartChar: Idotaccent.ss05.ss08
Encoding: 65572 -1 167
Width: 320
GlyphClass: 2
Flags: HMW
HStem: 0 30<50 144 50 144 176 270> 680 30<56 144 56 264 176 176 176 264> 814 56<153 167>
VStem: 134 52<833 851> 144 32<30 680 30 680>
AnchorPoint: "Anchor-3" 208.49 710 basechar 0
AnchorPoint: "Anchor-2" 193.298 0 basechar 0
AnchorPoint: "Anchor-0" 83.2979 0 basechar 0
LayerCount: 2
Fore
SplineSet
226.828125 814 m 0xf0
 212.828125 814 202.590820312 824 205.764648438 842 c 0
 208.939453125 860 222.702148438 870 236.702148438 870 c 0
 250.702148438 870 260.939453125 860 257.764648438 842 c 0
 254.590820312 824 240.828125 814 226.828125 814 c 0xf0
-26.7021484375 0 m 1
 -21.412109375 30 l 1
 72.587890625 30 l 1
 187.200195312 680 l 1
 99.2001953125 680 l 1
 104.490234375 710 l 1
 312.490234375 710 l 1
 307.200195312 680 l 1
 219.200195312 680 l 1
 104.587890625 30 l 1xc8
 198.587890625 30 l 1
 193.297851562 0 l 1
 -26.7021484375 0 l 1
EndSplineSet
Validated: 524321
EndChar

StartChar: Gdotaccent.ss06.ss08
Encoding: 65573 -1 168
Width: 665
GlyphClass: 2
Flags: HMW
HStem: -16 32<262 421.5 262 431> 302 28<354 588 354 620> 694 32<271 415> 814 56<346 360>
VStem: 50 34<250 464.5 250 473> 327 52<833 851> 588 32<217 302>
AnchorPoint: "Anchor-3" 402.9 710 basechar 0
AnchorPoint: "Anchor-0" 274.708 0 basechar 0
LayerCount: 2
Fore
SplineSet
421.23828125 814 m 0
 407.23828125 814 397.001953125 824 400.17578125 842 c 0
 403.349609375 860 417.11328125 870 431.11328125 870 c 0
 445.11328125 870 455.349609375 860 452.17578125 842 c 0
 449.001953125 824 435.23828125 814 421.23828125 814 c 0
265.88671875 -16 m 0
 84.88671875 -16 -3.603515625 123 37.1279296875 354 c 0
 79.09375 592 219.721679688 726 406.721679688 726 c 0
 543.721679688 726 625.380859375 639 627.521484375 481 c 1
 593.81640625 477 l 1
 592.678710938 618 523.079101562 694 401.079101562 694 c 0
 235.079101562 694 110.096679688 575 71.1279296875 354 c 0
 34.4521484375 146 107.529296875 16 271.529296875 16 c 0
 426.529296875 16 535.983398438 132 565.958984375 302 c 1
 331.958984375 302 l 1
 336.896484375 330 l 1
 602.896484375 330 l 1
 598.6640625 306 l 2
 564.809570312 114 439.88671875 -16 265.88671875 -16 c 0
EndSplineSet
Validated: 524321
EndChar

StartChar: A_I.dlig
Encoding: 65574 -1 169
Width: 932
GlyphClass: 3
Flags: HMW
HStem: 0 30<662 756 788 882 662 756> 235 30<154 458 154 469 143 458> 680 30<668 756 788 788 788 876>
VStem: 756 32<30 680 30 680>
AnchorPoint: "Anchor-8" 368.596 710 baselig 0
AnchorPoint: "Anchor-7" 525.404 0 baselig 0
AnchorPoint: "Anchor-5" 243.404 0 baselig 0
AnchorPoint: "Anchor-8" 834.596 710 baselig 1
AnchorPoint: "Anchor-5" 709.404 0 baselig 1
AnchorPoint: "Anchor-7" 819.404 0 baselig 1
LayerCount: 2
Fore
SplineSet
-38.595703125 0 m 1
 349.595703125 710 l 1
 387.595703125 710 l 1
 525.404296875 0 l 1
 492.404296875 0 l 1
 447.840820312 235 l 1
 121.840820312 235 l 1
 -5.595703125 0 l 1
 -38.595703125 0 l 1
599.404296875 0 m 1
 604.693359375 30 l 1
 698.693359375 30 l 1
 813.306640625 680 l 1
 725.306640625 680 l 1
 730.595703125 710 l 1
 938.595703125 710 l 1
 933.306640625 680 l 1
 845.306640625 680 l 1
 730.693359375 30 l 1
 824.693359375 30 l 1
 819.404296875 0 l 1
 599.404296875 0 l 1
138.130859375 265 m 1
 442.130859375 265 l 1
 362.954101562 678 l 1
 138.130859375 265 l 1
EndSplineSet
Validated: 524289
Ligature2: "'dlig' Discretionary Ligatures in Latin lookup 32 subtable" A I
EndChar

StartChar: U_I.dlig
Encoding: 65575 -1 170
Width: 982
GlyphClass: 3
Flags: HMW
HStem: -16 32<261 401 261 411> 0 30<712 806 712 806 838 932> 680 30<718 806 718 926 838 838 838 926>
VStem: 81 32<248 711> 549 32<248 711> 806 32<30 680 30 680>
AnchorPoint: "Anchor-8" 394.919 710 baselig 0
AnchorPoint: "Anchor-7" 374.902 1 baselig 0
AnchorPoint: "Anchor-5" 269.727 0 baselig 0
AnchorPoint: "Anchor-8" 885.919 710 baselig 1
AnchorPoint: "Anchor-5" 760.727 0 baselig 1
AnchorPoint: "Anchor-7" 870.727 0 baselig 1
LayerCount: 2
Fore
SplineSet
266.905273438 -16 m 0xbc
 106.905273438 -16 33.65625 79 63.455078125 248 c 2
 145.094726562 711 l 1
 177.094726562 711 l 1
 95.455078125 248 l 2
 69.1826171875 99 132.547851562 16 272.547851562 16 c 0
 412.547851562 16 505.182617188 99 531.455078125 248 c 2
 613.094726562 711 l 1
 645.094726562 711 l 1
 563.455078125 248 l 2
 533.65625 79 426.905273438 -16 266.905273438 -16 c 0xbc
650.7265625 0 m 1x7c
 656.016601562 30 l 1
 750.016601562 30 l 1
 864.62890625 680 l 1
 776.62890625 680 l 1
 781.918945312 710 l 1
 989.918945312 710 l 1
 984.62890625 680 l 1
 896.62890625 680 l 1
 782.016601562 30 l 1
 876.016601562 30 l 1
 870.7265625 0 l 1
 650.7265625 0 l 1x7c
EndSplineSet
Validated: 524321
Ligature2: "'dlig' Discretionary Ligatures in Latin lookup 32 subtable" U I
EndChar

StartChar: a
Encoding: 97 97 171
Width: 539
GlyphClass: 2
Flags: HMW
HStem: -12 30<177 268.5> -1 31<473.5 510> 512 30<215 318>
VStem: 50 32<95 164 95 170> 422 32 424 30<204 287 287 287 316 326>
AnchorPoint: "Anchor-3" 310.727 530 basechar 0
AnchorPoint: "Anchor-2" 463.273 0 basechar 0
AnchorPoint: "Anchor-0" 217.273 0 basechar 0
LayerCount: 2
Fore
SplineSet
171.157226562 -12 m 0xb8
 69.1572265625 -12 11.03125 44 26.1962890625 130 c 0
 40.3017578125 210 115.765625 258 212.939453125 276 c 2
 432.993164062 316 l 1xb4
 457.326171875 454 415.552734375 512 307.552734375 512 c 0
 209.552734375 512 141.560546875 461 110.514648438 370 c 1
 78.04296875 373 l 1
 115.086914062 481 197.842773438 542 312.842773438 542 c 0
 434.842773438 542 490.5 472 464.755859375 326 c 2
 424.90625 100 l 2
 414.85546875 43 428.563476562 30 462.563476562 30 c 2
 468.563476562 30 l 1
 463.2734375 0 l 1
 457.096679688 -1 453.096679688 -1 448.096679688 -1 c 0x78
 405.096679688 -1 381.447265625 18 394.31640625 108 c 1
 352.85546875 43 268.157226562 -12 171.157226562 -12 c 0xb8
178.447265625 18 m 0
 294.447265625 18 394.553710938 98 413.244140625 204 c 2
 427.87890625 287 l 1
 217.001953125 248 l 2
 130.181640625 232 69.8330078125 196 58.548828125 132 c 0
 45.5 58 88.447265625 18 178.447265625 18 c 0
EndSplineSet
Validated: 524321
Substitution2: "'ss02' Style Set 2 in Latin lookup 35 subtable" a.ss02
Substitution2: "'ss01' Style Set 1 in Latin lookup 34 subtable" a.ss01
Substitution2: "Single Substitution lookup 27 subtable" ordfeminine
AlternateSubs2: "'aalt' Access All Alternates in Latin lookup 1 subtable" ordfeminine a.ss01 a.ss02
EndChar

StartChar: aacute
Encoding: 225 225 172
Width: 539
GlyphClass: 2
Flags: HMW
HStem: -12 30<177 268.5> -1 31<473.5 510> 512 30<215 318> 610 116<250 356 250 356> 706 20G<322 356 356 356>
VStem: 50 32<95 164 95 170> 422 32 424 30<204 287 287 287 316 326>
AnchorPoint: "Anchor-3" 294.505 530 basechar 0
AnchorPoint: "Anchor-2" 447.051 0 basechar 0
AnchorPoint: "Anchor-0" 201.051 0 basechar 0
LayerCount: 2
Fore
SplineSet
294.610351562 610 m 1xb6
 387.064453125 726 l 1
 421.064453125 726 l 1
 320.610351562 610 l 1
 294.610351562 610 l 1xb6
154.935546875 -12 m 0
 52.935546875 -12 -5.1904296875 44 9.9736328125 130 c 0
 24.080078125 210 99.5439453125 258 196.717773438 276 c 2
 416.770507812 316 l 1xad
 441.103515625 454 399.331054688 512 291.331054688 512 c 0
 193.331054688 512 125.337890625 461 94.2919921875 370 c 1
 61.8212890625 373 l 1
 98.8642578125 481 181.620117188 542 296.620117188 542 c 0
 418.620117188 542 474.27734375 472 448.534179688 326 c 2
 408.68359375 100 l 2
 398.633789062 43 412.340820312 30 446.340820312 30 c 2
 452.340820312 30 l 1
 447.05078125 0 l 1
 440.875 -1 436.875 -1 431.875 -1 c 0x6e
 388.875 -1 365.225585938 18 378.094726562 108 c 1
 336.633789062 43 251.935546875 -12 154.935546875 -12 c 0
162.225585938 18 m 0
 278.225585938 18 378.331054688 98 397.021484375 204 c 2
 411.657226562 287 l 1
 200.780273438 248 l 2
 113.958984375 232 53.611328125 196 42.326171875 132 c 0
 29.2783203125 58 72.2255859375 18 162.225585938 18 c 0
EndSplineSet
Validated: 524321
Substitution2: "'ss02' Style Set 2 in Latin lookup 35 subtable" aacute.ss02
Substitution2: "'ss01' Style Set 1 in Latin lookup 34 subtable" aacute.ss01
AlternateSubs2: "'aalt' Access All Alternates in Latin lookup 1 subtable" aacute.ss01 aacute.ss02
EndChar

StartChar: abreve
Encoding: 259 259 173
Width: 539
GlyphClass: 2
Flags: HMW
HStem: -12 30<177 268.5> -1 31<473.5 510> 512 30<215 318> 618 28<238 290 238 299>
VStem: 50 32<95 164 95 170> 422 32 424 30<204 287 287 287 316 326>
AnchorPoint: "Anchor-3" 293.799 530 basechar 0
AnchorPoint: "Anchor-2" 446.346 0 basechar 0
AnchorPoint: "Anchor-0" 200.346 0 basechar 0
LayerCount: 2
Fore
SplineSet
309.31640625 618 m 0xbc
 239.31640625 618 203.426757812 664 205.76953125 734 c 1
 231.76953125 734 l 1
 229.54296875 676 262.252929688 646 314.252929688 646 c 0
 366.252929688 646 409.54296875 676 427.76953125 734 c 1
 453.76953125 734 l 1
 431.426757812 664 379.31640625 618 309.31640625 618 c 0xbc
154.23046875 -12 m 0
 52.23046875 -12 -5.8955078125 44 9.2685546875 130 c 0
 23.375 210 98.837890625 258 196.01171875 276 c 2
 416.065429688 316 l 1xba
 440.3984375 454 398.625 512 290.625 512 c 0
 192.625 512 124.6328125 461 93.5869140625 370 c 1
 61.1162109375 373 l 1
 98.1591796875 481 180.915039062 542 295.915039062 542 c 0
 417.915039062 542 473.572265625 472 447.828125 326 c 2
 407.978515625 100 l 2
 397.927734375 43 411.635742188 30 445.635742188 30 c 2
 451.635742188 30 l 1
 446.345703125 0 l 1
 440.169921875 -1 436.169921875 -1 431.169921875 -1 c 0x7c
 388.169921875 -1 364.51953125 18 377.389648438 108 c 1
 335.927734375 43 251.23046875 -12 154.23046875 -12 c 0
161.51953125 18 m 0
 277.51953125 18 377.625976562 98 396.31640625 204 c 2
 410.952148438 287 l 1
 200.075195312 248 l 2
 113.25390625 232 52.90625 196 41.62109375 132 c 0
 28.5732421875 58 71.51953125 18 161.51953125 18 c 0
EndSplineSet
Validated: 524321
Substitution2: "'ss02' Style Set 2 in Latin lookup 35 subtable" abreve.ss02
Substitution2: "'ss01' Style Set 1 in Latin lookup 34 subtable" abreve.ss01
AlternateSubs2: "'aalt' Access All Alternates in Latin lookup 1 subtable" abreve.ss01 abreve.ss02
EndChar

StartChar: uni01CE
Encoding: 462 462 174
Width: 539
GlyphClass: 2
Flags: HMW
HStem: -12 30<177 268.5> -1 31<473.5 510> 512 30<215 318> 610 25<264 264 264 275 253 264>
VStem: 50 32<95 164 95 170> 422 32 424 30<204 287 287 287 316 326>
AnchorPoint: "Anchor-3" 293.799 530 basechar 0
AnchorPoint: "Anchor-2" 446.346 0 basechar 0
AnchorPoint: "Anchor-0" 200.346 0 basechar 0
LayerCount: 2
Fore
SplineSet
230.76953125 734 m 1xbc
 258.76953125 734 l 1
 312.313476562 635 l 1
 400.76953125 734 l 1
 428.76953125 734 l 1
 318.905273438 610 l 1
 296.905273438 610 l 1
 230.76953125 734 l 1xbc
154.23046875 -12 m 0
 52.23046875 -12 -5.8955078125 44 9.2685546875 130 c 0
 23.375 210 98.837890625 258 196.01171875 276 c 2
 416.065429688 316 l 1xaa
 440.3984375 454 398.625 512 290.625 512 c 0
 192.625 512 124.6328125 461 93.5869140625 370 c 1
 61.1162109375 373 l 1
 98.1591796875 481 180.915039062 542 295.915039062 542 c 0
 417.915039062 542 473.572265625 472 447.828125 326 c 2
 407.978515625 100 l 2
 397.927734375 43 411.635742188 30 445.635742188 30 c 2
 451.635742188 30 l 1
 446.345703125 0 l 1
 440.169921875 -1 436.169921875 -1 431.169921875 -1 c 0x6c
 388.169921875 -1 364.51953125 18 377.389648438 108 c 1
 335.927734375 43 251.23046875 -12 154.23046875 -12 c 0
161.51953125 18 m 0
 277.51953125 18 377.625976562 98 396.31640625 204 c 2
 410.952148438 287 l 1
 200.075195312 248 l 2
 113.25390625 232 52.90625 196 41.62109375 132 c 0
 28.5732421875 58 71.51953125 18 161.51953125 18 c 0
EndSplineSet
Validated: 524321
Substitution2: "'ss02' Style Set 2 in Latin lookup 35 subtable" uni01CE.ss02
Substitution2: "'ss01' Style Set 1 in Latin lookup 34 subtable" uni01CE.ss01
AlternateSubs2: "'aalt' Access All Alternates in Latin lookup 1 subtable" uni01CE.ss01 uni01CE.ss02
EndChar

StartChar: acircumflex
Encoding: 226 226 175
Width: 539
GlyphClass: 2
Flags: HMW
HStem: -12 30<177 268.5> -1 31<473.5 510> 512 30<215 318> 709 25<265 265>
VStem: 50 32<95 164 95 170> 422 32 424 30<204 287 287 287 316 326>
AnchorPoint: "Anchor-3" 293.799 530 basechar 0
AnchorPoint: "Anchor-2" 446.346 0 basechar 0
AnchorPoint: "Anchor-0" 200.346 0 basechar 0
LayerCount: 2
Fore
SplineSet
209.905273438 610 m 1xbc
 319.76953125 734 l 1
 341.76953125 734 l 1
 407.905273438 610 l 1
 379.905273438 610 l 1
 326.361328125 709 l 1
 237.905273438 610 l 1
 209.905273438 610 l 1xbc
154.23046875 -12 m 0
 52.23046875 -12 -5.8955078125 44 9.2685546875 130 c 0
 23.375 210 98.837890625 258 196.01171875 276 c 2
 416.065429688 316 l 1xaa
 440.3984375 454 398.625 512 290.625 512 c 0
 192.625 512 124.6328125 461 93.5869140625 370 c 1
 61.1162109375 373 l 1
 98.1591796875 481 180.915039062 542 295.915039062 542 c 0
 417.915039062 542 473.572265625 472 447.828125 326 c 2
 407.978515625 100 l 2
 397.927734375 43 411.635742188 30 445.635742188 30 c 2
 451.635742188 30 l 1
 446.345703125 0 l 1
 440.169921875 -1 436.169921875 -1 431.169921875 -1 c 0x6c
 388.169921875 -1 364.51953125 18 377.389648438 108 c 1
 335.927734375 43 251.23046875 -12 154.23046875 -12 c 0
161.51953125 18 m 0
 277.51953125 18 377.625976562 98 396.31640625 204 c 2
 410.952148438 287 l 1
 200.075195312 248 l 2
 113.25390625 232 52.90625 196 41.62109375 132 c 0
 28.5732421875 58 71.51953125 18 161.51953125 18 c 0
EndSplineSet
Validated: 524321
Substitution2: "'ss02' Style Set 2 in Latin lookup 35 subtable" acircumflex.ss02
Substitution2: "'ss01' Style Set 1 in Latin lookup 34 subtable" acircumflex.ss01
AlternateSubs2: "'aalt' Access All Alternates in Latin lookup 1 subtable" acircumflex.ss01 acircumflex.ss02
EndChar

StartChar: adieresis
Encoding: 228 228 176
Width: 539
GlyphClass: 2
Flags: HMW
HStem: -12 30<177 268.5> -1 31<473.5 510> 512 30<215 318> 628 70<183 217 183 217 311 345>
VStem: 50 32<95 164 95 170> 183 34<628 698 628 698> 311 34<628 698 628 698> 422 32 424 30<204 287 287 287 316 326>
AnchorPoint: "Anchor-3" 296.974 530 basechar 0
AnchorPoint: "Anchor-2" 449.52 0 basechar 0
AnchorPoint: "Anchor-0" 203.52 0 basechar 0
LayerCount: 2
Fore
SplineSet
233.252929688 628 m 1xbf
 245.595703125 698 l 1
 279.595703125 698 l 1
 267.252929688 628 l 1
 233.252929688 628 l 1xbf
361.252929688 628 m 1
 373.595703125 698 l 1
 407.595703125 698 l 1
 395.252929688 628 l 1
 361.252929688 628 l 1
157.404296875 -12 m 0
 55.404296875 -12 -2.7216796875 44 12.4423828125 130 c 0
 26.548828125 210 102.01171875 258 199.186523438 276 c 2
 419.239257812 316 l 1xbe80
 443.572265625 454 401.798828125 512 293.798828125 512 c 0
 195.798828125 512 127.806640625 461 96.7607421875 370 c 1
 64.2900390625 373 l 1
 101.333007812 481 184.088867188 542 299.088867188 542 c 0
 421.088867188 542 476.74609375 472 451.001953125 326 c 2
 411.15234375 100 l 2
 401.1015625 43 414.809570312 30 448.809570312 30 c 2
 454.809570312 30 l 1
 449.51953125 0 l 1
 443.34375 -1 439.34375 -1 434.34375 -1 c 0x7f
 391.34375 -1 367.693359375 18 380.563476562 108 c 1
 339.1015625 43 254.404296875 -12 157.404296875 -12 c 0
164.693359375 18 m 0
 280.693359375 18 380.799804688 98 399.490234375 204 c 2
 414.125976562 287 l 1
 203.249023438 248 l 2
 116.427734375 232 56.080078125 196 44.794921875 132 c 0
 31.7470703125 58 74.693359375 18 164.693359375 18 c 0
EndSplineSet
Validated: 524321
Substitution2: "'ss08' Style Set 8 in Latin lookup 41 subtable" adieresis.ss08
Substitution2: "'ss02' Style Set 2 in Latin lookup 35 subtable" adieresis.ss02
Substitution2: "'ss01' Style Set 1 in Latin lookup 34 subtable" adieresis.ss01
AlternateSubs2: "'aalt' Access All Alternates in Latin lookup 1 subtable" adieresis.ss01 adieresis.ss02 adieresis.ss08
EndChar

StartChar: agrave
Encoding: 224 224 177
Width: 539
GlyphClass: 2
Flags: HMW
HStem: -12 30<177 268.5> -1 31<473.5 510> 512 30<215 318> 618 116<171 251 171 277>
VStem: 50 32<95 164 95 170> 422 32 424 30<204 287 287 287 316 326>
AnchorPoint: "Anchor-3" 293.799 530 basechar 0
AnchorPoint: "Anchor-2" 446.346 0 basechar 0
AnchorPoint: "Anchor-0" 200.346 0 basechar 0
LayerCount: 2
Fore
SplineSet
296.31640625 618 m 1xbc
 236.76953125 734 l 1
 270.76953125 734 l 1
 322.31640625 618 l 1
 296.31640625 618 l 1xbc
154.23046875 -12 m 0
 52.23046875 -12 -5.8955078125 44 9.2685546875 130 c 0
 23.375 210 98.837890625 258 196.01171875 276 c 2
 416.065429688 316 l 1xaa
 440.3984375 454 398.625 512 290.625 512 c 0
 192.625 512 124.6328125 461 93.5869140625 370 c 1
 61.1162109375 373 l 1
 98.1591796875 481 180.915039062 542 295.915039062 542 c 0
 417.915039062 542 473.572265625 472 447.828125 326 c 2
 407.978515625 100 l 2
 397.927734375 43 411.635742188 30 445.635742188 30 c 2
 451.635742188 30 l 1
 446.345703125 0 l 1
 440.169921875 -1 436.169921875 -1 431.169921875 -1 c 0x6c
 388.169921875 -1 364.51953125 18 377.389648438 108 c 1
 335.927734375 43 251.23046875 -12 154.23046875 -12 c 0
161.51953125 18 m 0
 277.51953125 18 377.625976562 98 396.31640625 204 c 2
 410.952148438 287 l 1
 200.075195312 248 l 2
 113.25390625 232 52.90625 196 41.62109375 132 c 0
 28.5732421875 58 71.51953125 18 161.51953125 18 c 0
EndSplineSet
Validated: 524321
Substitution2: "'ss02' Style Set 2 in Latin lookup 35 subtable" agrave.ss02
Substitution2: "'ss01' Style Set 1 in Latin lookup 34 subtable" agrave.ss01
AlternateSubs2: "'aalt' Access All Alternates in Latin lookup 1 subtable" agrave.ss01 agrave.ss02
EndChar

StartChar: amacron
Encoding: 257 257 178
Width: 539
GlyphClass: 2
Flags: HMW
HStem: -12 30<177 268.5> -1 31<473.5 510> 512 30<215 318> 644 28<140 388 140 388>
VStem: 50 32<95 164 95 170> 422 32 424 30<204 287 287 287 316 326>
AnchorPoint: "Anchor-3" 299.266 530 basechar 0
AnchorPoint: "Anchor-2" 451.812 0 basechar 0
AnchorPoint: "Anchor-0" 205.812 0 basechar 0
LayerCount: 2
Fore
SplineSet
195.366210938 644 m 1xbc
 200.303710938 672 l 1
 448.303710938 672 l 1
 443.366210938 644 l 1
 195.366210938 644 l 1xbc
159.696289062 -12 m 0
 57.6962890625 -12 -0.4296875 44 14.734375 130 c 0
 28.8408203125 210 104.3046875 258 201.478515625 276 c 2
 421.53125 316 l 1xba
 445.864257812 454 404.091796875 512 296.091796875 512 c 0
 198.091796875 512 130.098632812 461 99.052734375 370 c 1
 66.58203125 373 l 1
 103.625 481 186.380859375 542 301.380859375 542 c 0
 423.380859375 542 479.038085938 472 453.294921875 326 c 2
 413.444335938 100 l 2
 403.39453125 43 417.1015625 30 451.1015625 30 c 2
 457.1015625 30 l 1
 451.8125 0 l 1
 445.635742188 -1 441.635742188 -1 436.635742188 -1 c 0x7c
 393.635742188 -1 369.986328125 18 382.85546875 108 c 1
 341.39453125 43 256.696289062 -12 159.696289062 -12 c 0
166.986328125 18 m 0
 282.986328125 18 383.091796875 98 401.783203125 204 c 2
 416.41796875 287 l 1
 205.541015625 248 l 2
 118.719726562 232 58.3720703125 196 47.0869140625 132 c 0
 34.0390625 58 76.986328125 18 166.986328125 18 c 0
EndSplineSet
Validated: 524321
Substitution2: "'ss02' Style Set 2 in Latin lookup 35 subtable" amacron.ss02
Substitution2: "'ss01' Style Set 1 in Latin lookup 34 subtable" amacron.ss01
AlternateSubs2: "'aalt' Access All Alternates in Latin lookup 1 subtable" amacron.ss01 amacron.ss02
EndChar

StartChar: aogonek
Encoding: 261 261 179
Width: 539
GlyphClass: 2
Flags: HMW
HStem: -192 26<479 500 479 503> -12 30<177 268.5> -1 31<485 510> 512 30<215 318>
VStem: 50 32<95 164 95 170> 420 30<-144.5 -116> 422 32 424 30<204 287 287 287 316 326> 485 25<-1 30>
AnchorPoint: "Anchor-3" 326.596 530 basechar 0
AnchorPoint: "Anchor-2" 479.143 0 basechar 0
AnchorPoint: "Anchor-0" 233.143 0 basechar 0
LayerCount: 2
Fore
SplineSet
187.026367188 -12 m 0xda
 85.0263671875 -12 26.9013671875 44 42.0654296875 130 c 0
 56.171875 210 131.634765625 258 228.80859375 276 c 2
 448.862304688 316 l 1xd9
 473.1953125 454 431.421875 512 323.421875 512 c 0
 225.421875 512 157.4296875 461 126.383789062 370 c 1
 93.9130859375 373 l 1
 130.956054688 481 213.711914062 542 328.711914062 542 c 0
 450.711914062 542 506.369140625 472 480.625 326 c 2
 440.775390625 100 l 2xba
 430.724609375 43 444.432617188 30 478.432617188 30 c 2
 484.432617188 30 l 1
 479.142578125 0 l 1
 446.08984375 -40 l 2
 420.799804688 -70 401.862304688 -98 396.220703125 -130 c 0
 391.106445312 -159 407.872070312 -166 429.872070312 -166 c 0
 449.872070312 -166 467.930664062 -160 481.517578125 -151 c 1
 491.638671875 -173 l 1
 471.522460938 -185 451.288085938 -192 425.288085938 -192 c 0
 387.288085938 -192 358.109375 -176 365.8671875 -132 c 0xbc80
 371.509765625 -100 399.681640625 -65 432.55859375 -26 c 2
 453.966796875 -1 l 1xba80
 417.671875 3 398.55078125 25 410.186523438 108 c 1
 368.724609375 43 284.026367188 -12 187.026367188 -12 c 0xda
194.31640625 18 m 0
 310.31640625 18 410.422851562 98 429.11328125 204 c 2
 443.749023438 287 l 1
 232.872070312 248 l 2
 146.05078125 232 85.703125 196 74.41796875 132 c 0
 61.3701171875 58 104.31640625 18 194.31640625 18 c 0
EndSplineSet
Validated: 524321
Substitution2: "'ss02' Style Set 2 in Latin lookup 35 subtable" aogonek.ss02
Substitution2: "'ss01' Style Set 1 in Latin lookup 34 subtable" aogonek.ss01
AlternateSubs2: "'aalt' Access All Alternates in Latin lookup 1 subtable" aogonek.ss01 aogonek.ss02
EndChar

StartChar: aring
Encoding: 229 229 180
Width: 539
GlyphClass: 2
Flags: HMW
HStem: -12 30<177 268.5> -1 31<473.5 510> 512 30<215 318> 592 25<250 278 250 285> 708 26<250 278>
VStem: 50 32<95 164 95 170> 192 26<649 677 649 683.5> 309 26<649 677> 422 32 424 30<204 287 287 287 316 326>
AnchorPoint: "Anchor-3" 293.799 530 basechar 0
AnchorPoint: "Anchor-2" 446.346 0 basechar 0
AnchorPoint: "Anchor-0" 200.346 0 basechar 0
LayerCount: 2
Fore
SplineSet
304.731445312 592 m 0xbf80
 262.731445312 592 237.844726562 621 245.250976562 663 c 0
 252.48046875 704 287.76953125 734 329.76953125 734 c 0
 370.76953125 734 395.48046875 704 388.250976562 663 c 0
 381.021484375 622 346.731445312 592 304.731445312 592 c 0xbf80
309.139648438 617 m 0
 337.139648438 617 357.313476562 635 362.250976562 663 c 0
 367.1875 691 353.185546875 708 325.185546875 708 c 0
 297.185546875 708 276.1875 691 271.250976562 663 c 0
 266.313476562 635 281.139648438 617 309.139648438 617 c 0
154.23046875 -12 m 0
 52.23046875 -12 -5.8955078125 44 9.2685546875 130 c 0
 23.375 210 98.837890625 258 196.01171875 276 c 2
 416.065429688 316 l 1xbf40
 440.3984375 454 398.625 512 290.625 512 c 0
 192.625 512 124.6328125 461 93.5869140625 370 c 1
 61.1162109375 373 l 1
 98.1591796875 481 180.915039062 542 295.915039062 542 c 0
 417.915039062 542 473.572265625 472 447.828125 326 c 2
 407.978515625 100 l 2
 397.927734375 43 411.635742188 30 445.635742188 30 c 2
 451.635742188 30 l 1
 446.345703125 0 l 1
 440.169921875 -1 436.169921875 -1 431.169921875 -1 c 0x7f80
 388.169921875 -1 364.51953125 18 377.389648438 108 c 1
 335.927734375 43 251.23046875 -12 154.23046875 -12 c 0
161.51953125 18 m 0
 277.51953125 18 377.625976562 98 396.31640625 204 c 2
 410.952148438 287 l 1
 200.075195312 248 l 2
 113.25390625 232 52.90625 196 41.62109375 132 c 0
 28.5732421875 58 71.51953125 18 161.51953125 18 c 0
EndSplineSet
Validated: 524321
Substitution2: "'ss02' Style Set 2 in Latin lookup 35 subtable" aring.ss02
Substitution2: "'ss01' Style Set 1 in Latin lookup 34 subtable" aring.ss01
AlternateSubs2: "'aalt' Access All Alternates in Latin lookup 1 subtable" aring.ss01 aring.ss02
EndChar

StartChar: atilde
Encoding: 227 227 181
Width: 539
GlyphClass: 2
Flags: HMW
HStem: -12 30<177 268.5> -1 31<473.5 510> 512 30<215 318> 630 24<311 332 311 340> 690 24<186 213> 703 20G<363 389 389 389>
VStem: 50 32<95 164 95 170> 125 26<625 625> 363 26<723 723> 422 32 424 30<204 287 287 287 316 326>
AnchorPoint: "Anchor-3" 294.77 530 basechar 0
AnchorPoint: "Anchor-2" 447.315 0 basechar 0
AnchorPoint: "Anchor-0" 201.315 0 basechar 0
LayerCount: 2
Fore
SplineSet
367.401367188 630 m 0xb7c0
 339.401367188 630 324.341796875 641 309.043945312 662 c 0
 296.217773438 680 283.981445312 690 259.981445312 690 c 0
 229.981445312 690 208.278320312 669 198.520507812 625 c 1
 172.520507812 625 l 1
 186.39453125 681 222.212890625 714 264.212890625 714 c 0xbbc0
 296.212890625 714 313.568359375 699 329.865234375 678 c 0
 344.69140625 660 355.633789062 654 371.633789062 654 c 0
 397.633789062 654 414.983398438 673 427.799804688 723 c 1
 453.799804688 723 l 1
 439.573242188 665 409.401367188 630 367.401367188 630 c 0xb7c0
155.200195312 -12 m 0
 53.2001953125 -12 -4.92578125 44 10.23828125 130 c 0
 24.3447265625 210 99.80859375 258 196.982421875 276 c 2
 417.03515625 316 l 1xbba0
 441.368164062 454 399.594726562 512 291.594726562 512 c 0
 193.594726562 512 125.602539062 461 94.556640625 370 c 1
 62.0859375 373 l 1
 99.12890625 481 181.884765625 542 296.884765625 542 c 0
 418.884765625 542 474.541992188 472 448.798828125 326 c 2
 408.948242188 100 l 2
 398.897460938 43 412.60546875 30 446.60546875 30 c 2
 452.60546875 30 l 1
 447.315429688 0 l 1
 441.139648438 -1 437.139648438 -1 432.139648438 -1 c 0x7bc0
 389.139648438 -1 365.489257812 18 378.359375 108 c 1
 336.897460938 43 252.200195312 -12 155.200195312 -12 c 0
162.489257812 18 m 0
 278.489257812 18 378.595703125 98 397.286132812 204 c 2
 411.921875 287 l 1
 201.044921875 248 l 2
 114.223632812 232 53.8759765625 196 42.5908203125 132 c 0
 29.54296875 58 72.4892578125 18 162.489257812 18 c 0
EndSplineSet
Validated: 524321
Substitution2: "'ss02' Style Set 2 in Latin lookup 35 subtable" atilde.ss02
Substitution2: "'ss01' Style Set 1 in Latin lookup 34 subtable" atilde.ss01
AlternateSubs2: "'aalt' Access All Alternates in Latin lookup 1 subtable" atilde.ss01 atilde.ss02
EndChar

StartChar: ae
Encoding: 230 230 182
Width: 926
GlyphClass: 2
Flags: HMW
HStem: -12 30<180.5 274.5 599.5 703> 260 28<458 843 458 876 458 843> 512 30<217.5 313 205 317.5 600.5 712>
VStem: 50 32<92.5 163 92.5 169.5> 424 34<260 260 260 267 260 267> 843 33<260 288>
AnchorPoint: "Anchor-3" 509.727 530 basechar 0
AnchorPoint: "Anchor-2" 760.15 39 basechar 0
AnchorPoint: "Anchor-0" 416.273 0 basechar 0
LayerCount: 2
Fore
SplineSet
174.157226562 -12 m 0
 67.1572265625 -12 11.03125 44 26.3720703125 131 c 0
 39.94921875 208 112.294921875 261 212.234375 272 c 2
 429.465820312 296 l 1
 457.149414062 453 410.552734375 512 311.552734375 512 c 0
 210.552734375 512 138.20703125 459 110.514648438 370 c 1
 78.04296875 373 l 1
 111.205078125 476 198.842773438 542 308.842773438 542 c 0
 414.842773438 542 468.202148438 493 471.098632812 396 c 1
 519.262695312 482 597.842773438 542 700.842773438 542 c 0
 852.842773438 542 902.625 416 877.234375 272 c 2
 875.118164062 260 l 1
 457.118164062 260 l 1
 432.668945312 110 494.447265625 18 612.447265625 18 c 0
 706.447265625 18 775.439453125 69 810.840820312 145 c 1
 843.48828125 143 l 1
 801.619140625 53 715.157226562 -12 607.157226562 -12 c 0
 494.157226562 -12 434.5 58 421.604492188 155 c 1
 381.737304688 48 277.157226562 -12 174.157226562 -12 c 0
462.055664062 288 m 1
 847.055664062 288 l 1
 867.036132812 424 815.552734375 512 695.552734375 512 c 0
 583.552734375 512 493.565429688 427 462.055664062 288 c 1
178.447265625 18 m 0
 302.447265625 18 395.611328125 104 413.419921875 205 c 2
 424.352539062 267 l 1
 216.296875 244 l 2
 126.534179688 234 69.6572265625 195 58.3720703125 131 c 0
 44.794921875 54 95.447265625 18 178.447265625 18 c 0
EndSplineSet
Validated: 524321
EndChar

StartChar: b
Encoding: 98 98 183
Width: 570
GlyphClass: 2
Flags: HMW
HStem: -12 30<253 357 244 367> 0 21G<85 107 85 85> 512 30<255 357> 690 20G<85 115 115 115>
VStem: 85 23.5 85 30<192 336.5 400 710> 488 32<189 340>
AnchorPoint: "Anchor-3" 316.915 530 basechar 0
AnchorPoint: "Anchor-1" 128.188 265 basechar 0
AnchorPoint: "Anchor-0" 223.462 0 basechar 0
LayerCount: 2
Fore
SplineSet
235.345703125 -12 m 0xb6
 143.345703125 -12 86.8076171875 53 72.08984375 134 c 1
 45.4619140625 0 l 1x7a
 23.4619140625 0 l 1x76
 148.654296875 710 l 1
 178.654296875 710 l 1
 123.993164062 400 l 1
 166.451171875 482 245.03125 542 333.03125 542 c 0
 469.03125 542 534.811523438 433 505.188476562 265 c 0
 475.212890625 95 371.345703125 -12 235.345703125 -12 c 0xb6
240.635742188 18 m 0
 356.635742188 18 446.38671875 113 473.188476562 265 c 0
 499.637695312 415 443.741210938 512 327.741210938 512 c 0
 217.741210938 512 125.403320312 408 100.188476562 265 c 0xb6
 74.4443359375 119 130.635742188 18 240.635742188 18 c 0
EndSplineSet
Validated: 524321
EndChar

StartChar: c
Encoding: 99 99 184
Width: 531
GlyphClass: 2
Flags: HMW
HStem: -12 30<216 324 216 335> 512 30<216 324>
VStem: 50 32<190 340>
AnchorPoint: "Anchor-3" 321.727 530 basechar 0
AnchorPoint: "Anchor-0" 228.273 0 basechar 0
LayerCount: 2
Fore
SplineSet
226.157226562 -12 m 0
 76.1572265625 -12 23.55078125 115 50 265 c 0
 76.44921875 415 173.842773438 542 323.842773438 542 c 0
 443.842773438 542 497.265625 465 505.6328125 365 c 1
 473.280273438 363 l 1
 465.854492188 457 416.552734375 512 318.552734375 512 c 0
 200.552734375 512 108.801757812 417 82 265 c 0
 55.1982421875 113 113.447265625 18 231.447265625 18 c 0
 329.447265625 18 406.026367188 78 443.659179688 178 c 1
 475.130859375 175 l 1
 432.086914062 67 346.157226562 -12 226.157226562 -12 c 0
EndSplineSet
Validated: 524321
EndChar

StartChar: cacute
Encoding: 263 263 185
Width: 531
GlyphClass: 2
Flags: HMW
HStem: -12 30<216 324 216 335> 512 30<216 324> 610 116<261 367 261 367>
VStem: 50 32<190 340>
AnchorPoint: "Anchor-3" 305.505 530 basechar 0
AnchorPoint: "Anchor-0" 212.051 0 basechar 0
LayerCount: 2
Fore
SplineSet
305.610351562 610 m 1
 398.064453125 726 l 1
 432.064453125 726 l 1
 331.610351562 610 l 1
 305.610351562 610 l 1
209.935546875 -12 m 0
 59.935546875 -12 7.3291015625 115 33.7783203125 265 c 0
 60.2265625 415 157.620117188 542 307.620117188 542 c 0
 427.620117188 542 481.04296875 465 489.41015625 365 c 1
 457.057617188 363 l 1
 449.6328125 457 400.331054688 512 302.331054688 512 c 0
 184.331054688 512 92.580078125 417 65.7783203125 265 c 0
 38.9765625 113 97.2255859375 18 215.225585938 18 c 0
 313.225585938 18 389.8046875 78 427.4375 178 c 1
 458.908203125 175 l 1
 415.865234375 67 329.935546875 -12 209.935546875 -12 c 0
EndSplineSet
Validated: 524321
EndChar

StartChar: ccaron
Encoding: 269 269 186
Width: 531
GlyphClass: 2
Flags: HMW
HStem: -12 30<216 324 216 335> 512 30<216 324> 610 25<275 275 275 286 264 275>
VStem: 50 32<190 340>
AnchorPoint: "Anchor-3" 304.799 530 basechar 0
AnchorPoint: "Anchor-0" 211.346 0 basechar 0
LayerCount: 2
Fore
SplineSet
241.76953125 734 m 1
 269.76953125 734 l 1
 323.313476562 635 l 1
 411.76953125 734 l 1
 439.76953125 734 l 1
 329.905273438 610 l 1
 307.905273438 610 l 1
 241.76953125 734 l 1
209.23046875 -12 m 0
 59.23046875 -12 6.6240234375 115 33.072265625 265 c 0
 59.521484375 415 156.915039062 542 306.915039062 542 c 0
 426.915039062 542 480.337890625 465 488.705078125 365 c 1
 456.352539062 363 l 1
 448.927734375 457 399.625 512 301.625 512 c 0
 183.625 512 91.8740234375 417 65.072265625 265 c 0
 38.2705078125 113 96.51953125 18 214.51953125 18 c 0
 312.51953125 18 389.099609375 78 426.732421875 178 c 1
 458.203125 175 l 1
 415.16015625 67 329.23046875 -12 209.23046875 -12 c 0
EndSplineSet
Validated: 524321
EndChar

StartChar: ccedilla
Encoding: 231 231 187
Width: 531
GlyphClass: 2
Flags: HMW
HStem: -204 26<244 286 244 295> -72 24<263 263 263 278.5> -11 29<255 255> 512 30<216 324>
VStem: 50 32<193.5 340> 333 28<-143 -106.5>
AnchorPoint: "Anchor-3" 338.654 530 basechar 0
AnchorPoint: "Anchor-0" 245.201 0 basechar 0
LayerCount: 2
Fore
SplineSet
201.23046875 -204 m 0
 151.23046875 -204 121.109375 -182 115.809570312 -144 c 1
 141.573242188 -134 l 1
 144.98828125 -160 161.814453125 -178 203.814453125 -178 c 0
 245.814453125 -178 274.635742188 -162 281.3359375 -124 c 0
 287.5078125 -89 267.504882812 -72 204.504882812 -72 c 1
 193.678710938 -54 l 1
 223.260742188 -11 l 1
 88.201171875 0 41.712890625 122 66.927734375 265 c 0
 93.3759765625 415 190.76953125 542 340.76953125 542 c 0
 460.76953125 542 514.192382812 465 522.560546875 365 c 1
 490.20703125 363 l 1
 482.782226562 457 433.48046875 512 335.48046875 512 c 0
 217.48046875 512 125.729492188 417 98.927734375 265 c 0
 72.1259765625 113 130.375 18 248.375 18 c 0
 346.375 18 422.954101562 78 460.586914062 178 c 1
 492.057617188 175 l 1
 450.3671875 69 366.614257812 -9 250.084960938 -12 c 1
 224.737304688 -48 l 1
 286.384765625 -50 318.15234375 -74 308.983398438 -126 c 0
 300.166992188 -176 257.23046875 -204 201.23046875 -204 c 0
EndSplineSet
Validated: 524321
EndChar

